<?xml version="1.0" encoding="utf-8"?>
<!-- Generator: Adobe Illustrator 24.1.1, SVG Export Plug-In . SVG Version: 6.00 Build 0)  -->
<svg version="1.1" id="Layer_1" xmlns="http://www.w3.org/2000/svg" xmlns:xlink="http://www.w3.org/1999/xlink" x="0px" y="0px"
	 viewBox="0 0 453.2 303.5" style="enable-background:new 0 0 453.2 303.5;" xml:space="preserve">
<style type="text/css">
	.st0{fill:#F9F9F9;}
	.st1{opacity:0.7;fill:#E5E5E5;enable-background:new    ;}
	.st2{opacity:0.15;fill:#E5E5E5;enable-background:new    ;}
	.st3{opacity:0.1;fill:#EFEFEF;enable-background:new    ;}
	.st4{fill:#F7F7F7;}
	.st5{fill:none;}
	.st6{opacity:0.5;fill:#808080;stroke:#808080;stroke-width:0.65;stroke-miterlimit:10;enable-background:new    ;}
	.st7{fill:#CCCCCC;}
	.st8{fill:#4D8BBF;}
	.st9{fill:#80C380;}
	.st10{fill:#FFFFFF;}
</style>
<path class="st0" d="M140.7,21.5c15-13.4,38.6-16.1,60-15C268.1,9.8,329,42.3,381.6,79.1c19.1,13.3,37.8,27.7,50.2,46
	c25.2,37.4,17.7,89.1-17.3,119.9c-11.9,10.5-26.4,18.5-41.2,25.6c-26.4,12.6-54.8,22.8-84.7,25.7c-21.3,2.1-42.9,0.4-64.1-2.5
	c-59.2-8.1-117.4-25.8-166.1-56.2C36.9,224.3,16.8,207.7,8,186.2c-8.8-21.6-3.2-48.9,18.7-61.7c9-5.3,19.8-7.7,30.4-9.9
	c15.6-3.3,31.4-6.5,45.4-13.2c14.5-6.9,31.7-20.3,28.8-35.6C128.1,49.3,125.7,34.9,140.7,21.5z"/>
<polygon class="st1" points="254.1,119.2 153.4,134.8 196.6,161.3 253.1,152 "/>
<path class="st1" d="M213.6,184c-0.2,0-0.4-0.1-0.5-0.3l-16-19.8v79L299.9,227l-1.6-58.2L213.8,184C213.7,184,213.7,184,213.6,184z"
	/>
<path class="st2" d="M180.5,179.6c-0.1,0-0.2,0-0.4-0.1l-28-17.3v54l43.6,26.3v-78.8L181,179.4C180.9,179.5,180.7,179.6,180.5,179.6
	z"/>
<polygon class="st3" points="195.1,162 151.5,135.3 136.4,150.9 152.4,160.8 153.2,161.3 180.4,178 195.4,162.2 "/>
<polygon class="st3" points="253.5,117.9 237.2,99.4 137.3,115.9 151.7,133.7 "/>
<path class="st3" d="M298.2,144.5c0.1,0,0.1,0,0.2,0l16.7-14.6l-43.7-26.5l-15.5,14.8l10,6.2L298.2,144.5L298.2,144.5z"/>
<polygon class="st4" points="296.1,144.9 255.4,119.6 254.5,151.7 "/>
<path class="st3" d="M299.1,147l-0.7-0.8l0,0l-0.6,0.1l-43.8,7.3h-0.1c-0.1,0-0.3-0.1-0.4-0.2l-55.6,9l16.2,20l84.4-15.2l0.7-0.1
	l0.7-0.1l15.3-2.7L299.1,147z"/>
<polygon class="st5" points="153.2,161.3 180.4,178 195.4,162.2 195.1,162 151.5,135.3 136.4,150.9 152.4,160.8 "/>
<polygon class="st5" points="254.1,119.2 153.4,134.8 196.6,161.3 253.1,152 "/>
<path class="st5" d="M180.5,179.6c-0.1,0-0.2,0-0.4-0.1l-28-17.3v54l43.6,26.3v-78.8L181,179.4C180.9,179.5,180.7,179.6,180.5,179.6
	z"/>
<polygon class="st5" points="253.5,117.9 237.2,99.4 137.3,115.9 151.7,133.7 "/>
<path class="st5" d="M298.1,144.5h0.1c0.1,0,0.1,0,0.2,0l16.7-14.6l-43.7-26.5l-15.5,14.8l10,6.2L298.1,144.5z"/>
<polygon class="st5" points="255.4,119.6 254.5,151.7 296.1,144.9 "/>
<path class="st5" d="M213.8,184h-0.1c-0.2,0-0.4-0.1-0.5-0.3l-16-19.8v79L299.9,227l-1.6-58.2L213.8,184z"/>
<path class="st6" d="M299.5,145.4l17.2-15.1c0.2-0.1,0.2-0.4,0.2-0.6c0-0.2-0.1-0.4-0.3-0.5l-45-27.2c-0.3-0.2-0.6-0.1-0.8,0.1
	l-16,15.3L238,98.3c-0.2-0.2-0.4-0.3-0.6-0.2l-101.5,16.7c-0.2,0-0.4,0.2-0.5,0.4c-0.1,0.2,0,0.5,0.1,0.7l15.1,18.5l-15.7,16.2
	c-0.1,0.1-0.2,0.4-0.2,0.6c0,0.2,0.1,0.4,0.3,0.5l15.8,9.7v55.3c0,0.2,0.1,0.5,0.3,0.6l45,27.1c0.1,0.1,0.2,0.1,0.4,0.1h0.1
	l104.2-16.1c0.3-0.1,0.6-0.4,0.6-0.7l-1.6-59l16.7-3c0.2,0,0.4-0.2,0.5-0.5c0.1-0.2,0-0.5-0.1-0.7L299.5,145.4z M271.4,103.4
	l43.7,26.5l-16.7,14.6c-0.1,0-0.1,0-0.2,0h-0.1l-32.2-20.1l-10-6.2L271.4,103.4z M255.4,119.6l40.6,25.3l-41.6,6.9L255.4,119.6z
	 M137.3,115.9l100-16.5l16.2,18.4l-101.7,15.8L137.3,115.9z M136.4,150.9l15.2-15.7l43.6,26.7l0.3,0.2l-15,15.8l-27.2-16.7l-0.7-0.4
	L136.4,150.9z M195.8,242.5l-43.6-26.3v-54l28,17.3c0.1,0.1,0.2,0.1,0.4,0.1s0.4-0.1,0.5-0.2l14.8-15.6v78.7H195.8z M153.4,134.8
	l100.7-15.6l-1,32.8l-56.5,9.4L153.4,134.8z M299.9,227l-102.8,15.9v-79l16,19.8c0.1,0.2,0.3,0.3,0.5,0.3h0.1l84.6-15.2L299.9,227z
	 M299.6,167.2l-0.7,0.1l-0.7,0.1l-84.4,15.2l-16.2-20l55.6-9l0,0l45-7.3l0,0l0.7,0.8l15.8,17.4L299.6,167.2z"/>
<path class="st7" d="M309.6,99.1l-1.6-0.2l-0.7-1.4c-0.3-0.5-1.1-0.5-1.3,0l-0.7,1.4l-1.6,0.2c-0.3,0-0.5,0.2-0.6,0.5s0,0.6,0.2,0.8
	l1.1,1.1l-0.3,1.6c0,0.3,0.1,0.6,0.3,0.7s0.5,0.2,0.8,0.1l1.4-0.7l1.4,0.7c0.3,0.1,0.6,0.1,0.8-0.1c0.2-0.2,0.3-0.4,0.3-0.7
	l-0.3-1.6l1.1-1.1c0.2-0.2,0.3-0.5,0.2-0.8C310.1,99.4,309.9,99.2,309.6,99.1z"/>
<path class="st7" d="M227.5,73.3l-1.5-0.2l-0.7-1.4c-0.2-0.5-1.1-0.5-1.3,0l-0.7,1.4l-1.5,0.2c-0.3,0-0.5,0.2-0.6,0.5s0,0.6,0.2,0.7
	l1.1,1.1l-0.3,1.5c0,0.3,0.1,0.5,0.3,0.7s0.5,0.2,0.8,0.1l1.4-0.7l1.4,0.7c0.3,0.1,0.6,0.1,0.8-0.1s0.3-0.4,0.3-0.7l-0.3-1.5
	l1.1-1.1c0.2-0.2,0.3-0.5,0.2-0.7C228,73.5,227.8,73.3,227.5,73.3z"/>
<path class="st7" d="M151.1,101.2l-1.2-0.2l-0.5-1.1c-0.2-0.4-0.8-0.4-1,0l-0.5,1.1l-1.2,0.2c-0.2,0-0.4,0.2-0.4,0.4
	c-0.1,0.2,0,0.4,0.1,0.6l0.8,0.8l-0.2,1.2c0,0.2,0.1,0.4,0.2,0.5c0.2,0.1,0.4,0.1,0.6,0l1-0.5l1,0.5c0.2,0.1,0.4,0.1,0.6,0
	c0.2-0.1,0.3-0.3,0.2-0.5l-0.2-1.2l0.8-0.8c0.2-0.1,0.2-0.4,0.1-0.6C151.5,101.4,151.3,101.2,151.1,101.2z"/>
<path class="st7" d="M301.7,89.5c-0.2-0.3-0.4-0.6-0.7-0.7c-0.3-0.2-0.6-0.3-1-0.3s-0.7,0.1-1,0.3c-0.3,0.2-0.6,0.4-0.7,0.7
	c-0.2,0.3-0.3,0.7-0.3,1c0,0.4,0.1,0.7,0.3,1c0.2,0.3,0.4,0.6,0.7,0.7c0.3,0.2,0.7,0.3,1,0.3c0.4,0,0.7-0.1,1-0.3
	c0.3-0.2,0.6-0.4,0.7-0.7c0.2-0.3,0.3-0.7,0.3-1C302,90.1,301.9,89.8,301.7,89.5z M301.1,91.2c-0.1,0.2-0.3,0.4-0.5,0.5
	s-0.4,0.2-0.7,0.2s-0.5-0.1-0.7-0.2s-0.4-0.3-0.5-0.5s-0.2-0.4-0.2-0.7c0-0.2,0.1-0.5,0.2-0.7s0.3-0.4,0.5-0.5s0.4-0.2,0.7-0.2
	s0.5,0.1,0.7,0.2s0.4,0.3,0.5,0.5s0.2,0.4,0.2,0.7C301.3,90.7,301.2,91,301.1,91.2z"/>
<path class="st7" d="M237.2,79c-0.2-0.3-0.4-0.6-0.7-0.7c-0.3-0.2-0.7-0.3-1-0.3c-0.4,0-0.7,0.1-1,0.3c-0.3,0.2-0.6,0.4-0.7,0.7
	c-0.2,0.3-0.3,0.7-0.3,1c0,0.4,0.1,0.7,0.3,1s0.4,0.6,0.7,0.7c0.3,0.2,0.7,0.3,1,0.3c0.4,0,0.7-0.1,1-0.3c0.3-0.2,0.6-0.4,0.7-0.7
	c0.2-0.3,0.3-0.7,0.3-1S237.4,79.3,237.2,79z M236.6,80.7c-0.1,0.2-0.3,0.4-0.5,0.5s-0.4,0.2-0.7,0.2c-0.2,0-0.5-0.1-0.7-0.2
	s-0.4-0.3-0.5-0.5S234,80.3,234,80c0-0.2,0.1-0.5,0.2-0.7c0.1-0.2,0.3-0.4,0.5-0.5s0.4-0.2,0.7-0.2c0.2,0,0.5,0.1,0.7,0.2
	s0.4,0.3,0.5,0.5s0.2,0.4,0.2,0.7C236.8,80.3,236.7,80.5,236.6,80.7z"/>
<path class="st7" d="M157,89.5c-0.2-0.3-0.4-0.6-0.7-0.7c-0.3-0.2-0.7-0.3-1-0.3c-0.4,0-0.7,0.1-1,0.3c-0.3,0.2-0.6,0.4-0.7,0.7
	c-0.2,0.3-0.3,0.7-0.3,1c0,0.4,0.1,0.7,0.3,1s0.4,0.6,0.7,0.7c0.3,0.2,0.7,0.3,1,0.3c0.4,0,0.7-0.1,1-0.3c0.3-0.2,0.6-0.4,0.7-0.7
	c0.2-0.3,0.3-0.7,0.3-1C157.3,90.1,157.2,89.8,157,89.5z M156.4,91.2c-0.1,0.2-0.3,0.4-0.5,0.5s-0.4,0.2-0.7,0.2
	c-0.2,0-0.5-0.1-0.7-0.2s-0.4-0.3-0.5-0.5s-0.2-0.4-0.2-0.7c0-0.2,0.1-0.5,0.2-0.7c0.1-0.2,0.3-0.4,0.5-0.5s0.4-0.2,0.7-0.2
	s0.5,0.1,0.7,0.2s0.4,0.3,0.5,0.5s0.2,0.4,0.2,0.7C156.6,90.7,156.5,91,156.4,91.2z"/>
<circle class="st7" cx="297.9" cy="107.1" r="0.6"/>
<circle class="st7" cx="225.8" cy="89.7" r="0.6"/>
<circle class="st7" cx="157.3" cy="102.8" r="0.6"/>
<path class="st8" d="M202.9,71.4l-39.8,18c-1.9,0.8-2.7,3.1-1.9,4.9l20.3,44.8c0.7,1.6,2.1,2.6,3.8,3l24.9,4.7
	c1.8,0.3,3.7-0.5,4.6-2.1l12.9-21.8c0.9-1.5,1-3.2,0.3-4.8l-20.3-44.8C207,71.3,204.8,70.5,202.9,71.4z"/>
<path class="st9" d="M248.7,71.4l39.7,18c1.9,0.9,2.7,3.1,1.9,4.9L270,139.1c-0.7,1.6-2.1,2.6-3.8,3l-25,4.7
	c-1.8,0.3-3.7-0.5-4.6-2.1l-12.9-21.8c-0.9-1.5-1-3.2-0.3-4.8l20.3-44.7C244.6,71.3,246.8,70.5,248.7,71.4z"/>
<g>
	<path class="st10" d="M182.7,108.7L182.7,108.7c-0.1,0.2-0.1,0.2-0.1,0.2h-0.1c-0.1-0.1-0.2-0.4-0.2-0.4c0-0.1,0,0,0,0l0,0
		c0,0.1,0,0.3,0,0.3c0,0.1-0.1,0.1-0.1,0.1c-0.1,0-0.2-0.1-0.2-0.1c-0.1-0.1-0.2-0.3-0.2-0.3c-0.1-0.1,0,0,0,0l0.1,0.2
		c0,0.1,0,0.2,0,0.2c0,0.1,0,0.1,0,0.1h-0.1c-0.1,0-0.2-0.2-0.2-0.2c-0.1,0,0,0,0,0c0,0.1,0.1,0.3,0.1,0.3c0.1,0.2,0,0.2,0,0.2h-0.1
		c-0.1,0-0.2-0.1-0.2-0.1l0,0v0.1l0.3,0.4c0.5-0.5,1.2-0.5,1.2-0.5S182.8,108.8,182.7,108.7C182.7,108.6,182.7,108.7,182.7,108.7z"
		/>
	<path class="st10" d="M180.7,115.5c0.7,1.5,0.6,2.4-0.3,2.8c-0.3,0.1-0.6,0.2-0.9,0.1h-0.1l0.5,1.1l0,0c0.3,0,0.6-0.1,0.9-0.2
		c0.7-0.3,1.2-0.9,1.4-1.7c0.2-0.8,0-1.7-0.4-2.7l-2.5-5.5l-1.1,0.5L180.7,115.5z"/>
	
		<rect x="183.7" y="110.5" transform="matrix(0.9077 -0.4196 0.4196 0.9077 -30.77 87.8468)" class="st10" width="1.2" height="6.8"/>
	<path class="st10" d="M185.8,107.3l-0.9,0.8l0.7,1.5l-1,0.5l0.4,0.9l1-0.5l1.6,3.5c0.6,1.2,1.4,1.6,2.5,1.1
		c0.4-0.2,0.7-0.4,0.8-0.6l0,0l-0.5-1l-0.1,0.1c-0.1,0.2-0.3,0.4-0.5,0.5c-0.3,0.1-0.5,0.2-0.7,0.1s-0.4-0.4-0.6-0.7L187,110
		l1.5-0.7l-0.4-0.9l-1.5,0.7L185.8,107.3z"/>
	<path class="st10" d="M191.6,106.6c-0.8,0.4-1.3,1-1.6,1.8s-0.2,1.8,0.3,2.7c0.5,1,1.1,1.7,1.8,2c0.8,0.3,1.6,0.3,2.4-0.1
		c0.9-0.4,1.5-0.9,1.9-1.6l0,0l-0.5-1.1l-0.1,0.1c-0.4,0.7-0.9,1.2-1.5,1.5s-1.1,0.3-1.6,0.1c-0.5-0.2-0.9-0.6-1.2-1.2l4.3-2
		l-0.3-0.6c-0.4-0.9-1-1.5-1.7-1.9C193.1,106.2,192.4,106.2,191.6,106.6z M191.1,110c-0.1-0.5-0.1-1,0-1.4c0.2-0.5,0.5-0.8,0.9-1
		c0.5-0.2,0.9-0.2,1.3,0c0.4,0.2,0.7,0.5,0.9,1L191.1,110z"/>
	<path class="st10" d="M198.2,107.4c0.7,1.5,0.6,2.4-0.3,2.8c-0.3,0.1-0.6,0.2-0.9,0.1h-0.1l0.5,1.1l0,0c0.3,0,0.6-0.1,0.9-0.2
		c0.7-0.3,1.2-0.9,1.4-1.7c0.2-0.8,0-1.7-0.4-2.7l-2.5-5.5l-1.1,0.5L198.2,107.4z"/>
	<path class="st10" d="M201.8,101.9c-0.8,0.4-1.4,0.9-1.8,1.5l0,0l0.5,1.1l0.1-0.1c0.3-0.7,0.9-1.3,1.6-1.6c0.8-0.4,1.4-0.1,1.8,0.9
		l-1.6,1.1c-1.3,0.8-1.6,1.8-1.1,3c0.2,0.5,0.6,0.9,1.1,1.1s1.1,0.1,1.7-0.2c0.8-0.4,1.2-1,1.4-1.8l0.4,0.8l1.1-0.5l-1.8-4
		C204.4,101.6,203.3,101.2,201.8,101.9z M204.7,105.1c0.2,0.5,0.3,1,0.1,1.4c-0.2,0.5-0.5,0.8-0.9,1c-0.3,0.2-0.6,0.2-0.9,0.1
		c-0.3-0.1-0.5-0.3-0.6-0.5c-0.2-0.4-0.2-0.7-0.1-0.9l0,0c0.1-0.3,0.4-0.5,0.8-0.8l1.3-0.8L204.7,105.1z"/>
	<path class="st10" d="M211,98.7c-0.5-0.2-1-0.3-1.5-0.2h-0.1l0,0c-0.1,0-0.2,0.1-0.4,0.1l0,0h-0.1l0,0h-0.1l0,0l0,0
		c-0.1,0-0.2,0.1-0.2,0.1c-1,0.4-1.6,1.1-1.9,1.9c-0.3,0.8-0.2,1.8,0.3,2.8c0.4,0.9,1.1,1.6,1.9,1.9c0.8,0.3,1.7,0.3,2.6-0.1
		c0.9-0.4,1.5-1.1,1.8-1.9c0.2-0.7,0.2-1.5-0.1-2.2l-0.2-0.6C212.3,99.6,211.7,99,211,98.7L211,98.7z M212,103.1
		c-0.1,0.5-0.5,1-1.1,1.2c-0.6,0.3-1.2,0.3-1.7,0.1c-0.5-0.2-1-0.7-1.3-1.4c-0.3-0.7-0.4-1.4-0.3-2c0.1-0.3,0.2-0.5,0.4-0.8
		c0.2-0.2,0.4-0.4,0.7-0.5c0.6-0.3,1.2-0.3,1.7-0.1c0.3,0.2,0.7,0.5,0.9,0.9c0.1,0.2,0.2,0.4,0.4,0.6
		C212.1,101.9,212.2,102.6,212,103.1z"/>
</g>
<g>
	<path class="st10" d="M247.8,99.6L247.8,99.6c-0.2,0.1-0.3,0.1-0.3,0.1v-0.1c0-0.2,0.1-0.4,0.1-0.4c0-0.1,0,0,0,0l0,0l-0.2,0.1
		c-0.1,0.1-0.1,0-0.1,0v-0.2c0-0.1,0.1-0.4,0.1-0.4c0-0.1,0,0,0,0l-0.1,0.2c0,0.1-0.1,0.2-0.1,0.2c-0.1,0.1-0.1,0.1-0.1,0.1
		l-0.1-0.1c0-0.1,0-0.3,0-0.3c0-0.1,0,0,0,0c0,0.1-0.1,0.2-0.1,0.2c-0.1,0.1-0.2,0.1-0.2,0.1c-0.1,0-0.1-0.1-0.1-0.1
		c0-0.1-0.1-0.2-0.1-0.2l0,0v0.1l-0.1,0.5c0.7,0,1.2,0.5,1.2,0.5S247.7,99.7,247.8,99.6C247.8,99.5,247.8,99.6,247.8,99.6z"/>
	<path class="st10" d="M241.3,102.5c-0.7,1.5-1.4,2-2.3,1.6c-0.3-0.1-0.6-0.3-0.7-0.6l-0.1-0.1l-0.5,1.1l0,0
		c0.2,0.2,0.4,0.4,0.8,0.5c0.7,0.3,1.4,0.3,2.1-0.1c0.7-0.4,1.3-1.1,1.7-2.1l2.5-5.5l-1.1-0.5L241.3,102.5z"/>
	
		<rect x="241.5" y="103.5" transform="matrix(0.4114 -0.9115 0.9115 0.4114 49.2687 284.4342)" class="st10" width="6.8" height="1.2"/>
	<path class="st10" d="M250.9,100.9l-1.2-0.1l-0.7,1.5l-1-0.5l-0.4,0.9l1,0.5l-1.6,3.5c-0.5,1.2-0.3,2.1,0.8,2.6
		c0.4,0.2,0.7,0.2,1,0.2l0,0l0.4-1h-0.1c-0.2,0.1-0.5,0-0.7-0.1c-0.3-0.1-0.5-0.3-0.5-0.5c-0.1-0.2,0-0.5,0.2-0.9l1.5-3.3l1.5,0.7
		l0.4-0.9l-1.5-0.7L250.9,100.9z"/>
	<path class="st10" d="M255.1,104.9c-0.8-0.4-1.6-0.4-2.4,0c-0.8,0.4-1.4,1-1.9,2s-0.6,1.9-0.3,2.7c0.2,0.8,0.8,1.4,1.7,1.8
		s1.7,0.5,2.4,0.4l0,0l0.5-1.1H255c-0.8,0.2-1.5,0.1-2.1-0.2c-0.6-0.3-1-0.7-1.1-1.2c-0.2-0.5-0.1-1.1,0.1-1.7l4.3,1.9l0.3-0.6
		c0.4-0.9,0.5-1.7,0.3-2.5C256.5,105.8,255.9,105.3,255.1,104.9z M252.3,106.7c0.3-0.4,0.7-0.8,1.1-0.9c0.4-0.2,0.9-0.2,1.3,0
		c0.5,0.2,0.7,0.5,0.9,0.9c0.1,0.4,0.1,0.9-0.2,1.4L252.3,106.7z"/>
	<path class="st10" d="M258.9,110.5c-0.7,1.5-1.4,2-2.3,1.6c-0.3-0.1-0.6-0.3-0.7-0.6l-0.1-0.1l-0.5,1.1l0,0
		c0.2,0.2,0.4,0.4,0.8,0.5c0.7,0.3,1.4,0.3,2.1-0.1s1.3-1.1,1.7-2.1l2.5-5.5l-1.1-0.5L258.9,110.5z"/>
	<path class="st10" d="M265.4,109.5c-0.8-0.4-1.6-0.5-2.3-0.4l0,0l-0.5,1.1h0.1c0.8-0.2,1.6-0.2,2.3,0.1c0.8,0.4,1,1,0.5,2l-1.9-0.5
		c-1.4-0.4-2.4-0.1-3,1.1c-0.2,0.5-0.3,1.1-0.1,1.6c0.2,0.5,0.6,0.9,1.2,1.2c0.8,0.4,1.5,0.3,2.3-0.2l-0.4,0.8l1.1,0.5l1.8-4
		C267.3,111.3,266.9,110.2,265.4,109.5z M264.8,113.8c-0.2,0.5-0.6,0.8-1,1s-0.9,0.2-1.4,0c-0.3-0.2-0.6-0.4-0.7-0.6
		c-0.1-0.3-0.1-0.5,0-0.8c0.2-0.4,0.4-0.6,0.7-0.7l0,0c0.3-0.1,0.7,0,1.1,0.1l1.5,0.4L264.8,113.8z"/>
	<path class="st10" d="M273.8,114.4c-0.2-0.5-0.4-0.9-0.8-1.2c0,0-0.1,0-0.1-0.1l0,0c-0.1-0.1-0.2-0.1-0.3-0.2l0,0
		c0,0-0.1,0-0.1-0.1l0,0c0,0-0.1,0-0.1-0.1l0,0l0,0c-0.1,0-0.2-0.1-0.2-0.1c-1-0.4-1.9-0.5-2.7-0.2c-0.8,0.3-1.5,1-1.9,2
		c-0.4,0.9-0.5,1.8-0.2,2.7c0.3,0.8,0.9,1.4,1.8,1.9c0.9,0.4,1.8,0.5,2.6,0.1c0.7-0.3,1.2-0.8,1.7-1.5l0.3-0.5
		C274,116,274.1,115.1,273.8,114.4L273.8,114.4z M271.2,118.1c-0.5,0.2-1.1,0.2-1.7,0c-0.6-0.3-1-0.7-1.2-1.2
		c-0.2-0.6-0.1-1.2,0.2-1.9c0.3-0.7,0.8-1.2,1.3-1.5c0.3-0.1,0.6-0.2,0.8-0.2c0.3,0,0.6,0.1,0.9,0.2c0.6,0.3,1,0.7,1.1,1.2
		c0.1,0.4,0.1,0.8,0,1.3c-0.1,0.2-0.1,0.4-0.2,0.7C272.1,117.3,271.7,117.8,271.2,118.1z"/>
</g>
</svg>
