<?xml version="1.0" encoding="utf-8"?>
<!-- Generator: Adobe Illustrator 24.1.1, SVG Export Plug-In . SVG Version: 6.00 Build 0)  -->
<svg version="1.1" id="Layer_1" xmlns="http://www.w3.org/2000/svg" xmlns:xlink="http://www.w3.org/1999/xlink" x="0px" y="0px"
	 viewBox="0 0 236.5 196.9" style="enable-background:new 0 0 236.5 196.9;" xml:space="preserve">
<style type="text/css">
	.st0{fill:#F9F9F9;}
	.st1{fill:#80C380;}
	.st2{fill:#FFFFFF;}
</style>
<path class="st0" d="M71.5,20.2c7.6-6.8,19.6-8.2,30.4-7.6c34.2,1.7,65,18.2,91.7,36.8c9.7,6.8,19.2,14,25.4,23.3
	c12.8,18.9,9,45.2-8.8,60.7c-6,5.3-13.4,9.4-20.9,13c-13.4,6.4-27.8,11.6-42.9,13c-10.8,1-21.8,0.2-32.5-1.3
	c-30-4.1-59.5-13.1-84.2-28.5C19,123,8.8,114.6,4.3,103.6c-4.5-10.9-1.6-24.8,9.5-31.3c4.6-2.7,10-3.9,15.4-5
	c7.9-1.7,15.9-3.3,23-6.7c7.3-3.5,16-10.3,14.6-18.1C65.2,34.3,63.9,26.9,71.5,20.2z"/>
<circle class="st1" cx="121.6" cy="86.2" r="45"/>
<g>
	<path class="st2" d="M138.2,67.6c0.3,0,0.6,0.2,0.8,0.4c2.6,3,4.6,5.3,5.9,6.8c0.2,0.3,0.3,0.5,0.3,0.9c0,0.3-0.2,0.6-0.4,0.9
		c-13.3,12.3-23.2,21.6-29.9,27.8c-0.3,0.2-0.5,0.3-0.9,0.3c-0.3,0-0.6-0.1-0.8-0.4l-15-16.5c-0.2-0.3-0.3-0.5-0.3-0.8
		c0-0.3,0.2-0.6,0.4-0.8l2.1-1.8c2.1-1.8,3.6-3.2,4.6-4.1c0.3-0.2,0.5-0.3,0.9-0.3c0.3,0,0.6,0.2,0.8,0.4l7.6,7.9
		c0.2,0.3,0.5,0.4,0.8,0.4c0.3,0,0.6-0.1,0.9-0.3c9.5-9.1,16.7-15.9,21.5-20.4C137.7,67.7,137.9,67.6,138.2,67.6z"/>
</g>
</svg>
