<?xml version="1.0" encoding="utf-8"?>
<!-- Generator: Adobe Illustrator 24.1.1, SVG Export Plug-In . SVG Version: 6.00 Build 0)  -->
<svg version="1.1" id="Layer_1" xmlns="http://www.w3.org/2000/svg" xmlns:xlink="http://www.w3.org/1999/xlink" x="0px" y="0px"
	 viewBox="0 0 236.5 196.9" style="enable-background:new 0 0 236.5 196.9;" xml:space="preserve">
<style type="text/css">
	.st0{fill:#F9F9F9;}
	.st1{fill:#DC0000;}
	.st2{fill:#FFFFFF;}
</style>
<path class="st0" d="M71.5,20.2c7.6-6.8,19.6-8.2,30.4-7.6c34.2,1.7,65,18.2,91.7,36.8c9.7,6.8,19.2,14,25.4,23.3
	c12.8,18.9,9,45.2-8.8,60.7c-6,5.3-13.4,9.4-20.9,13c-13.4,6.4-27.8,11.6-42.9,13c-10.8,1-21.8,0.2-32.5-1.3
	c-30-4.1-59.5-13.1-84.2-28.5C19,123,8.8,114.6,4.3,103.6c-4.5-10.9-1.6-24.8,9.5-31.3c4.6-2.7,10-3.9,15.4-5
	c7.9-1.7,15.9-3.3,23-6.7c7.3-3.5,16-10.3,14.6-18.1C65.2,34.3,63.9,26.9,71.5,20.2z"/>
<circle class="st1" cx="121.6" cy="86.2" r="45"/>
<g>
	<path class="st2" d="M135.1,68.2c0.4,0,0.7,0.1,1,0.4l2.9,2.9c0.2,0.3,0.4,0.6,0.4,1c0,0.4-0.1,0.7-0.4,1l-11.7,11.9
		c-0.2,0.3-0.4,0.6-0.4,1s0.1,0.7,0.4,1l3.9,4c3.5,3.5,6.1,6.1,7.7,7.9c0.3,0.3,0.4,0.6,0.4,1c0,0.4-0.1,0.7-0.4,1l-2.8,2.9
		c-0.3,0.3-0.6,0.4-1,0.4s-0.7-0.1-0.9-0.4l-3.9-4c-3.4-3.5-6-6.1-7.7-7.9c-0.3-0.3-0.6-0.4-1-0.4s-0.7,0.1-0.9,0.4L109,103.8
		c-0.2,0.3-0.5,0.4-0.9,0.4s-0.7-0.1-1-0.4l-2.9-2.9c-0.2-0.2-0.4-0.5-0.4-0.9c0-0.4,0.1-0.7,0.4-1l11.7-11.9c0.2-0.3,0.4-0.6,0.4-1
		c0-0.4-0.1-0.7-0.4-1l-11.6-11.8c-0.2-0.3-0.4-0.6-0.4-1c0-0.4,0.1-0.7,0.4-1c1.3-1.3,2.2-2.2,2.8-2.9c0.3-0.3,0.6-0.4,1-0.4
		s0.7,0.1,0.9,0.4c2.6,2.6,6.5,6.5,11.7,11.8c0.2,0.3,0.5,0.4,0.9,0.4s0.7-0.1,1-0.4l3.9-4c3.4-3.5,6-6.1,7.7-7.9
		C134.4,68.3,134.7,68.2,135.1,68.2z"/>
</g>
</svg>
