<?xml version="1.0" encoding="utf-8"?>
<!-- Generator: Adobe Illustrator 24.1.1, SVG Export Plug-In . SVG Version: 6.00 Build 0)  -->
<svg version="1.1" id="Layer_1" xmlns="http://www.w3.org/2000/svg" xmlns:xlink="http://www.w3.org/1999/xlink" x="0px" y="0px"
	 viewBox="0 0 30 30" style="enable-background:new 0 0 30 30;" xml:space="preserve">
<style type="text/css">
	.st0{fill:#C6C6C6;}
	.st1{fill:#FFFFFF;}
</style>
<path class="st0" d="M29.4,16.3c0.4-0.7,0.4-1.6,0-2.3L29,13.2c-0.1-0.2-0.1-0.4-0.1-0.5l0.1-0.8c0.1-0.8-0.1-1.6-0.7-2.2l-0.6-0.6
	c-0.1-0.1-0.2-0.3-0.2-0.5l-0.1-0.8C27.3,7,26.8,6.3,26,5.9l-0.7-0.4c-0.3-0.3-0.4-0.4-0.5-0.6l-0.4-0.8c-0.4-0.7-1.1-1.2-2-1.4
	l-0.8-0.1c-0.2,0-0.4-0.1-0.5-0.2l-0.6-0.6C20,1.2,19.1,0.9,18.3,1l-0.8,0.1c-0.2,0-0.4,0-0.5-0.1l-0.8-0.4c-0.7-0.4-1.6-0.4-2.3,0
	L13.1,1c-0.2,0.1-0.4,0.1-0.5,0.1L11.8,1C10.9,0.9,10,1.2,9.5,1.8L8.8,2.4C8.7,2.5,8.5,2.6,8.4,2.6L7.5,2.8C6.7,2.9,5.9,3.4,5.6,4.1
	L5.2,4.9C5.1,5.1,5,5.2,4.8,5.3L4,5.7c-0.7,0.4-1.2,1.1-1.4,2L2.5,8.5c0,0.2-0.1,0.4-0.2,0.5L1.7,9.6C1.1,10.2,0.8,11,1,11.8
	l0.1,0.8c0,0.2,0,0.4-0.1,0.5l-0.4,0.8c-0.4,0.7-0.4,1.6,0,2.3L1,17c0.1,0.2,0.1,0.4,0.1,0.5L1,18.3c-0.1,0.8,0.1,1.6,0.7,2.2
	l0.6,0.6c0.1,0.1,0.2,0.3,0.2,0.5l0.1,0.8c0.1,0.8,0.7,1.6,1.4,2l0.8,0.5C5,25,5.1,25.1,5.2,25.3l0.4,0.8c0.4,0.7,1.1,1.2,2,1.4
	l0.8,0.1c0.2,0,0.4,0.1,0.5,0.2l0.6,0.6c0.6,0.6,1.4,0.9,2.2,0.7l0.8-0.1c0.2,0,0.4,0,0.5,0.1l0.8,0.4c0.4,0.2,0.8,0.3,1.2,0.3
	s0.8-0.1,1.2-0.3l0.8-0.4c0.2-0.1,0.4-0.1,0.5-0.1l0.8,0.1c0.8,0.1,1.6-0.1,2.2-0.7l0.6-0.6c0.1-0.1,0.3-0.2,0.5-0.2l0.8-0.1
	c0.8-0.1,1.5-0.6,1.9-1.4l0.4-0.7c0.1-0.2,0.2-0.3,0.4-0.4l0.8-0.4c0.7-0.4,1.2-1.1,1.4-1.9l0.1-0.8c0-0.2,0.1-0.4,0.2-0.5l0.6-0.7
	c0.6-0.6,0.8-1.4,0.7-2.2l-0.1-0.8c0-0.2,0-0.4,0.1-0.5L29.4,16.3z"/>
<polygon class="st1" points="20.7,8.1 12.1,16.7 8.8,13.3 6.2,16 12.1,21.9 23.3,10.7 "/>
</svg>
