<?xml version="1.0" encoding="utf-8"?>
<!-- Generator: Adobe Illustrator 24.1.1, SVG Export Plug-In . SVG Version: 6.00 Build 0)  -->
<svg version="1.1" id="Layer_1" xmlns="http://www.w3.org/2000/svg" xmlns:xlink="http://www.w3.org/1999/xlink" x="0px" y="0px"
	 viewBox="0 0 30 30" style="enable-background:new 0 0 30 30;" xml:space="preserve">
<style type="text/css">
	.st0{fill:#4CAF50;}
	.st1{fill:#FFFFFF;}
</style>
<path class="st0" d="M29.4,16.1c0.4-0.7,0.4-1.6,0-2.3L29,13c-0.1-0.2-0.1-0.4-0.1-0.5l0.1-0.8c0.1-0.8-0.1-1.6-0.7-2.2l-0.6-0.6
	c-0.1-0.1-0.2-0.3-0.2-0.5l-0.1-0.8c-0.2-1-0.7-1.7-1.4-2l-0.7-0.4C25,5.1,25,5,24.9,4.8L24.5,4c-0.4-0.7-1.1-1.2-2-1.4l-0.8-0.1
	c-0.2,0-0.4-0.1-0.5-0.2l-0.7-0.7C19.9,1,19,0.7,18.2,0.9L17.5,1C17.2,1,17,1,17,0.9l-0.8-0.4c-0.7-0.4-1.6-0.4-2.3,0L13,0.9
	C12.9,1,12.7,1,12.5,1l-0.8-0.1C10.9,0.7,10,1,9.5,1.6L8.7,2.2C8.7,2.3,8.5,2.4,8.4,2.4L7.5,2.6C6.7,2.7,5.9,3.3,5.5,4L5.2,4.7
	C5,4.9,5,5,4.7,5.1L4,5.5C3.2,5.9,2.7,6.6,2.7,7.4L2.5,8.3c0,0.2-0.1,0.4-0.2,0.5L1.7,9.4C1,10,0.7,10.8,1,11.6L1,12.4
	c0,0.2,0,0.4-0.1,0.5l-0.4,0.8c-0.4,0.7-0.4,1.6,0,2.3L1,16.9C1,17.1,1,17.3,1,17.4L1,18.2C0.9,19,1,19.8,1.7,20.4L2.2,21
	c0.1,0.1,0.2,0.3,0.2,0.5l0.1,0.8c0.1,0.8,0.7,1.6,1.4,2l0.8,0.4C5,24.8,5,24.9,5.2,25.1l0.4,0.8c0.4,0.7,1.1,1.2,2,1.4l0.8,0.1
	c0.2,0,0.4,0.1,0.5,0.2l0.6,0.6c0.6,0.6,1.4,0.9,2.2,0.7l0.8-0.1c0.2,0,0.4,0,0.5,0.1l0.8,0.4c0.4,0.2,0.8,0.3,1.2,0.3
	s0.8-0.1,1.2-0.3l0.8-0.4c0.2-0.1,0.4-0.1,0.5-0.1l0.8,0.1c0.8,0.1,1.6-0.1,2.2-0.7l0.6-0.6c0.1-0.1,0.3-0.2,0.5-0.2l0.8-0.1
	c0.8-0.1,1.5-0.6,1.9-1.4l0.4-0.7c0.1-0.2,0.2-0.3,0.4-0.4l0.8-0.4c0.7-0.4,1.2-1.1,1.4-1.9l0.1-0.8c0-0.2,0.1-0.4,0.2-0.5l0.6-0.7
	c0.6-0.6,0.8-1.4,0.7-2.2l-0.1-0.8c0-0.2,0-0.4,0.1-0.5L29.4,16.1z"/>
<path class="st1" d="M20.5,12.4c-0.4-0.2-0.8,0-1.1,0.3C19.2,13,18.3,14,17.5,14c-0.1,0-0.6-0.3-1-1.4c-0.4-0.9-0.7-2.1-0.7-2.9
	c0-0.5-0.4-0.9-0.9-0.9s-0.9,0.4-0.9,0.9c0,0.8-0.3,2-0.7,2.9c-0.5,1-0.9,1.4-1,1.4c-0.8,0-1.6-1-1.9-1.3c-0.2-0.3-0.7-0.5-1.1-0.3
	c-0.4,0.2-0.6,0.6-0.5,1l1.7,6.9c0.1,0.4,0.4,0.7,0.8,0.7h6.9c0.4,0,0.7-0.3,0.8-0.7l2-6.9C21.1,12.9,20.9,12.5,20.5,12.4z"/>
</svg>
