<?xml version="1.0" encoding="utf-8"?>
<!-- Generator: Adobe Illustrator 16.0.3, SVG Export Plug-In . SVG Version: 6.00 Build 0)  -->
<!DOCTYPE svg PUBLIC "-//W3C//DTD SVG 1.1//EN" "http://www.w3.org/Graphics/SVG/1.1/DTD/svg11.dtd">
<svg version="1.1" id="Layer_1" xmlns="http://www.w3.org/2000/svg" xmlns:xlink="http://www.w3.org/1999/xlink" x="0px" y="0px"
	 width="453.167px" height="303.5px" viewBox="0 0 453.167 303.5" enable-background="new 0 0 453.167 303.5" xml:space="preserve">
<path fill="#F9F9F9" d="M135.463,260.654c14.291,15.854,31.908,28.879,51.549,36.73c19.64,7.852,41.313,10.527,63.791,5.709
	c57.38-11.471,101.816-56.967,119.804-113.043c20.103-62.423-1.059-133.312-60.309-166.111
	C273.268,3.837,232.005-2.511,190.742,2.779c-55.018,7.406-107.92,42.321-119.558,99.455
	c-10.58,50.785,14.813,95.223,44.586,133.336C122.155,244.387,128.799,252.832,135.463,260.654"/>
<path fill="#E8505B" d="M151.103,74.415c0,0,26.36,27.616,25.896,33.744c-0.465,6.128-6.364,7.458-8.29,7.22
	c-1.927-0.238-16.417-16.377-16.417-16.377L151.103,74.415z"/>
<g opacity="0.4">
	<g>
		<defs>
			<rect id="SVGID_1_" x="151.103" y="74.415" width="25.901" height="40.99"/>
		</defs>
		<clipPath id="SVGID_2_">
			<use xlink:href="#SVGID_1_"  overflow="visible"/>
		</clipPath>
		<path clip-path="url(#SVGID_2_)" d="M151.103,74.415c0,0,26.36,27.616,25.896,33.744c-0.465,6.128-6.364,7.458-8.29,7.22
			c-1.927-0.238-16.417-16.377-16.417-16.377L151.103,74.415z"/>
	</g>
</g>
<polygon fill="#FFBE9D" points="165.151,210.846 172.296,234.76 180.33,230.398 175.766,208.504 "/>
<path fill="#E8505B" d="M179.343,219.875l2.46,11.318c0,0,12.332,1.301,12.99,3.348l-21.774,5.561l-4.558-17.48L179.343,219.875z"/>
<path fill="#E0E0E0" d="M174.83,231.969c-0.392,0.223-0.562,0.771-0.356,1.172c0.207,0.402,0.762,0.58,1.159,0.363
	c0.396-0.217,0.62-0.867,0.37-1.242c-0.25-0.377-0.915-0.549-1.247-0.244"/>
<g opacity="0.4">
	<g>
		<defs>
			<rect id="SVGID_3_" x="172.628" y="233.656" width="22.165" height="6.445"/>
		</defs>
		<clipPath id="SVGID_4_">
			<use xlink:href="#SVGID_3_"  overflow="visible"/>
		</clipPath>
		<path clip-path="url(#SVGID_4_)" d="M173.019,240.102l-0.391-1.781l21.023-4.664c0,0,1.078,0.174,1.143,0.885L173.019,240.102z"/>
	</g>
</g>
<path fill="#263238" d="M182.129,230.994c0.023,0.105-0.496,0.291-0.932,0.766c-0.448,0.463-0.601,0.994-0.709,0.977
	c-0.103,0.004-0.107-0.672,0.432-1.238C181.452,230.926,182.127,230.889,182.129,230.994"/>
<path fill="#263238" d="M184.654,231.354c0.05,0.098-0.364,0.396-0.61,0.938c-0.262,0.535-0.229,1.045-0.336,1.066
	c-0.095,0.043-0.329-0.561-0.008-1.229C184.012,231.457,184.625,231.254,184.654,231.354"/>
<path fill="#263238" d="M186.649,233.756c-0.09,0.049-0.375-0.445-0.25-1.098c0.12-0.652,0.562-1.012,0.63-0.934
	c0.083,0.072-0.16,0.467-0.254,1.004C186.668,233.264,186.752,233.719,186.649,233.756"/>
<path fill="#263238" d="M181.282,228.477c-0.02,0.107-0.545,0.086-1.136,0.279c-0.594,0.182-1.011,0.504-1.089,0.426
	c-0.081-0.061,0.274-0.57,0.974-0.789C180.728,228.168,181.313,228.379,181.282,228.477"/>
<path fill="#263238" d="M180.743,226.201c0.012,0.043-0.392,0.217-1.092,0.273c-0.349,0.027-0.77,0.018-1.23-0.061
	c-0.23-0.039-0.469-0.096-0.711-0.172c-0.117-0.039-0.253-0.072-0.395-0.172c-0.146-0.082-0.285-0.346-0.193-0.553
	c0.069-0.197,0.248-0.318,0.404-0.361c0.158-0.047,0.297-0.047,0.423-0.049c0.258-0.004,0.506,0.02,0.737,0.059
	c0.465,0.084,0.864,0.236,1.174,0.404c0.625,0.338,0.898,0.691,0.868,0.721c-0.04,0.049-0.37-0.223-0.982-0.477
	c-0.306-0.127-0.685-0.242-1.113-0.301c-0.214-0.027-0.441-0.041-0.675-0.033c-0.246-0.002-0.443,0.047-0.476,0.164
	c-0.012,0.045-0.01,0.063,0.055,0.117c0.066,0.049,0.175,0.086,0.29,0.125c0.225,0.076,0.447,0.137,0.66,0.184
	c0.428,0.09,0.824,0.127,1.158,0.133C180.312,226.219,180.73,226.143,180.743,226.201"/>
<path fill="#263238" d="M180.644,226.389c-0.033,0.025-0.341-0.301-0.556-0.98c-0.106-0.336-0.176-0.758-0.156-1.23
	c0.011-0.236,0.045-0.484,0.108-0.734c0.073-0.246,0.155-0.574,0.555-0.727c0.214-0.064,0.436,0.059,0.534,0.188
	c0.109,0.129,0.156,0.252,0.214,0.371c0.105,0.244,0.164,0.494,0.188,0.734c0.05,0.48-0.041,0.914-0.178,1.244
	c-0.281,0.674-0.692,0.914-0.71,0.881c-0.049-0.045,0.269-0.344,0.456-0.971c0.092-0.309,0.145-0.697,0.083-1.111
	c-0.03-0.209-0.088-0.422-0.181-0.625c-0.093-0.223-0.228-0.389-0.308-0.342c-0.109,0.025-0.249,0.246-0.291,0.455
	c-0.063,0.223-0.1,0.445-0.119,0.66c-0.036,0.428,0.001,0.818,0.066,1.141C180.482,225.988,180.697,226.357,180.644,226.389"/>
<path fill="#263238" d="M145.744,142.656c0.265,1.059,18.933,77.219,18.933,77.219l16.952-5.117l-16.005-77.143L145.744,142.656z"/>
<path fill="#FFBE9D" d="M143.249,45.353l-2.962,22.755c-0.503,3.87,2.333,7.373,6.223,7.686c3.63,0.291,6.85-2.322,7.317-5.934
	c0.221-1.713,0.409-3.142,0.443-3.316c0,0,5.864,0.209,7.029-5.47c0.563-2.744,1.261-8.491,1.833-13.698
	c0.615-5.591-3.175-10.716-8.699-11.778l-0.55-0.105C147.896,34.701,143.876,39.344,143.249,45.353"/>
<path fill="#EB996E" d="M154.295,66.464c0,0-3.654-0.399-7.016-3.536c0,0,0.966,4.434,6.746,5.013L154.295,66.464z"/>
<path fill="#263238" d="M161.505,50.592c-0.067,0.433-0.489,0.731-0.942,0.669c-0.452-0.062-0.765-0.462-0.697-0.894
	c0.067-0.433,0.489-0.732,0.94-0.67C161.26,49.759,161.572,50.16,161.505,50.592"/>
<path fill="#263238" d="M161.553,49.613c-0.121,0.087-0.65-0.487-1.525-0.653c-0.872-0.179-1.6,0.148-1.674,0.023
	c-0.037-0.057,0.102-0.229,0.421-0.378c0.313-0.15,0.821-0.257,1.366-0.149s0.964,0.396,1.188,0.652
	C161.557,49.366,161.611,49.575,161.553,49.613"/>
<path fill="#263238" d="M152.705,49.344c-0.067,0.433-0.489,0.731-0.942,0.67c-0.451-0.063-0.764-0.462-0.697-0.894
	c0.067-0.433,0.489-0.732,0.941-0.67C152.459,48.512,152.771,48.912,152.705,49.344"/>
<path fill="#263238" d="M152.805,48.24c-0.121,0.086-0.65-0.487-1.525-0.653c-0.872-0.178-1.6,0.148-1.675,0.023
	c-0.037-0.057,0.102-0.228,0.421-0.377c0.314-0.15,0.821-0.257,1.366-0.15c0.543,0.108,0.964,0.396,1.188,0.652
	C152.808,47.993,152.863,48.202,152.805,48.24"/>
<path fill="#263238" d="M154.669,55.543c0.006-0.051,0.568-0.041,1.471,0.017c0.227,0.02,0.448,0.016,0.514-0.129
	c0.084-0.151,0.037-0.41-0.022-0.69c-0.105-0.581-0.216-1.19-0.333-1.828c-0.452-2.598-0.733-4.717-0.629-4.734
	c0.105-0.018,0.557,2.075,1.008,4.673c0.106,0.64,0.208,1.25,0.304,1.833c0.036,0.27,0.126,0.585-0.053,0.899
	c-0.092,0.155-0.279,0.245-0.43,0.256c-0.152,0.016-0.278-0.005-0.389-0.021C155.214,55.695,154.664,55.594,154.669,55.543"/>
<path fill="#263238" d="M153.404,46.459c-0.131,0.221-0.984-0.06-2.034-0.133c-1.049-0.096-1.934,0.046-2.03-0.194
	c-0.041-0.113,0.147-0.31,0.525-0.476c0.376-0.166,0.948-0.282,1.577-0.232c0.629,0.051,1.174,0.257,1.519,0.481
	C153.309,46.129,153.463,46.353,153.404,46.459"/>
<path fill="#263238" d="M161.956,46.43c-0.192,0.169-0.755-0.153-1.478-0.302c-0.717-0.174-1.364-0.124-1.465-0.359
	c-0.042-0.113,0.092-0.293,0.397-0.43c0.3-0.137,0.771-0.205,1.266-0.094c0.496,0.112,0.892,0.375,1.105,0.627
	C161.997,46.125,162.042,46.346,161.956,46.43"/>
<path fill="#FFBE9D" d="M142.904,49.657c-0.089-0.061-3.689-1.909-4.313,2.007c-0.624,3.916,3.436,3.735,3.461,3.623
	C142.077,55.176,142.904,49.657,142.904,49.657"/>
<path fill="#EB996E" d="M141.092,53.613c-0.016-0.015-0.076,0.037-0.2,0.071c-0.121,0.034-0.32,0.038-0.512-0.071
	c-0.39-0.218-0.633-0.93-0.54-1.639c0.047-0.358,0.176-0.685,0.347-0.946c0.165-0.267,0.382-0.438,0.597-0.441
	c0.214-0.016,0.342,0.132,0.373,0.25c0.035,0.118-0.002,0.192,0.018,0.202c0.009,0.012,0.095-0.052,0.088-0.219
	c-0.003-0.081-0.035-0.18-0.115-0.271c-0.082-0.091-0.214-0.152-0.362-0.16c-0.305-0.027-0.621,0.208-0.809,0.494
	c-0.204,0.285-0.358,0.651-0.411,1.053c-0.1,0.793,0.186,1.596,0.727,1.85c0.264,0.115,0.506,0.069,0.64-0.005
	C141.07,53.707,141.104,53.623,141.092,53.613"/>
<path fill="#263238" d="M140.764,49.109c0.622-0.03,1.542,0.716,1.689,1.32c0.146,0.605,0.081,1.245,0.227,1.849
	c0.145,0.604,0.618,1.217,1.24,1.191c0.429-0.018,0.796-0.346,0.981-0.732c0.187-0.386,0.226-0.825,0.253-1.253
	c0.121-1.862,0.084-3.737,0.364-5.582c0.279-1.845,0.905-3.696,2.166-5.071s3.247-2.182,5.045-1.684
	c1.191,0.33,2.179,1.174,3.348,1.574c1.386,0.473,2.989,0.26,4.204-0.56c0.042-0.028,0.119-0.068,0.212-0.112
	c0.431-0.206,0.697-0.673,0.608-1.141c-0.03-0.16-0.079-0.31-0.158-0.417c-1.96-2.663-6.137-4.104-9.438-3.917
	c-3.301,0.187-6.68,1.843-8.602,4.533C140.979,41.797,140.592,45.979,140.764,49.109"/>
<path fill="#263238" d="M156.432,58.196c-0.025,0.069-0.581-0.073-1.241-0.316c-0.661-0.243-1.175-0.496-1.15-0.565
	c0.025-0.068,0.581,0.073,1.241,0.316C155.943,57.875,156.458,58.127,156.432,58.196"/>
<path fill="#EB996E" d="M160.685,62.586c0.027,0.007-0.075,0.455-0.484,1.059c-0.4,0.604-1.144,1.32-2.125,1.834
	c-0.981,0.514-1.955,0.762-2.653,0.906c-0.701,0.142-1.141,0.184-1.148,0.15c-0.007-0.038,0.421-0.146,1.105-0.333
	c0.681-0.189,1.625-0.461,2.572-0.958c0.946-0.496,1.675-1.156,2.098-1.709C160.48,62.982,160.643,62.568,160.685,62.586"/>
<path fill="#EB996E" d="M157.928,65.493c-1.378,0.689-2.393,2.564-3.269,3.779c-0.268,0.372-0.543,0.761-0.618,1.213
	c-0.08,0.479,0.077,0.963,0.246,1.419c0.251,0.678,0.535,1.343,0.818,2.009c0.081,0.189,0.188,0.402,0.388,0.448
	c0.254,0.058,0.473-0.193,0.576-0.432c0.26-0.596,0.235-1.27,0.323-1.914c0.088-0.643,0.354-1.338,0.944-1.608"/>
<path fill="#FFBE9D" d="M160.106,70.574l-1.341-1.001c-0.169-0.138-0.417-0.117-0.56,0.048l-0.713,0.823
	c-0.001,0.002-0.002,0.004,0,0.007l0.375,2.083c0.438,2.67-1.542,2.253-1.542,2.253l-0.157-0.511l-0.87-3.256
	c-0.175-1.555-0.051-1.738,0.705-2.864l1.659-2.372c0.345-0.512,0.993-0.723,1.573-0.509c2.38,0.879,7.517,2.471,8.095,4.487
	c1.055,3.677,1.904,13.054,1.919,13.221v0.003l-7.248,0.65c0,0,0,0.003,0,0l0.034-6.257c0,0-1.053-0.612-1.363-1.717
	C160.363,74.559,160.106,70.574,160.106,70.574"/>
<path fill="#EB996E" d="M165.129,71.799c0.011,0.012-0.078,0.126-0.276,0.293c-0.199,0.162-0.516,0.394-0.987,0.5
	c-0.234,0.051-0.505,0.061-0.786-0.006c-0.278-0.065-0.572-0.224-0.778-0.481c-0.425-0.513-0.485-1.235-0.863-1.76
	c-0.193-0.239-0.483-0.438-0.748-0.612c-0.271-0.175-0.545-0.327-0.812-0.453c-0.259-0.114-0.548-0.256-0.743-0.21
	c-0.224,0.054-0.425,0.207-0.592,0.35c-0.657,0.608-1.017,1.063-1.055,1.025c-0.014-0.012,0.065-0.129,0.218-0.335
	c0.155-0.204,0.375-0.503,0.71-0.83c0.171-0.158,0.369-0.339,0.669-0.425c0.077-0.018,0.159-0.024,0.246-0.014
	c0.077,0.013,0.15,0.03,0.221,0.053c0.145,0.044,0.286,0.1,0.427,0.163c0.282,0.126,0.566,0.278,0.85,0.457
	c0.281,0.185,0.571,0.368,0.82,0.673c0.432,0.624,0.479,1.328,0.841,1.763c0.342,0.446,0.923,0.528,1.339,0.458
	c0.431-0.073,0.75-0.267,0.96-0.399C165.003,71.873,165.116,71.785,165.129,71.799"/>
<path fill="#EB996E" d="M164.324,74.006c-0.011,0.07-0.94-0.031-2.044-0.351c-1.105-0.317-1.945-0.728-1.918-0.793
	c0.029-0.07,0.902,0.225,1.992,0.538C163.441,73.716,164.337,73.931,164.324,74.006"/>
<path fill="#FFBE9D" d="M161.742,70.604c-1.9,0.004-2.123-0.087-4.276,0.03c-0.321,0.017-0.647,0.036-0.947,0.153
	c-0.299,0.116-0.571,0.349-0.65,0.66c-0.15,0.589,0.445,1.127,1.038,1.261c0.593,0.134,1.221,0.03,1.813,0.167
	c0.903,0.209,1.851,0.641,2.385,1.399c1.239,1.759,2.542,0.913,3.388,1.542l2.221-1.402l-0.784-3.279L161.742,70.604"/>
<path fill="#EB996E" d="M164.686,75.816c-0.016,0.026-0.197-0.137-0.607-0.188c-0.396-0.078-1.037,0.021-1.758-0.309
	c-0.354-0.165-0.688-0.445-0.97-0.797c-0.267-0.365-0.56-0.685-0.979-0.935c-0.408-0.251-0.885-0.437-1.396-0.562
	c-0.498-0.139-1.05-0.071-1.642-0.142c-0.592-0.061-1.202-0.406-1.391-1.01c-0.091-0.304,0.012-0.643,0.211-0.854
	c0.194-0.218,0.458-0.347,0.711-0.409c0.517-0.116,0.981-0.088,1.422-0.116c0.44-0.014,0.852-0.02,1.227-0.013
	c0.751,0.015,1.354,0.053,1.771,0.07c0.417,0.02,0.648,0.035,0.648,0.054c0,0.018-0.231,0.038-0.649,0.05
	c-0.418,0.015-1.026,0.005-1.771,0.014c-0.372,0.005-0.78,0.022-1.218,0.045c-0.434,0.035-0.92,0.023-1.37,0.132
	c-0.436,0.095-0.875,0.499-0.734,0.958c0.138,0.446,0.648,0.77,1.174,0.816c0.54,0.068,1.121,0,1.67,0.153
	c0.532,0.134,1.032,0.332,1.463,0.606c0.435,0.261,0.78,0.655,1.021,1.005c0.26,0.339,0.562,0.604,0.881,0.766
	c0.646,0.327,1.283,0.267,1.694,0.376c0.209,0.044,0.364,0.117,0.458,0.177C164.647,75.771,164.691,75.808,164.686,75.816"/>
<path fill="#EB996E" d="M161.531,69.119c0.002-0.032,0.139-0.06,0.335,0.031c0.19,0.085,0.432,0.314,0.483,0.66
	c0.047,0.346-0.121,0.634-0.28,0.769c-0.163,0.142-0.302,0.153-0.313,0.123c-0.018-0.035,0.078-0.106,0.174-0.248
	c0.098-0.139,0.191-0.366,0.158-0.607c-0.036-0.24-0.188-0.432-0.321-0.538C161.636,69.199,161.524,69.158,161.531,69.119"/>
<polygon fill="#FFBE9D" points="165.791,154.416 156.511,177.584 165.514,179.166 175.559,159.184 "/>
<path fill="#E8505B" d="M171.287,170.313l-5.113,10.393c0,0,8.847,8.689,8.089,10.701l-20.508-9.189l7.303-16.521L171.287,170.313z"
	/>
<path fill="#E0E0E0" d="M160.23,176.977c-0.445-0.07-0.919,0.252-1.006,0.695c-0.088,0.441,0.236,0.928,0.681,1.004
	c0.444,0.078,1.025-0.293,1.063-0.742s-0.375-0.998-0.825-0.967"/>
<g opacity="0.4">
	<g>
		<defs>
			<rect id="SVGID_5_" x="153.755" y="180.549" width="20.623" height="10.857"/>
		</defs>
		<clipPath id="SVGID_6_">
			<use xlink:href="#SVGID_5_"  overflow="visible"/>
		</clipPath>
		<path clip-path="url(#SVGID_6_)" d="M153.755,182.217l0.737-1.668l19.427,9.455c0,0,0.735,0.807,0.343,1.404L153.755,182.217z"/>
	</g>
</g>
<path fill="#263238" d="M166.553,180.75c-0.049,0.1-0.57-0.08-1.207,0.021c-0.64,0.084-1.088,0.404-1.163,0.324
	c-0.083-0.063,0.334-0.594,1.108-0.701C166.064,180.277,166.616,180.668,166.553,180.75"/>
<path fill="#263238" d="M168.305,182.604c-0.021,0.107-0.531,0.084-1.061,0.355c-0.538,0.256-0.829,0.674-0.927,0.625
	c-0.101-0.025,0.092-0.643,0.757-0.969C167.738,182.285,168.346,182.508,168.305,182.604"/>
<path fill="#263238" d="M168.373,185.727c-0.101-0.02-0.016-0.582,0.488-1.016c0.5-0.438,1.069-0.441,1.073-0.34
	c0.02,0.107-0.417,0.266-0.823,0.629C168.695,185.352,168.477,185.76,168.373,185.727"/>
<path fill="#263238" d="M167.456,178.252c-0.083,0.074-0.48-0.27-1.063-0.486c-0.58-0.227-1.104-0.234-1.119-0.344
	c-0.025-0.098,0.571-0.275,1.254-0.014C167.213,177.666,167.54,178.195,167.456,178.252"/>
<path fill="#263238" d="M168.448,176.137c-0.017,0.041-0.441-0.074-1.024-0.467c-0.291-0.193-0.615-0.463-0.927-0.811
	c-0.156-0.174-0.308-0.365-0.45-0.576c-0.068-0.104-0.152-0.215-0.202-0.381c-0.064-0.154-0.008-0.449,0.192-0.553
	c0.176-0.111,0.392-0.098,0.542-0.033c0.153,0.063,0.262,0.148,0.361,0.227c0.203,0.156,0.383,0.328,0.54,0.504
	c0.312,0.354,0.53,0.721,0.669,1.047c0.278,0.654,0.272,1.1,0.23,1.104c-0.06,0.014-0.152-0.404-0.473-0.984
	c-0.16-0.289-0.385-0.615-0.685-0.926c-0.151-0.156-0.32-0.309-0.508-0.447c-0.192-0.154-0.375-0.238-0.475-0.166
	c-0.037,0.027-0.046,0.041-0.029,0.125c0.021,0.08,0.083,0.176,0.149,0.277c0.128,0.201,0.265,0.385,0.403,0.555
	c0.278,0.338,0.566,0.611,0.822,0.824C168.1,175.883,168.474,176.084,168.448,176.137"/>
<path fill="#263238" d="M168.253,176.223c-0.042-0.002-0.081-0.449,0.174-1.113c0.127-0.33,0.335-0.705,0.645-1.063
	c0.155-0.178,0.335-0.35,0.541-0.508c0.211-0.146,0.479-0.354,0.888-0.225c0.207,0.084,0.304,0.318,0.3,0.48
	c0.006,0.168-0.034,0.293-0.063,0.424c-0.07,0.256-0.18,0.488-0.309,0.691c-0.26,0.408-0.602,0.689-0.915,0.863
	c-0.639,0.354-1.11,0.285-1.103,0.248c-0.011-0.064,0.424-0.102,0.96-0.477c0.264-0.184,0.547-0.455,0.757-0.818
	c0.105-0.182,0.193-0.385,0.247-0.602c0.065-0.232,0.063-0.445-0.029-0.459c-0.101-0.049-0.348,0.037-0.51,0.174
	c-0.188,0.137-0.355,0.287-0.503,0.443c-0.295,0.313-0.51,0.643-0.659,0.936C168.376,175.809,168.315,176.23,168.253,176.223"/>
<path fill="#263238" d="M148.024,126.631l28.579-13.994c5.029-2.462,11.079-1.33,14.876,2.785c3.537,3.832,4.364,9.44,2.083,14.13
	l-18.962,38.987l-15.86-4.998l13.947-29.72l-15.69,11.957c-4.238,3.229-9.407,5-14.735,5.045l-4.109,0.035
	c-6.883-0.287-13.12-4.142-16.452-10.172L148.024,126.631z"/>
<path fill="#455A64" d="M174.601,168.539c0,0-0.1-0.02-0.291-0.074c-0.203-0.059-0.482-0.141-0.841-0.248
	c-0.749-0.229-1.828-0.559-3.201-0.979c-2.775-0.863-6.741-2.098-11.56-3.596l-0.117-0.035l0.052-0.111
	c2.801-5.986,6.29-13.44,10.063-21.505c1.333-2.839,2.631-5.603,3.863-8.225l0.195,0.158c-7.197,5.361-13.637,9.814-18.39,12.747
	c-2.378,1.461-4.34,2.535-5.751,3.143c-0.707,0.302-1.271,0.491-1.667,0.567c-0.193,0.057-0.352,0.045-0.452,0.06
	c-0.102,0.006-0.154,0.008-0.154,0.004c-0.002-0.017,0.209-0.016,0.596-0.109c0.387-0.091,0.943-0.292,1.64-0.604
	c1.393-0.629,3.337-1.724,5.7-3.202c4.72-2.966,11.14-7.444,18.322-12.812l0.414-0.309l-0.22,0.467
	c-1.229,2.624-2.525,5.388-3.857,8.228c-3.792,8.056-7.296,15.504-10.109,21.482l-0.064-0.146c4.806,1.535,8.763,2.797,11.532,3.682
	c1.365,0.445,2.438,0.793,3.183,1.035c0.355,0.119,0.631,0.211,0.832,0.279C174.507,168.5,174.601,168.539,174.601,168.539"/>
<path fill="#455A64" d="M178.061,127.367c0.052,0.074-1.748,0.971-3.29,2.835c-1.565,1.846-2.131,3.775-2.213,3.737
	c-0.029-0.008,0.071-0.497,0.378-1.238c0.304-0.742,0.843-1.725,1.632-2.669c0.79-0.941,1.665-1.646,2.34-2.075
	C177.585,127.525,178.048,127.34,178.061,127.367"/>
<path fill="#E0E0E0" d="M117.479,182.533h41.107c0.571,0,1.039,0.455,1.054,1.025c0.017,0.596-0.46,1.084-1.054,1.084h-41.107
	c-0.583,0-1.055-0.471-1.055-1.053C116.424,183.006,116.897,182.533,117.479,182.533"/>
<path fill="#455A64" d="M153.179,156.365h-32.154c0-3.441,2.789-6.229,6.23-6.229h19.695
	C150.39,150.136,153.179,152.924,153.179,156.365"/>
<rect x="120.267" y="156.365" fill="#E0E0E0" width="33.922" height="1.891"/>
<polygon fill="#E0E0E0" points="123.287,158.256 114.992,240.01 116.943,240.01 127.066,158.256 "/>
<polygon fill="#E0E0E0" points="150.917,158.256 159.208,239.969 157.257,239.979 147.141,158.287 "/>
<polygon fill="#E0E0E0" points="139.363,157.537 137.967,240.006 135.965,240.006 135.093,157.311 "/>
<polygon fill="#E8505B" points="138.714,67.905 140.728,61.788 154.024,67.941 153.417,74.415 146.79,76.297 140.284,72.312 "/>
<path fill="#E8505B" d="M121.703,140.686c0,0-1.856-1.129-1.863-3.71c-0.007-2.452,2.187-2.653,2.258-4.011
	c0.731-14.02,2.318-43.06,3.365-52.224c1.32-11.55,14.852-13.991,14.852-13.991l11.174,2.744v0.844
	c3.867,4.972,5.54,12.465,5.543,18.763l-0.521,33.374L121.703,140.686z"/>
<path fill="#263238" d="M134.26,121.995c0.014,0.012-0.134,0.214-0.415,0.57c-0.279,0.357-0.697,0.861-1.227,1.475
	c-1.059,1.227-2.582,2.87-4.37,4.579c-1.79,1.708-3.503,3.153-4.777,4.154c-0.637,0.501-1.161,0.895-1.53,1.157
	c-0.369,0.264-0.578,0.402-0.589,0.388c-0.011-0.015,0.177-0.181,0.525-0.47c0.388-0.32,0.883-0.73,1.476-1.221
	c1.241-1.036,2.928-2.499,4.712-4.2c1.782-1.703,3.321-3.32,4.413-4.512c0.517-0.568,0.95-1.043,1.289-1.416
	C134.07,122.163,134.246,121.983,134.26,121.995"/>
<g opacity="0.2">
	<g>
		<defs>
			<rect id="SVGID_7_" x="123.252" y="123.074" width="9.03" height="9.884"/>
		</defs>
		<clipPath id="SVGID_8_">
			<use xlink:href="#SVGID_7_"  overflow="visible"/>
		</clipPath>
		<path clip-path="url(#SVGID_8_)" d="M123.252,132.917c0.04-2.113,1.619-3.851,3.185-5.27c1.833-1.661,3.785-3.19,5.835-4.574
			c0.1,1.032-0.601,1.953-1.283,2.733c-2.289,2.616-4.828,5.015-7.57,7.151"/>
	</g>
</g>
<path fill="#263238" d="M142.809,66.894c-0.07-0.022,0.115-0.816,0.411-1.774c0.297-0.959,0.596-1.718,0.665-1.696
	c0.07,0.022-0.114,0.816-0.412,1.774C143.176,66.155,142.878,66.915,142.809,66.894"/>
<path fill="#263238" d="M147.997,65.158c0.071,0.016-0.05,0.807-0.27,1.765c-0.221,0.958-0.456,1.722-0.528,1.706
	c-0.071-0.016,0.049-0.806,0.27-1.765C147.689,65.905,147.925,65.142,147.997,65.158"/>
<path fill="#263238" d="M151.859,67.086c0.073,0.018-0.038,0.729-0.138,1.605c-0.103,0.877-0.158,1.595-0.233,1.595
	c-0.071,0.001-0.135-0.73-0.03-1.625C151.561,67.766,151.79,67.068,151.859,67.086"/>
<path fill="#FAFAFA" d="M138.436,99.745c0,0.018-0.201,0.032-0.564,0.041c-0.363,0.009-0.889,0.013-1.537,0.013
	c-1.298,0-3.091-0.02-5.072-0.056c-1.981-0.038-3.774-0.086-5.071-0.135c-0.649-0.024-1.174-0.047-1.537-0.07
	c-0.363-0.022-0.563-0.044-0.563-0.062c0-0.019,0.201-0.032,0.564-0.041c0.363-0.009,0.889-0.014,1.538-0.014
	c1.298,0,3.091,0.019,5.071,0.057c1.979,0.036,3.772,0.085,5.07,0.133c0.604,0.028,1.116,0.052,1.537,0.071
	C138.234,99.705,138.436,99.727,138.436,99.745"/>
<path fill="#FAFAFA" d="M135.597,95.476c-0.001,0.073-2.552,0.078-5.695,0.011c-3.145-0.066-5.692-0.18-5.69-0.254
	c0.001-0.073,2.552-0.078,5.695-0.011C133.051,95.289,135.599,95.403,135.597,95.476"/>
<g opacity="0.2">
	<g>
		<defs>
			<rect id="SVGID_9_" x="130.763" y="88.897" width="25.804" height="30.813"/>
		</defs>
		<clipPath id="SVGID_10_">
			<use xlink:href="#SVGID_9_"  overflow="visible"/>
		</clipPath>
		<path clip-path="url(#SVGID_10_)" d="M130.763,88.897c4.064,8.863,9.044,16.821,14.831,24.668c1.491,2.021,3.087,4.05,5.243,5.34
			c2.155,1.289,3.581,0.929,5.731-0.369c-2.405-0.766-3.037-1.009-5.08-2.49c-2.015-1.46-3.671-3.468-5.136-5.48
			c-5.095-7-10.056-14.211-15.153-21.211"/>
	</g>
</g>
<path fill="#FFBE9D" d="M173.083,101.5c0.089-0.583,0.183-1.181,0.47-1.697c0.288-0.516,0.815-0.939,1.405-0.933
	s1.162,0.577,1.028,1.152c-0.079,0.339-0.357,0.588-0.563,0.869c-0.65,0.884-0.589,2.08-0.581,3.176
	c0.009,1.097-0.137,2.341-1.014,2.999"/>
<path fill="#E8505B" d="M132.709,75.955c-4.301,3.006-5.24,8.986-2.067,13.166l18.594,24.487c4.04,5.254,11.221,6.936,17.173,4.021
	c5.021-2.458,8.086-7.68,7.786-13.263l-4.094-25.75l-10.006,0.623l0.945,20.97l-15.478-21.996
	C142.631,74.047,136.884,73.039,132.709,75.955z"/>
<path fill="#FFBE9D" d="M172.786,111.665c-2.461-0.574-2.878-0.997-5.34-1.572c-0.732-0.171-1.672-0.646-1.344-1.421
	c0.172-0.406,0.605-0.646,1.044-0.611c0.96,0.078,2.502,0.649,3.426,0.738c0.231,0.022,0.225-0.21,0.123-0.368
	c-1.503-0.451-3.043-0.781-4.599-0.988c-0.97-0.129-1.35-1.406-0.566-1.992c0.1-0.074,0.539-0.206,0.659-0.188
	c0.985,0.143,0.985,0.143,2.036,0.324c2.95,0.51,2.559-0.074,2.559-0.074c0.019-0.221-3.356-0.547-5.083-0.754
	c-0.366-0.044-0.769-0.107-1.004-0.391c-0.286-0.345-0.185-0.896,0.117-1.227c0.302-0.332,0.736-0.585,1.185-0.593
	c1.918-0.033,8.217,0.667,8.217,0.667s0.825,1.121,0.573,3.412C174.511,109.145,172.786,111.665,172.786,111.665"/>
<path fill="#263238" d="M163.875,118.539c0,0-0.09,0.017-0.266,0.038c-0.188,0.02-0.448,0.046-0.784,0.081
	c-0.689,0.063-1.708,0.16-3.024,0.175c-1.311,0.001-2.951-0.065-4.744-0.656c-1.793-0.592-3.603-1.845-5.235-3.543
	c-1.643-1.696-3.226-3.733-4.911-5.925c-1.674-2.2-3.424-4.58-5.245-7.099c-1.82-2.519-3.708-5.179-5.645-7.951
	c-0.964-1.39-1.943-2.805-2.938-4.24c-0.248-0.36-0.495-0.722-0.744-1.084l-0.352-0.569c-0.124-0.187-0.228-0.385-0.32-0.59
	c-0.416-0.797-0.68-1.674-0.835-2.568c-0.165-0.895-0.168-1.811-0.054-2.7c0.041-0.448,0.156-0.882,0.254-1.317
	c0.142-0.423,0.261-0.853,0.455-1.252c0.163-0.414,0.397-0.789,0.608-1.174c0.254-0.358,0.481-0.735,0.779-1.056
	c0.55-0.679,1.217-1.245,1.921-1.729c0.706-0.491,1.487-0.842,2.278-1.125c0.806-0.236,1.625-0.43,2.452-0.446
	c1.648-0.094,3.271,0.304,4.675,1.004c1.396,0.73,2.57,1.785,3.417,3.012c0.838,1.21,1.652,2.384,2.439,3.521
	c1.572,2.271,3.037,4.388,4.375,6.322c2.664,3.862,4.821,6.991,6.32,9.164c0.736,1.079,1.311,1.919,1.707,2.5
	c0.188,0.28,0.334,0.498,0.438,0.654c0.097,0.148,0.142,0.228,0.142,0.228s-0.06-0.069-0.164-0.212
	c-0.11-0.153-0.263-0.365-0.46-0.639c-0.406-0.575-0.994-1.406-1.748-2.471c-1.515-2.162-3.697-5.274-6.39-9.117
	c-1.346-1.927-2.819-4.038-4.401-6.303c-0.791-1.133-1.608-2.305-2.45-3.513c-0.83-1.195-1.975-2.218-3.336-2.927
	c-1.369-0.678-2.948-1.063-4.552-0.968c-0.804,0.016-1.6,0.208-2.383,0.437c-0.769,0.277-1.528,0.619-2.214,1.097
	c-0.685,0.471-1.333,1.021-1.865,1.681c-0.29,0.312-0.51,0.679-0.756,1.027c-0.205,0.375-0.434,0.739-0.59,1.142
	c-0.19,0.388-0.304,0.806-0.442,1.217c-0.094,0.423-0.208,0.844-0.247,1.28c-0.11,0.864-0.107,1.754,0.053,2.624
	c0.15,0.868,0.407,1.719,0.811,2.494c0.38,0.782,0.904,1.489,1.396,2.212c0.993,1.436,1.971,2.851,2.933,4.241
	c1.934,2.773,3.816,5.436,5.63,7.958c1.815,2.521,3.558,4.904,5.223,7.108c1.674,2.193,3.248,4.237,4.87,5.927
	c1.613,1.694,3.388,2.937,5.149,3.534c1.763,0.596,3.391,0.68,4.696,0.694c1.312,0.001,2.33-0.08,3.02-0.126
	c0.336-0.023,0.598-0.042,0.786-0.054C163.784,118.538,163.875,118.539,163.875,118.539"/>
<path fill="#263238" d="M162.104,107.893c-0.09-0.011,0.529-1.857,0.147-4.15c-0.349-2.299-1.51-3.862-1.428-3.901
	c0.022-0.018,0.341,0.341,0.719,1.015c0.378,0.671,0.783,1.676,0.971,2.845c0.184,1.168,0.111,2.249-0.04,3.004
	C162.324,107.463,162.131,107.903,162.104,107.893"/>
<path fill="#263238" d="M162.356,81.972c-0.067,0.02-0.295-0.586-0.359-1.375c-0.067-0.789,0.056-1.424,0.126-1.416
	c0.076,0.007,0.073,0.632,0.138,1.394C162.323,81.336,162.43,81.953,162.356,81.972"/>
<path fill="#263238" d="M165.111,81.715c-0.066,0.022-0.312-0.563-0.411-1.335c-0.102-0.771-0.015-1.4,0.056-1.396
	c0.075,0.003,0.108,0.617,0.208,1.362C165.058,81.091,165.184,81.694,165.111,81.715"/>
<path fill="#263238" d="M167.843,81.122c-0.074,0.003-0.159-0.499-0.192-1.121c-0.033-0.624,0-1.131,0.074-1.135
	c0.072-0.003,0.158,0.498,0.19,1.122C167.949,80.61,167.916,81.118,167.843,81.122"/>
<path fill="#FAFAFA" d="M150.996,86.792c0.042,0.06-3.113,2.32-7.046,5.045c-3.935,2.728-7.157,4.889-7.199,4.829
	c-0.042-0.06,3.113-2.319,7.048-5.046C147.731,88.893,150.955,86.732,150.996,86.792"/>
<path fill="#FAFAFA" d="M148.534,83.099c0.01,0.016-0.188,0.167-0.554,0.426c-0.41,0.287-0.931,0.653-1.555,1.091
	c-1.313,0.918-3.121,2.196-5.086,3.651c-1.964,1.457-3.714,2.812-4.976,3.801c-0.601,0.469-1.102,0.861-1.496,1.169
	c-0.355,0.274-0.557,0.419-0.569,0.405c-0.012-0.014,0.167-0.186,0.503-0.484c0.334-0.3,0.828-0.722,1.444-1.236
	c1.232-1.027,2.968-2.409,4.936-3.867c1.968-1.458,3.796-2.714,5.138-3.594c0.671-0.44,1.218-0.789,1.603-1.021
	C148.307,83.206,148.523,83.084,148.534,83.099"/>
<rect x="252.641" y="128.544" fill="#80C380" width="8.979" height="100.403"/>
<path fill="#CCCCCC" d="M280.61,162.863l-0.915-1.531l0.744-1.627c0.268-0.58-0.322-1.307-0.948-1.168l-1.743,0.395l-1.313-1.207
	c-0.235-0.215-0.574-0.283-0.87-0.168c-0.299,0.117-0.505,0.389-0.532,0.707l-0.161,1.779l-1.561,0.875
	c-0.276,0.156-0.441,0.457-0.426,0.773c0.017,0.32,0.216,0.604,0.506,0.727l1.646,0.705l0.352,1.752
	c0.065,0.324,0.309,0.566,0.604,0.645c0.309,0.082,0.637-0.018,0.849-0.256l1.176-1.348l1.772,0.207
	c0.318,0.037,0.627-0.107,0.802-0.375C280.768,163.484,280.77,163.137,280.61,162.863"/>
<path fill="#CCCCCC" d="M223.44,159.596l-0.915-1.533l0.744-1.627c0.268-0.58-0.322-1.307-0.948-1.166l-1.743,0.395l-1.312-1.209
	c-0.235-0.215-0.575-0.283-0.871-0.166c-0.298,0.115-0.505,0.387-0.532,0.705l-0.161,1.779l-1.561,0.875
	c-0.276,0.156-0.441,0.457-0.426,0.775c0.017,0.318,0.215,0.602,0.506,0.725l1.646,0.705l0.352,1.752
	c0.065,0.324,0.309,0.566,0.605,0.645c0.308,0.082,0.636-0.018,0.848-0.256l1.176-1.348l1.771,0.207
	c0.319,0.039,0.627-0.107,0.803-0.375C223.598,160.215,223.6,159.867,223.44,159.596"/>
<path fill="#CCCCCC" d="M204.247,81.507l-1.798-0.26l-0.804-1.628c-0.283-0.583-1.24-0.583-1.527,0l-0.803,1.628l-1.795,0.26
	c-0.323,0.048-0.588,0.271-0.687,0.58c-0.099,0.311-0.019,0.647,0.216,0.874l1.3,1.267l-0.311,1.791
	c-0.054,0.318,0.078,0.641,0.337,0.832c0.265,0.193,0.614,0.217,0.9,0.067l1.611-0.847l1.607,0.847
	c0.298,0.156,0.644,0.119,0.896-0.067c0.265-0.188,0.394-0.513,0.341-0.832l-0.309-1.791l1.299-1.267
	c0.234-0.226,0.316-0.563,0.219-0.874C204.836,81.779,204.564,81.555,204.247,81.507"/>
<path fill="#CCCCCC" d="M307.577,102.194l-1.442,0.425l-1.169-0.946c-0.415-0.341-1.134-0.011-1.148,0.527l-0.044,1.503l-1.26,0.815
	c-0.226,0.147-0.347,0.408-0.316,0.674c0.032,0.269,0.21,0.493,0.464,0.581l1.416,0.505l0.386,1.454
	c0.07,0.26,0.279,0.455,0.541,0.508c0.266,0.055,0.537-0.047,0.7-0.259l0.918-1.193l1.5,0.083c0.277,0.014,0.524-0.134,0.651-0.362
	c0.133-0.233,0.118-0.521-0.029-0.744l-0.852-1.24l0.538-1.402c0.1-0.251,0.045-0.532-0.137-0.73
	C308.114,102.195,307.833,102.119,307.577,102.194"/>
<path fill="#CCCCCC" d="M289.928,155.963c0.097-0.26,0.125-0.537,0.083-0.814c-0.041-0.277-0.153-0.533-0.338-0.762
	s-0.413-0.395-0.68-0.492c-0.262-0.096-0.539-0.127-0.814-0.086c-0.277,0.043-0.534,0.158-0.764,0.344
	c-0.229,0.186-0.392,0.412-0.491,0.676c-0.097,0.262-0.123,0.541-0.083,0.816c0.042,0.279,0.155,0.535,0.342,0.764
	c0.186,0.229,0.412,0.393,0.675,0.488c0.264,0.1,0.539,0.127,0.814,0.086c0.278-0.043,0.535-0.154,0.764-0.342
	C289.666,156.455,289.832,156.227,289.928,155.963 M288.588,156.426c-0.183,0.027-0.36,0.008-0.531-0.055
	c-0.171-0.061-0.318-0.168-0.439-0.316c-0.121-0.15-0.195-0.318-0.224-0.5c-0.024-0.178-0.007-0.357,0.056-0.529
	s0.169-0.318,0.318-0.439s0.315-0.197,0.496-0.221c0.183-0.027,0.36-0.008,0.531,0.053c0.172,0.064,0.321,0.172,0.441,0.322
	c0.121,0.148,0.196,0.314,0.221,0.494c0.025,0.182,0.008,0.359-0.056,0.531s-0.171,0.32-0.318,0.439
	C288.936,156.326,288.769,156.402,288.588,156.426"/>
<path fill="#CCCCCC" d="M216.996,150.702c0.097-0.261,0.125-0.537,0.083-0.815c-0.04-0.276-0.152-0.533-0.338-0.762
	c-0.185-0.228-0.413-0.394-0.679-0.491c-0.261-0.096-0.539-0.126-0.814-0.086c-0.277,0.042-0.534,0.157-0.764,0.344
	c-0.229,0.186-0.392,0.412-0.492,0.675c-0.096,0.262-0.123,0.54-0.083,0.815c0.042,0.28,0.156,0.537,0.342,0.765
	c0.186,0.229,0.413,0.393,0.675,0.488c0.264,0.099,0.54,0.128,0.815,0.086c0.278-0.042,0.535-0.155,0.763-0.342
	C216.733,151.194,216.899,150.966,216.996,150.702 M215.656,151.166c-0.183,0.026-0.36,0.008-0.531-0.055
	c-0.17-0.062-0.318-0.168-0.439-0.317c-0.121-0.149-0.196-0.317-0.223-0.499c-0.025-0.179-0.007-0.359,0.056-0.53
	c0.062-0.171,0.169-0.319,0.318-0.44c0.148-0.121,0.315-0.196,0.496-0.221c0.183-0.027,0.36-0.007,0.531,0.054
	c0.172,0.063,0.321,0.172,0.442,0.321s0.195,0.315,0.22,0.495c0.025,0.181,0.008,0.36-0.056,0.531
	c-0.063,0.173-0.17,0.32-0.319,0.44C216.004,151.066,215.837,151.141,215.656,151.166"/>
<path fill="#CCCCCC" d="M213.463,68.296c-0.285-0.479-0.673-0.866-1.154-1.152c-0.478-0.285-1.018-0.432-1.6-0.432
	c-0.584,0-1.125,0.144-1.61,0.432c-0.477,0.285-0.87,0.672-1.151,1.152c-0.284,0.48-0.429,1.021-0.429,1.607
	c0,0.584,0.145,1.124,0.429,1.605c0.283,0.477,0.676,0.866,1.151,1.15c0.486,0.286,1.026,0.433,1.61,0.433
	c0.583,0,1.123-0.146,1.6-0.433c0.483-0.284,0.871-0.673,1.154-1.15c0.283-0.48,0.428-1.021,0.428-1.605
	C213.891,69.317,213.749,68.774,213.463,68.296 M212.5,70.943c-0.188,0.313-0.437,0.564-0.75,0.751
	c-0.31,0.184-0.658,0.281-1.042,0.281c-0.379,0-0.734-0.097-1.047-0.281c-0.31-0.188-0.564-0.438-0.749-0.751
	c-0.189-0.309-0.281-0.661-0.281-1.041c0-0.378,0.092-0.73,0.281-1.043c0.184-0.316,0.438-0.566,0.749-0.754
	c0.313-0.186,0.667-0.281,1.047-0.281c0.384,0,0.732,0.095,1.042,0.281c0.313,0.188,0.563,0.438,0.75,0.754
	c0.188,0.313,0.281,0.666,0.281,1.043C212.78,70.283,212.686,70.634,212.5,70.943"/>
<path fill="#CCCCCC" d="M302.34,80.486c-0.456-0.315-0.974-0.507-1.529-0.563c-0.553-0.059-1.105,0.031-1.636,0.275
	c-0.531,0.244-0.963,0.601-1.281,1.064c-0.316,0.457-0.511,0.975-0.57,1.526c-0.059,0.556,0.037,1.107,0.282,1.642
	c0.245,0.532,0.598,0.96,1.06,1.281c0.457,0.314,0.976,0.505,1.529,0.563c0.557,0.058,1.111-0.035,1.644-0.279
	c0.529-0.243,0.958-0.6,1.273-1.061c0.319-0.459,0.512-0.974,0.569-1.527c0.058-0.557-0.036-1.105-0.28-1.638
	C303.155,81.235,302.798,80.803,302.34,80.486 M302.57,83.294c-0.038,0.363-0.162,0.697-0.369,0.996
	c-0.203,0.298-0.48,0.53-0.826,0.689c-0.347,0.159-0.707,0.22-1.069,0.182c-0.361-0.039-0.695-0.163-0.995-0.37
	c-0.3-0.203-0.53-0.482-0.689-0.829c-0.157-0.346-0.221-0.704-0.181-1.065c0.039-0.366,0.162-0.697,0.369-0.997
	c0.208-0.301,0.487-0.533,0.835-0.691c0.347-0.159,0.702-0.22,1.061-0.179c0.362,0.04,0.695,0.163,0.995,0.371
	c0.302,0.207,0.532,0.487,0.69,0.831C302.547,82.577,302.612,82.935,302.57,83.294"/>
<path fill="#CCCCCC" d="M267.93,154.301c0.35,0.43,0.284,1.063-0.147,1.412c-0.431,0.352-1.064,0.285-1.413-0.146
	c-0.351-0.43-0.285-1.064,0.146-1.414C266.947,153.803,267.58,153.869,267.93,154.301"/>
<path fill="#CCCCCC" d="M201.89,98.838c0.554,0,1.004,0.449,1.004,1.004c0,0.554-0.45,1.003-1.004,1.003s-1.004-0.449-1.004-1.003
	C200.886,99.287,201.335,98.838,201.89,98.838"/>
<path fill="#80C380" d="M285.483,152.564h-56.704c-5.028,0-9.143-4.809-9.143-10.686V88.931c0-5.877,4.115-10.686,9.143-10.686
	h56.704c5.029,0,9.144,4.809,9.144,10.686v52.948C294.626,147.756,290.512,152.564,285.483,152.564"/>
<path fill="#CCCCCC" d="M308.445,92.178c0.504-0.231,1.101-0.011,1.331,0.494c0.231,0.504,0.011,1.1-0.493,1.331
	c-0.504,0.231-1.099,0.011-1.33-0.493C307.721,93.005,307.941,92.409,308.445,92.178"/>
<path fill="#CCCCCC" d="M230.822,156.588c0.504-0.23,1.1-0.01,1.33,0.494c0.231,0.504,0.012,1.1-0.492,1.332
	c-0.504,0.23-1.101,0.01-1.332-0.494C230.097,157.416,230.318,156.82,230.822,156.588"/>
<path fill="#4D8BBF" d="M281.642,146.522h-56.704c-5.029,0-9.144-4.809-9.144-10.686V82.889c0-5.877,4.114-10.686,9.144-10.686
	h56.704c5.028,0,9.143,4.809,9.143,10.686v52.948C290.785,141.714,286.67,146.522,281.642,146.522"/>
<g>
	<path fill="#FFFFFF" d="M220.807,111.266c1.285-1.427,1.285-1.427,2.74-3.138l6.19-7.247c0.967-1.065,1.851-2.202,2.645-3.401
		h5.858c-0.168,1.573-0.245,3.155-0.229,4.737v9.273h0.826c0.949-0.01,1.896-0.086,2.835-0.229v5.192
		c-0.928-0.115-1.861-0.173-2.796-0.171h-0.856v1.426c-0.027,1.174,0.049,2.348,0.229,3.508h-5.888
		c0.162-1.176,0.238-2.363,0.229-3.55v-1.398h-8.074c-1.854,0-2.645,0.028-3.709,0.115V111.266z M232.62,108.243
		c0-1.284,0.057-2.853,0.17-4.107c-0.565,0.797-0.997,1.368-1.769,2.339l-4.156,5.079h5.755V108.243z"/>
	<path fill="#FFFFFF" d="M246.396,119.083c-0.909-0.896-1.618-1.976-2.078-3.167c-0.753-2.095-1.132-4.307-1.118-6.533
		c0-2.995,0.714-6.104,1.799-7.903c1.739-2.91,4.706-4.506,8.302-4.506c2.766,0,5.192,0.945,6.933,2.646
		c0.91,0.895,1.618,1.975,2.078,3.166c0.757,2.106,1.136,4.33,1.118,6.567c0,2.995-0.712,6.135-1.798,7.935
		c-1.711,2.853-4.707,4.45-8.329,4.45C250.505,121.735,248.138,120.823,246.396,119.083 M249.056,109.163
		c0,5.102,1.455,7.731,4.28,7.731c2.796,0,4.223-2.567,4.223-7.645c0-4.88-1.485-7.448-4.252-7.448
		C250.619,101.795,249.056,104.504,249.056,109.163"/>
	<path fill="#FFFFFF" d="M264.912,111.266c1.283-1.427,1.283-1.427,2.738-3.138l6.191-7.247c1.368-1.569,1.911-2.283,2.645-3.401
		h5.856c-0.165,1.576-0.24,3.159-0.223,4.742v9.273h0.828c0.945-0.01,1.89-0.086,2.825-0.229v5.192
		c-0.929-0.116-1.862-0.173-2.797-0.172h-0.856v1.427c-0.027,1.174,0.049,2.348,0.229,3.508h-5.884
		c0.161-1.178,0.237-2.367,0.229-3.555v-1.398h-8.073c-1.855,0-2.654,0.028-3.709,0.115V111.266z M276.722,108.243
		c0-1.284,0.057-2.853,0.172-4.107c-0.567,0.797-0.999,1.368-1.769,2.339l-4.166,5.079h5.763V108.243z"/>
</g>
</svg>
