<?xml version="1.0" encoding="utf-8"?>
<!-- Generator: Adobe Illustrator 24.1.1, SVG Export Plug-In . SVG Version: 6.00 Build 0)  -->
<svg version="1.1" id="Layer_1" xmlns="http://www.w3.org/2000/svg" xmlns:xlink="http://www.w3.org/1999/xlink" x="0px" y="0px"
	 viewBox="0 0 30 30" style="enable-background:new 0 0 30 30;" xml:space="preserve">
<style type="text/css">
	.st0{fill:none;stroke:#FFFFFF;stroke-linecap:round;stroke-miterlimit:10;}
</style>
<g>
	<path class="st0" d="M10.7,6.7L10.7,6.7c2.4,0,4.3,1.9,4.3,4.3s-1.9,4.3-4.3,4.3S6.5,13.4,6.5,11l0,0C6.5,8.7,8.4,6.7,10.7,6.7
		L10.7,6.7"/>
	<line class="st0" x1="17.9" y1="13.4" x2="23.5" y2="13.4"/>
	<line class="st0" x1="17.9" y1="8.6" x2="23.5" y2="8.6"/>
	<line class="st0" x1="23.5" y1="18.1" x2="12.2" y2="18.1"/>
	<line class="st0" x1="23.5" y1="22.8" x2="12.2" y2="22.8"/>
	<path class="st0" d="M8.4,18.1L8.4,18.1c0,0.1-0.1,0.2-0.2,0.2c-0.1,0-0.2-0.1-0.2-0.2c0-0.1,0.1-0.2,0.2-0.2l0,0
		C8.3,17.9,8.4,18,8.4,18.1"/>
	<path class="st0" d="M8.4,22.8L8.4,22.8c0,0.1-0.1,0.2-0.2,0.2c-0.1,0-0.2-0.1-0.2-0.2c0-0.1,0.1-0.2,0.2-0.2l0,0
		C8.3,22.6,8.4,22.7,8.4,22.8"/>
	<path class="st0" d="M11.9,10.9L11.9,10.9C11.9,10.9,11.9,11,11.9,10.9C11.9,11,11.9,11,11.9,10.9L11.9,10.9
		C11.9,11,12,11,11.9,10.9C12,11,11.9,10.9,11.9,10.9"/>
	<path class="st0" d="M9.6,10.9L9.6,10.9C9.6,10.9,9.5,11,9.6,10.9L9.6,10.9L9.6,10.9C9.5,11,9.6,11,9.6,10.9L9.6,10.9
		C9.6,11,9.6,11,9.6,10.9C9.6,11,9.6,10.9,9.6,10.9L9.6,10.9"/>
</g>
</svg>
