<?xml version="1.0" encoding="utf-8"?>
<!-- Generator: Adobe Illustrator 16.0.3, SVG Export Plug-In . SVG Version: 6.00 Build 0)  -->
<!DOCTYPE svg PUBLIC "-//W3C//DTD SVG 1.1//EN" "http://www.w3.org/Graphics/SVG/1.1/DTD/svg11.dtd">
<svg version="1.1" id="Layer_1" xmlns="http://www.w3.org/2000/svg" xmlns:xlink="http://www.w3.org/1999/xlink" x="0px" y="0px"
	 width="59px" height="60px" viewBox="0 0 59 60" enable-background="new 0 0 59 60" xml:space="preserve">
<path fill="#7D8693" stroke="#7D8693" stroke-miterlimit="10" d="M31.482,45.827H15.599c-1.194,0-2.166-0.975-2.166-2.169v-1.442
	c0-1.196,0.971-2.168,2.166-2.168h15.884c1.195,0,2.17,0.972,2.17,2.168v1.442C33.65,44.853,32.678,45.827,31.482,45.827
	L31.482,45.827z M15.599,41.494c-0.398,0-0.721,0.324-0.721,0.722v1.442c0,0.396,0.323,0.724,0.721,0.724h15.884
	c0.401,0,0.724-0.327,0.724-0.724v-1.442c0-0.397-0.324-0.722-0.724-0.722H15.599z"/>
<path fill="#7D8693" stroke="#7D8693" stroke-miterlimit="10" d="M28.875,29.404c-0.336,0-0.659-0.098-0.924-0.364l-5.068-5.069
	c-0.886-0.888,0.088-2.422,0.407-2.924c0.599-0.941,1.532-2.064,2.628-3.161c1.099-1.101,2.224-2.038,3.167-2.636
	c0.504-0.323,2.04-1.297,2.926-0.41l5.068,5.068c0.888,0.889-0.089,2.426-0.411,2.93c-0.601,0.944-1.536,2.067-2.636,3.167
	c-1.098,1.098-2.22,2.029-3.161,2.629C30.521,28.858,29.662,29.404,28.875,29.404L28.875,29.404z M30.993,15.862
	c-0.256,0.009-1.838,0.831-4.047,3.04c-2.21,2.208-3.033,3.793-2.982,4.151l5.009,4.964c0.252-0.009,1.838-0.831,4.048-3.038
	c2.126-2.129,2.967-3.675,2.982-4.108L30.993,15.862z"/>
<path fill="#7D8693" stroke="#7D8693" stroke-miterlimit="10" d="M26.434,32.713c-0.551,0-1.105-0.212-1.524-0.633l-5.07-5.069
	c-0.408-0.403-0.63-0.945-0.63-1.522c0-0.577,0.223-1.118,0.631-1.524l1.015-1.013c0.84-0.841,2.208-0.841,3.048,0l5.069,5.066
	c0.838,0.843,0.838,2.211,0,3.049l-1.016,1.014C27.537,32.501,26.987,32.713,26.434,32.713L26.434,32.713z M22.379,23.764
	c-0.181,0-0.363,0.072-0.503,0.208l-1.013,1.016c-0.136,0.133-0.209,0.313-0.209,0.501c0,0.192,0.074,0.369,0.209,0.505l5.069,5.069
	c0.278,0.277,0.729,0.275,1.006,0l1.014-1.014c0.278-0.278,0.278-0.73,0-1.006l-5.069-5.071
	C22.743,23.835,22.562,23.764,22.379,23.764L22.379,23.764z"/>
<path fill="#7D8693" stroke="#7D8693" stroke-miterlimit="10" d="M37.586,21.559c-0.554,0-1.106-0.21-1.524-0.63l-5.068-5.071
	c-0.841-0.839-0.841-2.206,0-3.047l1.016-1.014c0.838-0.84,2.206-0.84,3.047,0l5.065,5.069c0.841,0.84,0.841,2.208,0,3.049
	l-1.013,1.014C38.689,21.351,38.138,21.559,37.586,21.559L37.586,21.559z M33.53,12.613c-0.18,0-0.364,0.069-0.504,0.209
	l-1.014,1.013c-0.278,0.277-0.278,0.728,0,1.005l5.068,5.068c0.276,0.276,0.729,0.276,1.007,0l1.014-1.011
	c0.277-0.278,0.277-0.729,0-1.006l-5.069-5.069C33.895,12.682,33.712,12.613,33.53,12.613L33.53,12.613z M39.612,19.406h0.015
	H39.612z"/>
<path fill="#7D8693" stroke="#7D8693" stroke-miterlimit="10" d="M45.342,40.054c-0.868,0-1.807-0.498-2.804-1.494
	c-0.995-0.995-6.854-7.443-10.49-11.733c-0.259-0.301-0.222-0.759,0.084-1.016c0.304-0.259,0.759-0.222,1.018,0.083
	c3.792,4.469,9.55,10.782,10.411,11.644c1.625,1.627,2.261,0.995,2.639,0.619c0.172-0.172,0.412-0.408,0.445-0.75
	c0.047-0.489-0.32-1.144-1.064-1.888c-0.854-0.855-7.155-6.606-11.644-10.414c-0.307-0.259-0.344-0.714-0.083-1.016
	c0.261-0.308,0.716-0.343,1.02-0.084c4.303,3.652,10.745,9.503,11.732,10.49c1.076,1.076,1.573,2.106,1.478,3.057
	c-0.084,0.85-0.609,1.372-0.862,1.625C46.636,39.764,46.01,40.054,45.342,40.054L45.342,40.054z"/>
</svg>
