<?xml version="1.0" encoding="utf-8"?>
<!-- Generator: Adobe Illustrator 24.1.1, SVG Export Plug-In . SVG Version: 6.00 Build 0)  -->
<svg version="1.1" id="Layer_1" xmlns="http://www.w3.org/2000/svg" xmlns:xlink="http://www.w3.org/1999/xlink" x="0px" y="0px"
	 viewBox="0 0 30 30" style="enable-background:new 0 0 30 30;" xml:space="preserve">
<style type="text/css">
	.st0{fill:#7D8693;stroke:#7D8693;stroke-width:0.5;stroke-miterlimit:10;}
</style>
<path class="st0" d="M15.6,23H7.5c-0.6,0-1.1-0.5-1.1-1.1v-0.7c0-0.6,0.5-1.1,1.1-1.1h8.1c0.6,0,1.1,0.5,1.1,1.1v0.7
	C16.7,22.5,16.2,23,15.6,23L15.6,23z M7.5,20.8c-0.2,0-0.4,0.2-0.4,0.4v0.7c0,0.2,0.2,0.4,0.4,0.4h8.1c0.2,0,0.4-0.2,0.4-0.4v-0.7
	c0-0.2-0.2-0.4-0.4-0.4H7.5z"/>
<path class="st0" d="M14.3,14.6c-0.2,0-0.3-0.1-0.5-0.2l-2.6-2.6c-0.5-0.5,0-1.2,0.2-1.5c0.3-0.5,0.8-1.1,1.3-1.6
	c0.6-0.6,1.1-1,1.6-1.3c0.3-0.2,1-0.7,1.5-0.2l2.6,2.6c0.5,0.5,0,1.2-0.2,1.5c-0.3,0.5-0.8,1.1-1.3,1.6c-0.6,0.6-1.1,1-1.6,1.3
	C15.1,14.3,14.7,14.6,14.3,14.6L14.3,14.6z M15.4,7.7c-0.1,0-0.9,0.4-2.1,1.6c-1.1,1.1-1.5,1.9-1.5,2.1l2.6,2.5
	c0.1,0,0.9-0.4,2.1-1.6c1.1-1.1,1.5-1.9,1.5-2.1L15.4,7.7z"/>
<path class="st0" d="M13,16.3c-0.3,0-0.6-0.1-0.8-0.3l-2.6-2.6c-0.2-0.2-0.3-0.5-0.3-0.8c0-0.3,0.1-0.6,0.3-0.8l0.5-0.5
	c0.4-0.4,1.1-0.4,1.6,0l2.6,2.6c0.4,0.4,0.4,1.1,0,1.6l-0.5,0.5C13.6,16.2,13.3,16.3,13,16.3L13,16.3z M11,11.7
	c-0.1,0-0.2,0-0.3,0.1l-0.5,0.5c-0.1,0.1-0.1,0.2-0.1,0.3c0,0.1,0,0.2,0.1,0.3l2.6,2.6c0.1,0.1,0.4,0.1,0.5,0l0.5-0.5
	c0.1-0.1,0.1-0.4,0-0.5l-2.6-2.6C11.2,11.7,11.1,11.7,11,11.7L11,11.7z"/>
<path class="st0" d="M18.7,10.6c-0.3,0-0.6-0.1-0.8-0.3l-2.6-2.6c-0.4-0.4-0.4-1.1,0-1.6l0.5-0.5c0.4-0.4,1.1-0.4,1.6,0L20,8.2
	c0.4,0.4,0.4,1.1,0,1.6l-0.5,0.5C19.3,10.5,19,10.6,18.7,10.6L18.7,10.6z M16.7,6c-0.1,0-0.2,0-0.3,0.1l-0.5,0.5
	c-0.1,0.1-0.1,0.4,0,0.5l2.6,2.6c0.1,0.1,0.4,0.1,0.5,0l0.5-0.5c0.1-0.1,0.1-0.4,0-0.5l-2.6-2.6C16.8,6,16.8,6,16.7,6L16.7,6z
	 M19.8,9.5L19.8,9.5L19.8,9.5z"/>
<path class="st0" d="M22.7,20c-0.4,0-0.9-0.3-1.4-0.8c-0.5-0.5-3.5-3.8-5.4-6c-0.1-0.2-0.1-0.4,0-0.5c0.2-0.1,0.4-0.1,0.5,0
	c1.9,2.3,4.9,5.5,5.3,5.9c0.8,0.8,1.2,0.5,1.3,0.3c0.1-0.1,0.2-0.2,0.2-0.4c0-0.2-0.2-0.6-0.5-1c-0.4-0.4-3.7-3.4-5.9-5.3
	c-0.2-0.1-0.2-0.4,0-0.5c0.1-0.2,0.4-0.2,0.5,0c2.2,1.9,5.5,4.9,6,5.4c0.5,0.5,0.8,1.1,0.8,1.6c0,0.4-0.3,0.7-0.4,0.8
	C23.4,19.9,23,20,22.7,20L22.7,20z"/>
</svg>
