<?xml version="1.0" encoding="utf-8"?>
<!-- Generator: Adobe Illustrator 24.1.1, SVG Export Plug-In . SVG Version: 6.00 Build 0)  -->
<svg version="1.1" id="Layer_1" xmlns="http://www.w3.org/2000/svg" xmlns:xlink="http://www.w3.org/1999/xlink" x="0px" y="0px"
	 viewBox="0 0 30 30" style="enable-background:new 0 0 30 30;" xml:space="preserve">
<style type="text/css">
	.st0{fill:#DA2F76;}
</style>
<g>
	<path class="st0" d="M23.1,25.1c-0.5,0-0.9-0.4-0.9-0.9c0-2.4-1.9-4.3-4.3-4.3H12c-2.4,0-4.3,1.9-4.3,4.3c0,0.5-0.4,0.9-0.9,0.9
		s-0.9-0.4-0.9-0.9c0-3.3,2.7-6,6-6h5.9c3.3,0,6,2.7,6,6C23.9,24.7,23.6,25.1,23.1,25.1z"/>
	<path class="st0" d="M15,16.4c-1.5,0-3-0.6-4.1-1.7s-1.7-2.5-1.7-4.1s0.6-3,1.7-4.1s2.5-1.7,4.1-1.7c1.5,0,3,0.6,4.1,1.7l0,0l0,0
		c1.1,1.1,1.7,2.5,1.7,4.1s-0.6,3-1.7,4.1C18,15.9,16.5,16.4,15,16.4z M15,6.6c-1.1,0-2.1,0.4-2.9,1.2S11,9.6,11,10.7
		s0.4,2.1,1.2,2.9c1.6,1.6,4.1,1.6,5.7,0c0.8-0.8,1.2-1.8,1.2-2.9s-0.4-2.1-1.2-2.9l0,0C17.1,7.1,16.1,6.6,15,6.6z"/>
</g>
</svg>
