<?xml version="1.0" encoding="utf-8"?>
<!-- Generator: Adobe Illustrator 24.1.1, SVG Export Plug-In . SVG Version: 6.00 Build 0)  -->
<svg version="1.1" id="Layer_1" xmlns="http://www.w3.org/2000/svg" xmlns:xlink="http://www.w3.org/1999/xlink" x="0px" y="0px"
	 viewBox="0 0 30 30" style="enable-background:new 0 0 30 30;" xml:space="preserve">
<style type="text/css">
	.st0{fill:#F50057;}
</style>
<g>
	<path class="st0" d="M21.4,5.3H8.6c-1.8,0-3.3,1.5-3.3,3.3v8.8c0,1.8,1.5,3.3,3.3,3.3h3.6l-0.3,2.5h-0.7c-0.4,0-0.7,0.3-0.7,0.7
		c0,0.4,0.3,0.7,0.7,0.7h7.7c0.4,0,0.7-0.3,0.7-0.7c0-0.4-0.3-0.7-0.7-0.7h-0.7l-0.3-2.5h3.6c1.8,0,3.3-1.5,3.3-3.3V8.6
		C24.7,6.8,23.2,5.3,21.4,5.3z M16.6,23.2h-3.3l0.3-2.5h2.7L16.6,23.2z M23.2,17.4c0,1-0.8,1.8-1.8,1.8H8.6c-1,0-1.8-0.8-1.8-1.8
		V8.6c0-1,0.8-1.8,1.8-1.8h12.8c1,0,1.8,0.8,1.8,1.8V17.4z"/>
	<path class="st0" d="M17.8,12.1c-0.3-0.2-0.7-0.3-1.1-0.3c-0.3,0-0.5,0.1-0.7,0.2c-0.2,0.2-0.3,0.4-0.4,0.6c0,0.2-0.1,0.3,0,0.5
		c0,0.3,0.1,0.6,0.3,0.8c0.2,0.2,0.5,0.3,0.8,0.3h0.1c0,0.1,0,0.1,0,0.1c-0.2,0.7-0.6,1.2-1.4,1.6C15.2,16,15,16,14.8,16
		c-0.5,0-0.7-0.3-0.7-0.7v-2.2h1.2c0.1,0,0.1,0,0.1-0.1v-0.1l-0.2-0.2c-0.1-0.2-0.3-0.3-0.3-0.3c-0.2-0.3-0.5-0.4-0.8-0.4v-0.5
		c0-0.6,0-1,0-1.3c0-0.1,0-0.2,0-0.3C14,9.5,13.9,9.2,13.7,9s-0.4-0.3-0.6-0.4c-0.1,0-0.2,0-0.2,0H12c-0.1,0-0.1,0-0.1,0.1
		c0,0.2-0.1,0.4-0.1,0.6c0,0.2,0,0.4,0.1,0.6C11.9,10,12,10,12,10h0.6h0.1h0.1l0,0c0.1,0.1,0.2,0.2,0.2,0.4v1.5h-1.5
		c-0.1,0-0.1,0-0.1,0.1v0.1l0.2,0.2c0.2,0.2,0.4,0.4,0.5,0.5s0.1,0.1,0.3,0.1l0,0c0.1,0,0.3,0,0.6,0v0.7c0,0.8,0,1.4,0,1.7
		s0.1,0.6,0.3,0.8c0.5,0.6,1.1,0.9,1.7,0.9c0.3,0,0.5,0,0.8-0.1c1.1-0.4,1.9-1.2,2.4-2.4l0,0c0.2-0.6,0.3-1.2,0.1-1.8
		C18.3,12.6,18.1,12.3,17.8,12.1z"/>
</g>
</svg>
