<?xml version="1.0" encoding="utf-8"?>
<!-- Generator: Adobe Illustrator 24.1.1, SVG Export Plug-In . SVG Version: 6.00 Build 0)  -->
<svg version="1.1" id="Layer_1" xmlns="http://www.w3.org/2000/svg" xmlns:xlink="http://www.w3.org/1999/xlink" x="0px" y="0px"
	 viewBox="0 0 30 30" style="enable-background:new 0 0 30 30;" xml:space="preserve">
<style type="text/css">
	.st0{fill:#4CAF50;}
</style>
<g>
	<path class="st0" d="M23,16.8c-0.8,0-1.5-0.3-2.2-0.9c-1.2-1.2-1.2-3,0-4.2s3-1.2,4.2,0s1.2,3,0,4.2C24.5,16.5,23.8,16.8,23,16.8z
		 M23,12.5c-0.3,0-0.8,0.1-1,0.4c-0.5,0.5-0.5,1.4,0,2s1.4,0.5,2,0s0.5-1.4,0-2C23.7,12.6,23.4,12.5,23,12.5z"/>
	<path class="st0" d="M15,15c-1.1,0-2.2-0.4-2.9-1.2c-1.6-1.6-1.6-4.3,0-6s4.3-1.6,6,0l0,0c1.6,1.6,1.6,4.3,0,6
		C17.2,14.6,16.1,15,15,15z M15,8.2c-0.7,0-1.3,0.2-1.8,0.8c-1,1-1,2.6,0,3.6s2.7,1,3.6,0c1-1,1-2.6,0-3.6l0,0
		C16.3,8.5,15.7,8.2,15,8.2z"/>
	<path class="st0" d="M7,16.8c-0.8,0-1.5-0.3-2.2-0.9c-1.2-1.2-1.2-3,0-4.2s3-1.2,4.2,0s1.2,3,0,4.2C8.6,16.5,7.8,16.8,7,16.8z
		 M7,12.5c-0.3,0-0.8,0.1-1,0.4c-0.5,0.5-0.5,1.4,0,2s1.4,0.5,2,0c0.5-0.7,0.5-1.5,0-2.1C7.7,12.6,7.4,12.5,7,12.5z"/>
	<path class="st0" d="M26.9,23.3c-0.4,0-0.9-0.3-0.9-0.9v-1.2c0-1.1-0.9-2-2-2h-0.9c-0.4,0-0.9-0.3-0.9-0.9s0.3-0.9,0.9-0.9H24
		c2,0,3.6,1.6,3.6,3.6v1.4C27.8,23,27.4,23.3,26.9,23.3z"/>
	<path class="st0" d="M3.1,23.3c-0.4,0-0.9-0.3-0.9-0.9v-1.2c0-2,1.6-3.6,3.6-3.6h0.9c0.4,0,0.9,0.3,0.9,0.9s-0.3,0.9-0.9,0.9H5.8
		c-1.1,0-2,0.9-2,2v1.2C3.9,23,3.5,23.3,3.1,23.3z"/>
	<path class="st0" d="M20.7,23.3c-0.4,0-0.9-0.3-0.9-0.9v-1.7c0-1.6-1.3-3-3-3h-4c-1.6,0-3,1.3-3,3v1.8c0,0.4-0.3,0.9-0.9,0.9
		S8.4,23,8.4,22.6v-1.7c0-2.5,2.1-4.7,4.7-4.7h4c2.5,0,4.7,2.1,4.7,4.7v1.7C21.6,23,21.3,23.3,20.7,23.3z"/>
</g>
</svg>
