<?xml version="1.0" encoding="utf-8"?>
<!-- Generator: Adobe Illustrator 16.0.3, SVG Export Plug-In . SVG Version: 6.00 Build 0)  -->
<!DOCTYPE svg PUBLIC "-//W3C//DTD SVG 1.1//EN" "http://www.w3.org/Graphics/SVG/1.1/DTD/svg11.dtd">
<svg version="1.1" id="Layer_1" xmlns="http://www.w3.org/2000/svg" xmlns:xlink="http://www.w3.org/1999/xlink" x="0px" y="0px"
	 width="59px" height="60px" viewBox="0 0 59 60" enable-background="new 0 0 59 60" xml:space="preserve">
<g>
	<path fill="#7D8693" stroke="#7D8693" stroke-width="0.5" stroke-miterlimit="10" d="M39.247,45.296
		c-0.979,0-1.896-0.382-2.587-1.073c-0.69-0.69-1.072-1.61-1.072-2.589c0-0.977,0.383-1.896,1.074-2.585
		c0.69-0.691,1.61-1.071,2.587-1.071s1.896,0.379,2.587,1.071c0.691,0.691,1.072,1.612,1.072,2.588c0,0.978-0.381,1.896-1.073,2.586
		C41.145,44.916,40.224,45.296,39.247,45.296z M39.249,40.013c-0.435,0-0.841,0.168-1.148,0.476
		c-0.308,0.307-0.478,0.716-0.478,1.148s0.17,0.841,0.478,1.148c0.614,0.615,1.682,0.613,2.296,0
		c0.307-0.307,0.476-0.716,0.476-1.147c0-0.434-0.17-0.842-0.476-1.149S39.683,40.013,39.249,40.013z"/>
	<path fill="#7D8693" stroke="#7D8693" stroke-width="0.5" stroke-miterlimit="10" d="M20.907,45.296
		c-0.978,0-1.896-0.38-2.587-1.073c-1.425-1.428-1.425-3.75,0-5.174c0.692-0.691,1.612-1.07,2.587-1.07
		c0.978,0,1.895,0.379,2.585,1.07c0.692,0.691,1.073,1.612,1.073,2.588c0,0.978-0.381,1.896-1.073,2.586
		C22.803,44.916,21.883,45.296,20.907,45.296z M20.908,40.014c-0.433,0-0.842,0.169-1.15,0.476
		c-0.632,0.632-0.631,1.661,0.001,2.296c0.613,0.613,1.682,0.611,2.296-0.001c0.308-0.307,0.477-0.715,0.477-1.147
		s-0.17-0.842-0.477-1.149C21.749,40.181,21.341,40.014,20.908,40.014z"/>
	<path fill="#7D8693" stroke="#7D8693" stroke-width="0.5" stroke-miterlimit="10" d="M35.957,35.29H13.263v-2.034h20.659V17.599
		c0-0.358-0.293-0.649-0.649-0.649h-6.67v-2.035h6.67c1.48,0,2.685,1.204,2.685,2.685V35.29z"/>
	<path fill="#7D8693" stroke="#7D8693" stroke-width="0.5" stroke-miterlimit="10" d="M18.266,42.653h-3.335
		c-1.48,0-2.685-1.204-2.685-2.685v-9.031h2.035v9.031c0,0.358,0.292,0.649,0.65,0.649h3.335V42.653z"/>
	<path fill="#7D8693" stroke="#7D8693" stroke-width="0.5" stroke-miterlimit="10" d="M44.945,42.515h-3.055V40.48h3.055
		c0.357,0,0.65-0.292,0.65-0.649v-9.918c0-0.293-0.057-0.583-0.167-0.861l-2.679-6.69c-0.098-0.251-0.335-0.41-0.603-0.41H34.94
		v-2.035h7.208c1.107,0,2.085,0.664,2.493,1.69l2.678,6.692c0.206,0.521,0.311,1.063,0.311,1.614v9.918
		C47.63,41.312,46.426,42.515,44.945,42.515z"/>
	
		<rect x="23.551" y="40.625" fill="#7D8693" stroke="#7D8693" stroke-width="0.5" stroke-miterlimit="10" width="13.057" height="2.035"/>
	<polygon fill="#7D8693" stroke="#7D8693" stroke-width="0.5" stroke-miterlimit="10" points="46.612,33.621 38.925,33.621 
		38.925,24.919 45.279,24.919 45.279,26.954 40.961,26.954 40.961,31.588 46.612,31.588 	"/>
	
		<rect x="13.263" y="14.915" fill="#7D8693" stroke="#7D8693" stroke-width="0.5" stroke-miterlimit="10" width="8.338" height="2.034"/>
	
		<rect x="13.263" y="19.917" fill="#7D8693" stroke="#7D8693" stroke-width="0.5" stroke-miterlimit="10" width="5.003" height="2.035"/>
	
		<rect x="13.263" y="24.919" fill="#7D8693" stroke="#7D8693" stroke-width="0.5" stroke-miterlimit="10" width="1.668" height="2.035"/>
</g>
</svg>
