<?xml version="1.0" encoding="utf-8"?>
<!-- Generator: Adobe Illustrator 24.1.1, SVG Export Plug-In . SVG Version: 6.00 Build 0)  -->
<svg version="1.1" id="Layer_1" xmlns="http://www.w3.org/2000/svg" xmlns:xlink="http://www.w3.org/1999/xlink" x="0px" y="0px"
	 viewBox="0 0 116 61" style="enable-background:new 0 0 116 61;" xml:space="preserve">
<style type="text/css">
	.st0{fill:#727B9A;}
</style>
<path class="st0" d="M100.21,25.18c-1.17-1.97-2.77-3.56-4.73-4.73c-1.97-1.17-4.19-1.77-6.59-1.77c-2.4,0-4.62,0.6-6.6,1.77
	c-1.98,1.17-3.57,2.77-4.75,4.73c-1.18,1.97-1.77,4.2-1.77,6.61c0,2.4,0.6,4.62,1.77,6.59c1.17,1.97,2.77,3.56,4.75,4.73
	c1.98,1.18,4.2,1.77,6.6,1.77c2.4,0,4.61-0.6,6.59-1.77c1.97-1.17,3.56-2.77,4.73-4.73c1.18-1.97,1.77-4.19,1.77-6.59
	C101.98,29.38,101.38,27.15,100.21,25.18 M96.25,36.07c-0.77,1.28-1.8,2.32-3.09,3.09c-0.41,0.25-0.85,0.45-1.29,0.62
	c-0.25,0.09-0.52-0.09-0.53-0.36l-0.05-4.09c0-0.54,0.24-1.06,0.65-1.42c0.86-0.76,1.41-1.87,1.41-3.11c0-2.32-1.9-4.19-4.23-4.13
	c-2.26,0.05-4.07,1.94-4.04,4.19c0.02,1.22,0.56,2.32,1.42,3.06c0.41,0.35,0.64,0.87,0.64,1.41l-0.05,4.32
	c0,0.25-0.24,0.43-0.48,0.36c-0.71-0.19-1.38-0.48-2.02-0.85c-1.29-0.77-2.33-1.8-3.1-3.09c-0.76-1.28-1.15-2.72-1.15-4.28
	c0-1.56,0.39-3.01,1.15-4.29c0.77-1.29,1.81-2.33,3.1-3.1c1.29-0.76,2.73-1.15,4.29-1.15c1.56,0,3,0.39,4.28,1.15
	c1.28,0.77,2.32,1.81,3.09,3.1c0.76,1.29,1.15,2.73,1.15,4.29C97.4,33.35,97.02,34.79,96.25,36.07"/>
<path class="st0" d="M74.3,15.18l0.01-4.8c-0.02-0.63-0.24-1.18-0.67-1.61c-0.43-0.44-0.98-0.66-1.62-0.66
	c-0.62,0-1.16,0.22-1.6,0.66c-0.44,0.44-0.67,0.98-0.69,1.63l-0.01,11.35v0c-1.05-0.9-2.24-1.63-3.55-2.18
	c-0.86-0.36-1.76-0.62-2.7-0.79c-0.73-0.12-1.48-0.18-2.25-0.18c-2.4,0-4.62,0.6-6.6,1.77c-1.98,1.17-3.57,2.77-4.75,4.73
	c-1.18,1.97-1.77,4.2-1.77,6.61c0,2.4,0.6,4.62,1.77,6.59c1.17,1.97,2.77,3.56,4.75,4.73c1.98,1.18,4.2,1.77,6.6,1.77
	c0.92,0,1.8-0.09,2.66-0.26c1.23-0.25,2.41-0.69,3.51-1.29c0.84-0.46,1.61-1,2.31-1.61v0.03c1.12-0.96,2.07-2.08,2.84-3.37
	c1.16-1.94,1.75-4.12,1.77-6.47c0-0.04,0-0.08,0-0.12c0-0.04,0-0.08,0-0.12v-4.66c0-0.07-0.01-0.15-0.01-0.22l0.04-11.22
	C74.32,15.39,74.31,15.29,74.3,15.18 M68.58,35.99c-0.73,1.22-1.71,2.22-2.91,2.98c-1.32,0.84-2.83,1.27-4.51,1.27
	c-1.56,0-3-0.39-4.29-1.16c-1.29-0.77-2.33-1.82-3.1-3.1c-0.76-1.28-1.15-2.72-1.15-4.28c0-1.56,0.39-3.01,1.15-4.29
	c0.77-1.29,1.81-2.33,3.1-3.1c1.29-0.76,2.73-1.15,4.29-1.15c2.17,0,4.05,0.7,5.61,2.09c0.71,0.62,1.31,1.34,1.81,2.17
	c0.76,1.29,1.15,2.73,1.15,4.29C69.73,33.28,69.34,34.72,68.58,35.99"/>
<path class="st0" d="M61.23,27.6c-2.28,0-4.13,1.85-4.13,4.14c0,2.28,1.85,4.14,4.13,4.14c2.28,0,4.14-1.85,4.14-4.14
	C65.37,29.46,63.52,27.6,61.23,27.6"/>
<path class="st0" d="M27.03,27.75c-2.28,0-4.13,1.85-4.13,4.14c0,2.28,1.85,4.14,4.13,4.14c2.28,0,4.14-1.85,4.14-4.14
	C31.16,29.6,29.31,27.75,27.03,27.75"/>
<path class="st0" d="M44,8.47c-3.01-0.03-5.5,2.41-5.53,5.43c-0.02,1.89,0.93,3.55,2.37,4.55c0.51,0.35,0.82,0.93,0.82,1.55
	l-0.01,5.36c-0.01,0.08-0.01,0.16-0.01,0.24v1.37v15.46v0.12c0,0,0,0,0,0.01c0,0,0,0,0,0.01v0.2v0.01v0.63c0,0.01,0,0.03,0,0.04
	c0,0.01,0,0.03,0,0.04c0.01,0.41,0.11,0.78,0.31,1.12c0.21,0.35,0.49,0.63,0.83,0.83c0.35,0.21,0.74,0.31,1.16,0.31
	c0.42,0,0.81-0.1,1.16-0.31c0.35-0.21,0.63-0.49,0.83-0.83c0.21-0.35,0.31-0.74,0.31-1.16v-0.68v-0.33V26.96v-1.37
	c0-0.08-0.01-0.15-0.01-0.22l0.01-5.38c0-0.61,0.3-1.19,0.8-1.53c1.43-0.99,2.38-2.64,2.38-4.51C49.42,10.94,47,8.5,44,8.47
	 M46.14,14.46c-0.23,1-1.12,1.74-2.19,1.74c-1.05,0-1.93-0.72-2.18-1.69c-0.05-0.18-0.07-0.37-0.07-0.56c0-1.24,1.01-2.25,2.25-2.25
	c1.24,0,2.25,1.01,2.25,2.25C46.2,14.12,46.17,14.29,46.14,14.46"/>
<path class="st0" d="M33.66,20.36c-1.41-0.84-2.95-1.39-4.59-1.63c-0.64-0.09-1.29-0.14-1.96-0.14c-0.95,0-1.87,0.09-2.76,0.28
	c-0.03,0.01-0.06,0.01-0.09,0.02c-0.03,0.01-0.05,0.01-0.08,0.02c-0.7,0.16-1.38,0.38-2.04,0.65c-0.88,0.37-2.2,1.25-2.95,1.77
	c-0.25,0.17-0.59,0-0.59-0.31l0-1.2l0-3.34c0-0.03-0.01-0.06-0.01-0.09l0.01-6c-0.02-0.63-0.25-1.18-0.67-1.61
	c-0.04-0.04-0.08-0.07-0.12-0.11c-0.41-0.37-0.92-0.55-1.5-0.55c-0.56,0-1.06,0.18-1.47,0.54c-0.05,0.04-0.09,0.08-0.13,0.12
	c-0.44,0.44-0.67,0.98-0.69,1.63l-0.01,9.52L14,25.34c-0.01,0.08-0.01,0.15-0.01,0.23v1.37v4.77c0,2.4,0.6,4.62,1.77,6.59
	c0.77,1.29,1.72,2.42,2.84,3.37v-0.01c0.7,0.6,1.47,1.14,2.3,1.59c1.88,1.03,3.96,1.55,6.19,1.55c2.4,0,4.61-0.6,6.58-1.77
	c1.96-1.17,3.55-2.77,4.72-4.73c1.18-1.97,1.77-4.19,1.77-6.59c0-2.4-0.59-4.62-1.77-6.6C37.21,23.13,35.62,21.53,33.66,20.36
	 M34.47,35.98c-0.72,1.21-1.69,2.21-2.88,2.96c-0.08,0.05-0.16,0.1-0.24,0.15c-1.27,0.76-2.7,1.15-4.27,1.15
	c-2.15,0-4.02-0.71-5.58-2.12c-0.7-0.61-1.3-1.33-1.79-2.14c-0.76-1.28-1.15-2.72-1.15-4.28c0-1.56,0.39-3.01,1.15-4.29
	c0.53-0.89,1.19-1.66,1.97-2.31c1.52-1.29,3.33-1.94,5.4-1.94c0.49,0,0.97,0.04,1.43,0.11c1.02,0.16,1.98,0.51,2.87,1.04
	c1.28,0.77,2.32,1.81,3.09,3.1c0.76,1.29,1.15,2.73,1.15,4.29C35.62,33.27,35.23,34.71,34.47,35.98"/>
<path class="st0" d="M100.26,49.53c0.25-0.41,0.37-0.87,0.37-1.39c0-0.31-0.09-0.58-0.26-0.81c-0.09-0.12-0.19-0.23-0.32-0.33
	c-0.33-0.25-0.73-0.37-1.2-0.37c-0.59,0-1.13,0.18-1.62,0.55c-0.06,0.05-0.13,0.1-0.18,0.15c-0.42,0.38-0.63,0.83-0.63,1.35
	c0,0.27,0.08,0.51,0.24,0.71c0.16,0.21,0.39,0.31,0.67,0.31c0.22,0,0.41-0.07,0.56-0.22c0.16-0.16,0.24-0.34,0.24-0.56
	c0-0.19-0.05-0.34-0.14-0.46c-0.09-0.12-0.23-0.21-0.4-0.26c0.01-0.07,0.06-0.15,0.15-0.24c0.09-0.09,0.27-0.2,0.51-0.32
	c0.44-0.2,0.76-0.3,0.99-0.31h0.09c0.2,0.01,0.35,0.07,0.46,0.17c0.11,0.12,0.17,0.31,0.17,0.57c0,0.28-0.11,0.57-0.34,0.87
	c-0.05-0.03-0.11-0.05-0.17-0.06c-0.06-0.01-0.12-0.01-0.18-0.01c-0.22,0-0.4,0.08-0.54,0.24c-0.15,0.14-0.23,0.32-0.23,0.54
	c0,0.22,0.08,0.4,0.23,0.56c0.14,0.14,0.32,0.22,0.54,0.22c0.3,0,0.52-0.11,0.66-0.32c0.1,0.17,0.16,0.35,0.16,0.54
	c0,0.31-0.16,0.55-0.47,0.72c-0.27,0.16-0.59,0.24-0.95,0.24c-0.64,0-1.23-0.32-1.78-0.95c-0.55-0.63-1.05-1.63-1.5-2.98l-0.14-0.32
	l-0.28-0.66l0,0v-0.01h-0.34h-0.49l-0.45-0.01l-0.16-0.39l-0.45-0.34l-0.01,0.74h-0.52l-6.46-0.03c0,0,0.61,0.35,1.22,0.7
	c0.59,0.34,1.19,0.68,1.28,0.72c0.18,0.09,0.32,0.19,0.43,0.29l-1.64,1.6l0.7,0.88c0.35,0.01,0.68,0.07,0.98,0.18
	c0.3,0.1,0.58,0.27,0.86,0.49c0.58,0.44,0.96,0.98,1.15,1.6c0.06,0.05,0.12,0.09,0.18,0.13c0.05,0.03,0.1,0.06,0.16,0.08
	c0.05,0.02,0.1,0.03,0.14,0.03l0.01-6.01h0.16l0.36,0c0.19,0.02,0.47,0.08,0.68,0.28c0.09,0.09,0.17,0.2,0.22,0.34
	c0.02,0.04,0.04,0.07,0.05,0.1c0.02,0.06,0.03,0.17,0.04,0.32c0,0.04,0,0.08,0,0.13l-0.06,4.31c0.11,0.06,0.22,0.11,0.32,0.17
	c0.09,0.05,0.18,0.09,0.26,0.14c0.08,0.05,0.15,0.08,0.2,0.09v-0.5v-0.97c0-0.38,0-0.79,0-1.23c0-0.44,0-0.87,0-1.28v-1.12v-0.75
	l0.93,0.01c0.11,0.38,0.22,0.73,0.32,1.04c0.12,0.37,0.24,0.7,0.35,0.99c0.11,0.29,0.22,0.55,0.32,0.78c0.1,0.23,0.21,0.43,0.32,0.6
	c0.74,1.24,1.68,1.85,2.81,1.85c0.27,0,0.53-0.04,0.76-0.11c0.23-0.08,0.43-0.2,0.61-0.37c0.37-0.34,0.56-0.78,0.56-1.31
	C100.75,50.33,100.59,49.89,100.26,49.53 M90.83,47.32v4.25c-0.24-0.33-0.54-0.62-0.88-0.87c-0.35-0.25-0.75-0.47-1.21-0.66
	c0.23-0.24,0.46-0.47,0.68-0.7c0.23-0.22,0.47-0.44,0.72-0.67c-0.24-0.29-0.47-0.54-0.68-0.75c-0.21-0.22-0.42-0.42-0.64-0.61
	c0,0,0,0,0,0L90.83,47.32L90.83,47.32z"/>
<path class="st0" d="M83.67,47.32L83.67,47.32h1.5l-1.45-0.7h-0.05h-0.5h-4.63h-0.05H78.2h-0.15h-0.48h-2.84h-0.94h-7.13l0,0l-0.3,0
	c-0.14-0.18-0.21-0.37-0.21-0.57c0-0.17,0.06-0.33,0.17-0.49c0.11-0.16,0.29-0.31,0.54-0.45c0.44-0.25,0.87-0.37,1.28-0.37
	c0.47,0,0.97,0.13,1.49,0.38c0.52,0.25,1.1,0.67,1.75,1.26v-0.65c-0.61-0.62-1.21-1.09-1.8-1.4c-0.59-0.31-1.19-0.47-1.81-0.47
	c-0.26,0-0.52,0.04-0.79,0.13c-0.26,0.08-0.53,0.21-0.81,0.37c-0.31,0.19-0.54,0.4-0.71,0.62c-0.16,0.22-0.25,0.47-0.25,0.74
	c0,0.13,0.04,0.27,0.11,0.42c0.08,0.15,0.18,0.31,0.31,0.48h-1.47l1.07,0.71l0.58-0.01l-0.07,5.5l0.82,0.69c0-0.35,0-0.72-0.01-1.09
	c-0.01-0.32-0.01-0.68-0.01-1.07c0-0.39,0-0.78,0-1.16v-1.11c0-0.07,0-0.15,0-0.22l0,0v-1.55h0.27h0.48h2.18
	c-0.22,0.24-0.39,0.47-0.5,0.71c-0.11,0.24-0.17,0.49-0.17,0.74c0,0.39,0.14,0.75,0.41,1.07c0.28,0.33,0.62,0.5,1.02,0.5
	c0.1,0,0.21-0.01,0.33-0.03c0.12-0.02,0.25-0.06,0.39-0.11c0.12-0.05,0.21-0.09,0.27-0.12c0.06-0.03,0.1-0.04,0.11-0.04
	c0.03,0,0.07,0.02,0.1,0.05c0.04,0.04,0.05,0.12,0.05,0.26c0,0.24-0.13,0.44-0.38,0.59c-0.24,0.14-0.5,0.21-0.8,0.21
	c-0.33,0-0.62-0.08-0.88-0.25c-0.26-0.17-0.48-0.43-0.67-0.79c-0.14-0.26-0.25-0.56-0.35-0.9c-0.09-0.34-0.17-0.73-0.22-1.18
	l-0.65-0.6c0.03,0.37,0.06,0.71,0.1,1.02c0.04,0.31,0.09,0.59,0.15,0.85c0.06,0.25,0.12,0.49,0.19,0.71
	c0.07,0.22,0.15,0.42,0.23,0.61c0.25,0.54,0.55,0.95,0.92,1.24c0.36,0.28,0.79,0.42,1.29,0.42c0.5,0,0.92-0.16,1.25-0.47
	c0.32-0.32,0.48-0.73,0.48-1.23c0-0.18-0.03-0.35-0.08-0.51c-0.06-0.16-0.13-0.32-0.23-0.47c-0.1-0.14-0.22-0.26-0.36-0.36
	c-0.14-0.09-0.32-0.16-0.54-0.21c-0.19,0.17-0.37,0.29-0.55,0.36c-0.18,0.07-0.35,0.11-0.52,0.11c-0.1,0-0.18-0.04-0.24-0.12
	c-0.04-0.05-0.07-0.1-0.08-0.16c-0.01-0.05-0.02-0.11-0.02-0.17c0-0.19,0.07-0.39,0.22-0.59c0.14-0.21,0.38-0.42,0.7-0.64
	c0.07,0.19,0.16,0.36,0.28,0.5c0.12,0.14,0.29,0.27,0.49,0.37c0.19,0.1,0.39,0.18,0.61,0.22c0.22,0.04,0.46,0.06,0.71,0.06
	c0.07,0,0.14,0,0.22,0c0.07,0,0.14-0.01,0.22-0.02c-0.25,0.54-0.37,1.17-0.37,1.89c0,0.58,0.12,1.32,0.35,2.25l0.74,0.52
	c-0.08-0.24-0.14-0.46-0.2-0.66c-0.05-0.2-0.09-0.39-0.13-0.57c-0.03-0.18-0.06-0.35-0.07-0.51c-0.01-0.16-0.02-0.33-0.02-0.5
	c0-0.59,0.08-1.08,0.23-1.47c0.15-0.39,0.4-0.71,0.74-0.97l-0.94-1.07c-0.16,0.09-0.34,0.15-0.53,0.19
	c-0.19,0.03-0.42,0.05-0.68,0.05c-0.29,0-0.54-0.05-0.76-0.14c-0.13-0.06-0.23-0.12-0.28-0.2c-0.06-0.07-0.09-0.15-0.11-0.24
	c0.09-0.07,0.27-0.13,0.54-0.17c0.27-0.04,0.65-0.06,1.15-0.06h0.51c0.19,0,0.4,0.01,0.63,0.02c0.12,0.01,0.25,0.01,0.4,0.01
	c0.09,0,0.19,0,0.28,0.01l0.6,0.01h0.36h1c-0.37,0.33-0.67,0.7-0.91,1.13c-0.16,0.28-0.28,0.57-0.36,0.87
	c-0.08,0.3-0.11,0.6-0.11,0.92c0,0.81,0.16,1.5,0.48,2.06c0.41,0.7,1,1.05,1.79,1.05c0.27,0,0.52-0.09,0.74-0.26
	c0.12-0.09,0.21-0.2,0.26-0.32c0.06-0.12,0.09-0.25,0.09-0.39c0-0.27-0.07-0.49-0.2-0.63c-0.13-0.15-0.33-0.22-0.59-0.22
	c-0.2,0-0.38,0.07-0.52,0.21c-0.07,0.07-0.13,0.14-0.18,0.23c-0.05,0.09-0.07,0.18-0.07,0.28c0,0.2,0.05,0.36,0.15,0.48
	c-0.37-0.02-0.65-0.21-0.84-0.58c-0.2-0.37-0.29-0.95-0.29-1.76c0-0.8,0.25-1.49,0.76-2.09c0.14-0.16,0.3-0.3,0.48-0.43
	c0.18-0.13,0.37-0.24,0.56-0.33c0.19-0.09,0.39-0.16,0.59-0.21l0.02,0c0.23,0.87,0.43,1.57,0.61,2.11c0.19,0.56,0.37,1,0.55,1.32
	c0.33,0.61,0.72,1.07,1.16,1.38c0.44,0.31,0.93,0.47,1.49,0.47c0.65,0,1.19-0.24,1.62-0.72c0.22-0.24,0.38-0.5,0.49-0.77
	c0.11-0.27,0.17-0.58,0.17-0.9c0-0.35-0.05-0.66-0.14-0.95c-0.09-0.29-0.23-0.55-0.41-0.77c-0.41-0.52-0.95-0.77-1.65-0.77
	c-0.4,0-0.75,0.11-1.05,0.34c-0.33,0.25-0.5,0.58-0.5,1c0,0.27,0.1,0.51,0.3,0.73c0.2,0.21,0.44,0.31,0.73,0.31
	c0.26,0,0.48-0.09,0.66-0.26c0.19-0.18,0.28-0.39,0.28-0.65c0-0.09-0.02-0.19-0.07-0.29c-0.05-0.1-0.12-0.21-0.21-0.32
	c0.05-0.02,0.1-0.03,0.16-0.03c0.37,0,0.67,0.14,0.88,0.43c0.21,0.26,0.31,0.59,0.31,1c0,0.46-0.16,0.83-0.47,1.11
	c-0.31,0.29-0.7,0.44-1.15,0.44c-0.41,0-0.78-0.1-1.12-0.3c-0.33-0.2-0.64-0.52-0.91-0.95c-0.17-0.27-0.34-0.62-0.5-1.03
	c-0.15-0.37-0.29-0.81-0.43-1.32l-0.16-0.59h4.3H83.67z"/>
</svg>
