<?xml version="1.0" encoding="utf-8"?>
<!-- Generator: Adobe Illustrator 16.0.3, SVG Export Plug-In . SVG Version: 6.00 Build 0)  -->
<!DOCTYPE svg PUBLIC "-//W3C//DTD SVG 1.1//EN" "http://www.w3.org/Graphics/SVG/1.1/DTD/svg11.dtd">
<svg version="1.1" id="Layer_1" xmlns="http://www.w3.org/2000/svg" xmlns:xlink="http://www.w3.org/1999/xlink" x="0px" y="0px"
	 width="453.167px" height="303.5px" viewBox="0 0 453.167 303.5" enable-background="new 0 0 453.167 303.5" xml:space="preserve">
<path fill="#F9F9F9" d="M140.671,21.487C155.689,8.119,179.259,5.381,200.72,6.445c67.396,3.352,128.232,35.886,180.859,72.692
	c19.053,13.322,37.811,27.68,50.178,46.032c25.191,37.351,17.705,89.095-17.299,119.862c-11.912,10.469-26.35,18.51-41.17,25.607
	c-26.352,12.648-54.791,22.809-84.701,25.709c-21.326,2.062-42.922,0.387-64.127-2.49c-59.245-8.051-117.389-25.82-166.143-56.213
	c-21.376-13.33-41.526-29.905-50.337-51.468c-8.809-21.555-3.172-48.901,18.658-61.694c9.026-5.278,19.823-7.663,30.39-9.909
	c15.56-3.294,31.361-6.544,45.4-13.238c14.503-6.922,31.667-20.304,28.789-35.628C128.148,49.293,125.672,34.856,140.671,21.487z"/>
<polygon opacity="0.7" fill="#E5E5E5" enable-background="new    " points="254.082,119.172 153.378,134.796 196.583,161.332 
	253.121,151.975 "/>
<path opacity="0.7" fill="#E5E5E5" enable-background="new    " d="M213.633,183.998c-0.204,0-0.401-0.092-0.531-0.254
	l-15.971-19.764v78.959l102.807-15.91l-1.629-58.23l-84.554,15.188C213.712,183.996,213.674,183.998,213.633,183.998z"/>
<path opacity="0.15" fill="#E5E5E5" enable-background="new    " d="M180.501,179.566c-0.124,0-0.249-0.032-0.359-0.1
	l-28.021-17.253v54.022l43.643,26.289v-78.763l-14.766,15.591C180.863,179.494,180.682,179.566,180.501,179.566z"/>
<polygon opacity="0.1" fill="#EFEFEF" enable-background="new    " points="195.097,162.021 151.548,135.276 136.395,150.928 
	152.447,160.809 153.179,161.259 180.384,178.008 195.37,162.189 "/>
<polygon opacity="0.1" fill="#EFEFEF" enable-background="new    " points="253.453,117.886 237.248,99.439 137.251,115.93 
	151.72,133.671 "/>
<path opacity="0.1" fill="#EFEFEF" enable-background="new    " d="M298.234,144.51c0.057-0.008,0.109,0.011,0.164,0.016
	l16.682-14.625l-43.718-26.488l-15.467,14.842l9.964,6.203l32.249,20.073L298.234,144.51z"/>
<polygon fill="#F7F7F7" points="296.061,144.87 255.435,119.58 254.5,151.749 "/>
<path opacity="0.1" fill="#EFEFEF" enable-background="new    " d="M299.074,147.006l-0.709-0.777l-0.039-0.044l-0.646,0.107
	l-43.792,7.347c-0.033,0.006-0.073,0.01-0.113,0.01c-0.15,0-0.295-0.063-0.419-0.158l-55.638,9.045l16.191,20.035l84.361-15.153
	l0.683-0.122l0.678-0.122l15.262-2.741L299.074,147.006z"/>
<polygon fill="none" points="153.179,161.259 180.384,178.008 195.37,162.189 195.097,162.021 151.548,135.276 136.395,150.928 
	152.447,160.809 "/>
<polygon fill="none" points="254.082,119.172 153.378,134.796 196.583,161.332 253.121,151.975 "/>
<path fill="none" d="M180.501,179.566c-0.124,0-0.249-0.032-0.359-0.1l-28.021-17.253v54.022l43.643,26.289v-78.763l-14.766,15.591
	C180.863,179.494,180.682,179.566,180.501,179.566z"/>
<polygon fill="none" points="253.453,117.886 237.248,99.439 137.251,115.93 151.72,133.671 "/>
<path fill="none" d="M298.108,144.531l0.126-0.021c0.057-0.008,0.109,0.011,0.164,0.016l16.682-14.625l-43.718-26.488
	l-15.467,14.842l9.964,6.203L298.108,144.531z"/>
<polygon fill="none" points="255.435,119.58 254.5,151.749 296.061,144.87 "/>
<path fill="none" d="M213.755,183.986c-0.043,0.01-0.081,0.012-0.122,0.012c-0.204,0-0.401-0.092-0.531-0.254l-15.971-19.762v78.957
	l102.807-15.91l-1.629-58.23L213.755,183.986z"/>
<path opacity="0.5" fill="#808080" stroke="#808080" stroke-width="0.65" stroke-miterlimit="10" enable-background="new    " d="
	M299.468,145.409l17.213-15.094c0.164-0.145,0.248-0.357,0.23-0.576c-0.02-0.217-0.141-0.412-0.326-0.524l-44.967-27.244
	c-0.262-0.162-0.603-0.124-0.826,0.091l-15.965,15.32L238.025,98.25c-0.154-0.179-0.388-0.26-0.626-0.225l-101.538,16.746
	c-0.242,0.04-0.441,0.204-0.526,0.432c-0.088,0.228-0.046,0.487,0.107,0.675l15.078,18.489l-15.703,16.219
	c-0.145,0.149-0.214,0.354-0.186,0.562c0.025,0.205,0.143,0.389,0.32,0.497l15.799,9.729v55.252c0,0.241,0.125,0.463,0.331,0.586
	l45.008,27.113c0.108,0.065,0.232,0.099,0.354,0.099c0.036,0,0.068-0.002,0.104-0.009l104.192-16.125
	c0.341-0.054,0.591-0.351,0.581-0.697l-1.648-59.036l16.678-2.998c0.248-0.043,0.445-0.217,0.529-0.451
	c0.078-0.234,0.025-0.496-0.145-0.682L299.468,145.409z M271.362,103.413l43.718,26.488l-16.682,14.625
	c-0.055-0.005-0.107-0.023-0.164-0.016l-0.126,0.021l-32.247-20.073l-9.966-6.203L271.362,103.413z M255.435,119.58l40.626,25.29
	l-41.563,6.879L255.435,119.58z M137.251,115.93l99.997-16.491l16.205,18.447L151.72,133.671L137.251,115.93z M136.395,150.928
	l15.151-15.652l43.551,26.746l0.271,0.168l-14.986,15.818l-27.206-16.749l-0.731-0.45L136.395,150.928z M195.761,242.527
	l-43.642-26.289v-54.023l28.021,17.253c0.11,0.066,0.234,0.101,0.359,0.101c0.181,0,0.363-0.073,0.496-0.213l14.766-15.59V242.527z
	 M153.378,134.796l100.702-15.625l-0.961,32.803l-56.535,9.356L153.378,134.796z M299.937,227.029l-102.807,15.91V163.98
	l15.971,19.764c0.131,0.162,0.327,0.254,0.531,0.254c0.041,0,0.08-0.002,0.122-0.012l84.555-15.189L299.937,227.029z
	 M299.634,167.171l-0.68,0.123l-0.683,0.121l-84.361,15.153l-16.191-20.035l55.638-9.045h0.003l44.967-7.305l0.041,0.043
	l0.705,0.777l15.822,17.425L299.634,167.171z"/>
<path fill="#CCCCCC" d="M309.601,99.116l-1.568-0.228l-0.705-1.423c-0.25-0.51-1.082-0.51-1.336,0l-0.705,1.423l-1.568,0.228
	c-0.279,0.042-0.516,0.238-0.602,0.507c-0.087,0.271-0.016,0.566,0.189,0.763l1.137,1.107l-0.271,1.566
	c-0.047,0.279,0.068,0.561,0.297,0.728s0.535,0.189,0.783,0.057l1.408-0.739l1.406,0.739c0.26,0.136,0.563,0.104,0.781-0.057
	c0.23-0.166,0.346-0.449,0.299-0.728l-0.27-1.566l1.133-1.107c0.205-0.198,0.279-0.492,0.191-0.763
	C310.119,99.354,309.88,99.158,309.601,99.116z"/>
<path fill="#CCCCCC" d="M227.484,73.302l-1.541-0.223l-0.689-1.396c-0.243-0.5-1.063-0.5-1.309,0l-0.689,1.396l-1.538,0.223
	c-0.277,0.041-0.504,0.233-0.589,0.497c-0.084,0.266-0.016,0.555,0.186,0.749l1.114,1.086l-0.266,1.535
	c-0.046,0.273,0.067,0.549,0.289,0.713c0.227,0.165,0.526,0.186,0.771,0.057l1.381-0.726l1.378,0.726
	c0.255,0.134,0.552,0.102,0.768-0.057c0.227-0.161,0.337-0.44,0.292-0.713l-0.264-1.535l1.113-1.086
	c0.2-0.194,0.271-0.483,0.187-0.749C227.989,73.535,227.755,73.343,227.484,73.302z"/>
<path fill="#CCCCCC" d="M151.105,101.181l-1.161-0.168l-0.521-1.052c-0.183-0.377-0.8-0.377-0.986,0l-0.521,1.052l-1.159,0.168
	c-0.208,0.031-0.379,0.176-0.444,0.375c-0.065,0.201-0.012,0.418,0.14,0.563l0.839,0.819l-0.2,1.157
	c-0.034,0.207,0.051,0.414,0.219,0.537c0.17,0.125,0.396,0.141,0.58,0.044l1.04-0.547l1.037,0.547c0.192,0.1,0.416,0.076,0.58-0.044
	c0.17-0.122,0.254-0.331,0.221-0.537l-0.2-1.157l0.839-0.819c0.152-0.146,0.205-0.363,0.14-0.563
	C151.485,101.357,151.311,101.211,151.105,101.181z"/>
<path fill="#CCCCCC" d="M301.701,89.459c-0.18-0.305-0.43-0.554-0.738-0.735c-0.305-0.182-0.648-0.277-1.022-0.277
	c-0.373,0-0.72,0.092-1.028,0.277c-0.305,0.181-0.558,0.43-0.738,0.735c-0.18,0.307-0.273,0.653-0.273,1.029
	c0,0.375,0.094,0.718,0.273,1.027c0.182,0.305,0.435,0.554,0.738,0.736c0.31,0.182,0.655,0.276,1.028,0.276
	c0.374,0,0.72-0.093,1.022-0.276c0.31-0.182,0.56-0.43,0.738-0.736c0.182-0.308,0.275-0.652,0.275-1.027
	C301.976,90.112,301.882,89.766,301.701,89.459z M301.083,91.153c-0.119,0.201-0.28,0.362-0.479,0.48
	c-0.196,0.119-0.421,0.18-0.665,0.18s-0.471-0.061-0.671-0.18c-0.197-0.119-0.36-0.28-0.479-0.48
	c-0.119-0.198-0.179-0.422-0.179-0.666c0-0.243,0.06-0.468,0.179-0.667c0.121-0.202,0.281-0.362,0.479-0.481
	c0.2-0.119,0.427-0.179,0.671-0.179s0.469,0.06,0.665,0.179c0.199,0.12,0.362,0.28,0.479,0.481c0.121,0.201,0.18,0.425,0.18,0.667
	C301.265,90.73,301.205,90.955,301.083,91.153z"/>
<path fill="#CCCCCC" d="M237.194,79.036c-0.182-0.306-0.43-0.554-0.737-0.737c-0.307-0.182-0.651-0.276-1.023-0.276
	c-0.374,0-0.721,0.092-1.03,0.276c-0.305,0.182-0.556,0.43-0.735,0.737c-0.183,0.307-0.274,0.653-0.274,1.028
	c0,0.374,0.092,0.719,0.274,1.027c0.181,0.305,0.432,0.554,0.735,0.735c0.312,0.183,0.656,0.277,1.03,0.277
	c0.372,0,0.718-0.093,1.023-0.277c0.309-0.181,0.557-0.43,0.737-0.735c0.181-0.307,0.274-0.653,0.274-1.027
	C237.468,79.689,237.376,79.342,237.194,79.036z M236.578,80.729c-0.119,0.2-0.279,0.361-0.479,0.48
	c-0.198,0.118-0.421,0.18-0.666,0.18c-0.243,0-0.471-0.062-0.67-0.18c-0.198-0.12-0.361-0.28-0.479-0.48
	c-0.121-0.198-0.181-0.423-0.181-0.666c0-0.242,0.06-0.467,0.181-0.667c0.117-0.202,0.279-0.362,0.479-0.482
	c0.199-0.119,0.427-0.18,0.67-0.18c0.245,0,0.468,0.061,0.666,0.18c0.199,0.12,0.359,0.28,0.479,0.482
	c0.121,0.2,0.18,0.426,0.18,0.667C236.757,80.307,236.697,80.531,236.578,80.729z"/>
<path fill="#CCCCCC" d="M157.038,89.459c-0.181-0.305-0.43-0.554-0.738-0.735c-0.306-0.182-0.651-0.277-1.024-0.277
	c-0.374,0-0.72,0.092-1.029,0.277c-0.306,0.181-0.557,0.43-0.739,0.735c-0.182,0.307-0.274,0.653-0.274,1.029
	c0,0.375,0.091,0.718,0.274,1.027c0.182,0.305,0.432,0.554,0.739,0.736c0.308,0.182,0.655,0.276,1.029,0.276
	c0.373,0,0.717-0.093,1.024-0.276c0.308-0.182,0.557-0.43,0.738-0.736c0.182-0.308,0.274-0.652,0.274-1.027
	C157.312,90.112,157.22,89.766,157.038,89.459z M156.422,91.153c-0.119,0.201-0.28,0.362-0.48,0.48
	c-0.198,0.119-0.421,0.18-0.664,0.18c-0.244,0-0.47-0.061-0.67-0.18c-0.2-0.119-0.361-0.28-0.48-0.48
	c-0.12-0.198-0.179-0.422-0.179-0.666c0-0.243,0.059-0.468,0.179-0.667c0.12-0.202,0.28-0.362,0.48-0.481
	c0.201-0.119,0.426-0.179,0.67-0.179c0.244,0,0.467,0.06,0.664,0.179c0.2,0.12,0.361,0.28,0.48,0.481
	c0.12,0.201,0.179,0.425,0.179,0.667C156.601,90.73,156.542,90.955,156.422,91.153z"/>
<circle fill="#CCCCCC" cx="297.901" cy="107.07" r="0.643"/>
<circle fill="#CCCCCC" cx="225.77" cy="89.65" r="0.642"/>
<circle fill="#CCCCCC" cx="157.312" cy="102.805" r="0.642"/>
<g>
	<path fill="#4D8BBF" d="M202.883,71.364l-39.754,18.009c-1.88,0.85-2.712,3.062-1.863,4.941l20.27,44.754
		c0.701,1.551,2.109,2.646,3.777,2.963l24.947,4.674c1.824,0.34,3.684-0.502,4.629-2.096l12.943-21.834
		c0.864-1.461,0.964-3.246,0.257-4.791l-20.267-44.756C206.971,71.347,204.762,70.515,202.883,71.364z"/>
	<path fill="#80C380" d="M248.673,71.369l39.742,18.035c1.879,0.852,2.708,3.063,1.859,4.941l-20.303,44.74
		c-0.711,1.554-2.115,2.646-3.779,2.957l-24.955,4.66c-1.818,0.336-3.676-0.504-4.623-2.098l-12.922-21.849
		c-0.869-1.464-0.969-3.244-0.261-4.793l20.298-44.738C244.585,71.344,246.792,70.515,248.673,71.369z"/>
	<path fill="#FFFFFF" d="M209.576,99.781c-0.739-0.482-1.559-0.767-2.439-0.84c-0.882-0.074-1.751,0.093-2.582,0.498
		c-0.832,0.406-1.5,0.986-1.988,1.729c-0.488,0.74-0.772,1.563-0.846,2.442c-0.074,0.882,0.095,1.753,0.503,2.592
		c0.405,0.83,0.986,1.496,1.727,1.983c0.738,0.483,1.561,0.766,2.444,0.837c0.884,0.072,1.755-0.096,2.586-0.5
		c0.83-0.405,1.498-0.987,1.982-1.728c0.484-0.739,0.767-1.56,0.841-2.438c0.074-0.883-0.095-1.75-0.5-2.582
		C210.899,100.938,210.317,100.268,209.576,99.781 M210.045,104.224c-0.05,0.575-0.233,1.109-0.549,1.592
		c-0.101,0.155-0.216,0.299-0.342,0.432c-0.071,0.077-0.196,0.06-0.243-0.035l-0.708-1.406c-0.092-0.188-0.096-0.408-0.015-0.602
		c0.171-0.407,0.172-0.885-0.037-1.314c-0.391-0.804-1.367-1.13-2.166-0.718c-0.772,0.398-1.082,1.358-0.691,2.134
		c0.212,0.42,0.587,0.707,1.011,0.821c0.201,0.053,0.367,0.193,0.458,0.38l0.712,1.504c0.04,0.086-0.012,0.188-0.104,0.206
		c-0.278,0.053-0.56,0.068-0.844,0.046c-0.576-0.049-1.113-0.231-1.594-0.546c-0.48-0.313-0.858-0.748-1.122-1.288
		c-0.264-0.543-0.374-1.107-0.326-1.684c0.047-0.574,0.232-1.111,0.55-1.596c0.316-0.48,0.751-0.859,1.293-1.123
		c0.541-0.264,1.104-0.372,1.676-0.324c0.573,0.048,1.109,0.234,1.592,0.553c0.481,0.316,0.859,0.751,1.124,1.293
		C209.985,103.088,210.094,103.653,210.045,104.224"/>
	<path fill="#FFFFFF" d="M198.91,100.694l-0.81-1.662c-0.114-0.216-0.283-0.367-0.504-0.446c-0.224-0.079-0.451-0.065-0.673,0.044
		c-0.216,0.106-0.365,0.272-0.443,0.499c-0.078,0.225-0.066,0.453,0.036,0.68l1.913,3.934l0,0.001
		c-0.515-0.133-1.052-0.184-1.599-0.152c-0.359,0.019-0.716,0.08-1.066,0.182c-0.274,0.081-0.544,0.188-0.812,0.316
		c-0.83,0.405-1.499,0.986-1.987,1.729c-0.488,0.74-0.771,1.561-0.846,2.442c-0.074,0.881,0.096,1.752,0.504,2.588
		c0.405,0.832,0.986,1.5,1.726,1.984c0.739,0.484,1.561,0.767,2.444,0.839c0.884,0.073,1.755-0.095,2.586-0.499
		c0.317-0.156,0.61-0.337,0.879-0.542c0.385-0.296,0.718-0.644,0.997-1.04c0.213-0.302,0.389-0.619,0.53-0.948l0.005,0.01
		c0.226-0.52,0.365-1.068,0.414-1.646c0.072-0.866-0.089-1.723-0.479-2.539c-0.007-0.016-0.014-0.03-0.021-0.042
		c-0.007-0.016-0.014-0.028-0.021-0.044l-0.787-1.611c-0.012-0.027-0.027-0.051-0.041-0.073l-1.883-3.895
		C198.955,100.763,198.932,100.729,198.91,100.694 M200.443,108.872c-0.046,0.548-0.216,1.059-0.505,1.524
		c-0.316,0.515-0.766,0.919-1.347,1.201c-0.542,0.264-1.108,0.373-1.683,0.321c-0.578-0.049-1.116-0.235-1.598-0.552
		c-0.48-0.312-0.857-0.745-1.121-1.286c-0.264-0.541-0.375-1.106-0.326-1.682c0.046-0.574,0.231-1.112,0.549-1.597
		c0.317-0.481,0.752-0.859,1.293-1.123c0.75-0.366,1.522-0.44,2.298-0.224c0.35,0.094,0.681,0.242,0.992,0.446
		c0.481,0.317,0.86,0.752,1.124,1.293C200.383,107.736,200.492,108.302,200.443,108.872"/>
	<path fill="#FFFFFF" d="M196.482,107.206c-0.792,0.385-1.12,1.34-0.734,2.132c0.386,0.79,1.339,1.12,2.131,0.734
		c0.792-0.387,1.121-1.342,0.735-2.132C198.229,107.149,197.274,106.819,196.482,107.206"/>
	<path fill="#FFFFFF" d="M184.654,113.033c-0.791,0.385-1.12,1.339-0.734,2.131c0.387,0.791,1.34,1.12,2.131,0.734
		c0.792-0.387,1.12-1.342,0.734-2.132C186.4,112.976,185.446,112.646,184.654,113.033"/>
	<path fill="#FFFFFF" d="M187.279,103.487c-1.049,0.499-1.499,1.766-0.999,2.813c0.314,0.657,0.922,1.075,1.589,1.177
		c0.237,0.036,0.442,0.181,0.547,0.397l0.903,1.857c0.01,0.029,0.021,0.059,0.035,0.087l0.23,0.474l2.611,5.357l0.02,0.04
		c0,0,0.001,0.002,0.001,0.002c0,0.002,0,0.003,0,0.003l0.034,0.068l0.002,0.005l0.106,0.218c0.002,0.005,0.005,0.01,0.007,0.016
		c0.002,0.005,0.004,0.009,0.006,0.014c0.072,0.139,0.171,0.252,0.297,0.333c0.13,0.087,0.275,0.136,0.429,0.147
		c0.156,0.014,0.308-0.016,0.455-0.088c0.146-0.07,0.264-0.174,0.349-0.304c0.085-0.128,0.135-0.274,0.147-0.429
		c0.013-0.153-0.016-0.307-0.087-0.453l-0.114-0.236l-0.057-0.115l-2.611-5.356l-0.23-0.475c-0.014-0.025-0.028-0.05-0.043-0.074
		L190,107.099c-0.103-0.212-0.097-0.462,0.019-0.666c0.331-0.585,0.378-1.315,0.062-1.963
		C189.573,103.427,188.323,102.992,187.279,103.487 M189.029,105.2c0.089,0.384-0.094,0.794-0.464,0.973
		c-0.363,0.178-0.788,0.077-1.04-0.217c-0.047-0.055-0.087-0.115-0.121-0.183c-0.209-0.431-0.031-0.95,0.4-1.16
		c0.431-0.209,0.95-0.031,1.16,0.399C188.995,105.075,189.016,105.137,189.029,105.2"/>
	<path fill="#FFFFFF" d="M185.704,109.352c-0.632-0.054-1.258,0.017-1.868,0.211c-0.236,0.076-0.47,0.17-0.702,0.283
		c-0.329,0.161-0.632,0.35-0.909,0.563c-0.009,0.009-0.018,0.016-0.027,0.021c-0.008,0.007-0.016,0.013-0.024,0.019
		c-0.217,0.176-0.416,0.365-0.597,0.572c-0.244,0.277-0.552,0.805-0.725,1.114c-0.056,0.1-0.204,0.097-0.255-0.009l-0.204-0.414
		l-0.563-1.16c-0.005-0.01-0.012-0.021-0.017-0.03l-1.012-2.082c-0.114-0.215-0.284-0.366-0.505-0.444
		c-0.02-0.007-0.038-0.012-0.058-0.02c-0.205-0.057-0.412-0.035-0.614,0.063c-0.195,0.095-0.335,0.241-0.418,0.435
		c-0.01,0.021-0.018,0.042-0.026,0.064c-0.077,0.227-0.065,0.453,0.037,0.681l1.605,3.3l0.915,1.88
		c0.009,0.028,0.021,0.056,0.033,0.082l0.231,0.475l0.805,1.653c0.405,0.831,0.986,1.498,1.727,1.983
		c0.483,0.316,1.003,0.547,1.553,0.688l-0.002-0.005c0.344,0.09,0.701,0.145,1.065,0.163c0.824,0.04,1.634-0.132,2.406-0.508
		c0.831-0.404,1.497-0.984,1.979-1.723c0.481-0.738,0.763-1.56,0.836-2.438c0.074-0.881-0.094-1.75-0.499-2.582
		c-0.406-0.831-0.987-1.499-1.728-1.987C187.402,109.712,186.581,109.427,185.704,109.352 M188.625,114.63
		c-0.046,0.543-0.213,1.05-0.498,1.51c-0.019,0.033-0.038,0.063-0.058,0.094c-0.311,0.479-0.743,0.855-1.284,1.119
		c-0.744,0.362-1.515,0.433-2.292,0.209c-0.346-0.094-0.674-0.238-0.98-0.439c-0.48-0.313-0.857-0.746-1.121-1.289
		c-0.264-0.539-0.374-1.106-0.327-1.683c0.033-0.396,0.131-0.775,0.293-1.131c0.308-0.702,0.824-1.235,1.542-1.586
		c0.17-0.082,0.341-0.148,0.516-0.201c0.383-0.115,0.774-0.158,1.169-0.124c0.573,0.049,1.108,0.234,1.592,0.551
		c0.481,0.317,0.86,0.754,1.124,1.293C188.564,113.494,188.673,114.058,188.625,114.63"/>
	<path fill="#FFFFFF" d="M213.856,108.505c0.017-0.18-0.019-0.362-0.106-0.544c-0.053-0.105-0.127-0.187-0.226-0.237
		c-0.05-0.026-0.105-0.046-0.167-0.06c-0.157-0.029-0.316-0.005-0.478,0.073c-0.206,0.101-0.361,0.256-0.467,0.465
		c-0.015,0.026-0.027,0.055-0.038,0.081c-0.083,0.202-0.08,0.394,0.009,0.576c0.046,0.094,0.113,0.163,0.201,0.203
		c0.091,0.046,0.186,0.043,0.284-0.003c0.077-0.038,0.128-0.094,0.157-0.17c0.027-0.08,0.023-0.158-0.013-0.233
		c-0.032-0.065-0.074-0.11-0.126-0.135c-0.053-0.024-0.114-0.033-0.182-0.024c-0.01-0.024-0.005-0.059,0.011-0.109
		c0.018-0.049,0.059-0.115,0.125-0.196c0.118-0.143,0.214-0.234,0.29-0.276l0.031-0.015c0.071-0.03,0.134-0.037,0.188-0.016
		c0.06,0.021,0.112,0.076,0.156,0.166c0.047,0.098,0.057,0.219,0.028,0.362c-0.024-0.003-0.046-0.002-0.068,0.005
		s-0.044,0.015-0.064,0.025c-0.074,0.036-0.123,0.094-0.147,0.173c-0.027,0.075-0.023,0.149,0.014,0.225
		c0.036,0.073,0.094,0.127,0.171,0.155c0.075,0.025,0.149,0.02,0.224-0.016c0.104-0.052,0.163-0.126,0.173-0.224
		c0.065,0.042,0.113,0.096,0.146,0.161c0.053,0.107,0.04,0.217-0.042,0.326c-0.066,0.1-0.163,0.181-0.29,0.242
		c-0.221,0.108-0.48,0.099-0.776-0.029s-0.638-0.387-1.024-0.777l-0.103-0.089l-0.208-0.181l0,0l0-0.002l-0.118,0.057l-0.169,0.083
		l-0.158,0.074l-0.12-0.109l-0.215-0.043l0.124,0.258l-0.18,0.087l-2.242,1.08c0,0,0.267,0.018,0.541,0.035
		c0.262,0.017,0.527,0.034,0.565,0.035c0.077,0.003,0.142,0.011,0.199,0.028l-0.297,0.83l0.391,0.188
		c0.124-0.055,0.247-0.09,0.368-0.104c0.121-0.014,0.248-0.005,0.38,0.025c0.274,0.058,0.497,0.178,0.667,0.36
		c0.029,0.008,0.058,0.013,0.083,0.016c0.023,0.003,0.046,0.003,0.067,0.003c0.022-0.003,0.041-0.006,0.054-0.014l-1.011-2.083
		l0.055-0.026l0.126-0.06c0.07-0.027,0.176-0.051,0.283-0.018c0.046,0.015,0.092,0.04,0.135,0.082
		c0.014,0.01,0.026,0.018,0.034,0.027c0.017,0.016,0.04,0.051,0.068,0.106c0.006,0.012,0.014,0.027,0.022,0.042l0.707,1.506
		c0.049,0.002,0.096,0.003,0.141,0.004c0.04,0,0.078,0.001,0.115,0.003c0.038,0.001,0.064,0,0.083-0.003l-0.084-0.174l-0.163-0.336
		c-0.065-0.131-0.135-0.274-0.21-0.426c-0.076-0.152-0.148-0.3-0.218-0.443l-0.189-0.39l-0.127-0.258l0.323-0.155
		c0.104,0.113,0.199,0.215,0.288,0.309c0.104,0.104,0.199,0.2,0.287,0.283s0.17,0.154,0.245,0.216
		c0.073,0.061,0.145,0.11,0.213,0.153c0.465,0.305,0.894,0.359,1.288,0.166c0.095-0.046,0.176-0.101,0.243-0.166
		c0.066-0.064,0.116-0.141,0.148-0.23c0.072-0.179,0.062-0.363-0.028-0.548C214.163,108.701,214.031,108.578,213.856,108.505
		 M210.216,109.337l0.718,1.472c-0.14-0.073-0.292-0.125-0.454-0.152c-0.162-0.029-0.338-0.035-0.528-0.023
		c0.039-0.124,0.078-0.242,0.118-0.356c0.042-0.115,0.086-0.233,0.136-0.353c-0.131-0.06-0.252-0.108-0.361-0.147
		c-0.108-0.04-0.217-0.073-0.326-0.1c0,0,0-0.002,0-0.002L210.216,109.337L210.216,109.337z"/>
	<path fill="#FFFFFF" d="M207.735,110.545L207.735,110.545l0.519-0.254l-0.621,0.005l-0.016,0.008l-0.173,0.084l-1.603,0.782
		l-0.018,0.008l-0.101,0.05l-0.054,0.025l-0.167,0.083l-0.985,0.479l-0.326,0.158l-2.47,1.204l0.001,0.001l-0.103,0.049
		c-0.078-0.038-0.134-0.093-0.167-0.163c-0.029-0.059-0.037-0.124-0.026-0.196c0.012-0.073,0.05-0.155,0.111-0.248
		c0.111-0.162,0.239-0.277,0.382-0.346c0.163-0.079,0.356-0.119,0.578-0.121c0.222,0,0.496,0.047,0.819,0.142l-0.109-0.224
		c-0.315-0.112-0.602-0.173-0.859-0.181c-0.257-0.009-0.493,0.04-0.706,0.144c-0.09,0.045-0.174,0.103-0.251,0.178
		c-0.078,0.073-0.15,0.163-0.218,0.266c-0.075,0.118-0.121,0.23-0.14,0.334c-0.02,0.104-0.007,0.202,0.039,0.295
		c0.021,0.046,0.058,0.088,0.11,0.128c0.051,0.039,0.115,0.078,0.189,0.114l-0.51,0.248l0.491,0.064l0.2-0.103l0.905,1.917
		l0.401,0.098c-0.059-0.121-0.122-0.247-0.187-0.375c-0.057-0.11-0.118-0.231-0.186-0.366c-0.068-0.137-0.133-0.271-0.197-0.402
		l-0.188-0.382c-0.012-0.027-0.025-0.051-0.037-0.075l0,0l-0.262-0.537l0.093-0.045l0.166-0.08l0.754-0.369
		c-0.038,0.119-0.055,0.23-0.054,0.331c0.001,0.103,0.024,0.197,0.068,0.286c0.066,0.134,0.173,0.235,0.323,0.299
		c0.154,0.069,0.299,0.07,0.438,0.002c0.034-0.018,0.07-0.04,0.108-0.067c0.038-0.027,0.076-0.063,0.114-0.105
		c0.032-0.038,0.057-0.067,0.074-0.087c0.017-0.021,0.027-0.032,0.031-0.035c0.011-0.005,0.026-0.005,0.044,0.002
		s0.04,0.033,0.063,0.081c0.041,0.084,0.03,0.173-0.033,0.268c-0.059,0.088-0.141,0.157-0.244,0.208
		c-0.113,0.054-0.229,0.074-0.348,0.059c-0.118-0.015-0.24-0.068-0.366-0.161c-0.092-0.067-0.182-0.15-0.272-0.251
		c-0.089-0.101-0.182-0.227-0.275-0.373l-0.326-0.099c0.072,0.126,0.142,0.237,0.209,0.339c0.067,0.1,0.131,0.19,0.193,0.269
		c0.063,0.079,0.124,0.15,0.185,0.213c0.061,0.063,0.121,0.121,0.183,0.171c0.178,0.147,0.353,0.238,0.526,0.273
		c0.173,0.037,0.345,0.013,0.518-0.07c0.174-0.085,0.292-0.211,0.352-0.374c0.057-0.165,0.043-0.333-0.041-0.506
		c-0.031-0.063-0.069-0.119-0.116-0.164c-0.045-0.046-0.099-0.086-0.158-0.123c-0.058-0.033-0.12-0.053-0.185-0.063
		c-0.067-0.009-0.141-0.004-0.224,0.02c-0.036,0.09-0.079,0.163-0.128,0.218c-0.049,0.054-0.103,0.097-0.162,0.125
		c-0.034,0.017-0.067,0.017-0.101-0.002c-0.022-0.011-0.04-0.024-0.053-0.039c-0.014-0.017-0.025-0.035-0.035-0.056
		c-0.032-0.065-0.041-0.147-0.026-0.241c0.015-0.097,0.06-0.211,0.133-0.341c0.055,0.055,0.116,0.098,0.183,0.125
		c0.067,0.028,0.145,0.044,0.233,0.047c0.083,0.003,0.166-0.004,0.249-0.027c0.083-0.021,0.169-0.055,0.258-0.097
		c0.024-0.014,0.049-0.026,0.073-0.039c0.024-0.015,0.048-0.029,0.071-0.045c0.004,0.227,0.069,0.467,0.191,0.719
		c0.097,0.198,0.265,0.438,0.501,0.719l0.343,0.055c-0.067-0.07-0.127-0.136-0.18-0.196c-0.051-0.06-0.099-0.118-0.14-0.175
		c-0.042-0.059-0.079-0.113-0.11-0.166c-0.033-0.056-0.063-0.112-0.091-0.172c-0.1-0.203-0.156-0.386-0.168-0.546
		c-0.012-0.161,0.018-0.314,0.093-0.461l-0.507-0.21c-0.041,0.06-0.092,0.11-0.154,0.155c-0.061,0.043-0.138,0.088-0.228,0.131
		c-0.099,0.049-0.195,0.076-0.289,0.083c-0.055,0.001-0.099-0.006-0.131-0.021c-0.032-0.015-0.059-0.034-0.077-0.062
		c0.02-0.042,0.072-0.092,0.158-0.151c0.085-0.06,0.214-0.133,0.386-0.216l0.177-0.086c0.065-0.031,0.139-0.065,0.22-0.1
		c0.042-0.018,0.088-0.038,0.141-0.063c0.032-0.014,0.065-0.028,0.098-0.044l0.21-0.099l0.124-0.061l0.347-0.168
		c-0.073,0.174-0.114,0.355-0.126,0.544c-0.009,0.125-0.001,0.245,0.023,0.36c0.023,0.118,0.063,0.229,0.116,0.337
		c0.137,0.28,0.308,0.492,0.513,0.632c0.259,0.176,0.526,0.195,0.8,0.061c0.094-0.045,0.164-0.117,0.21-0.216
		c0.025-0.05,0.037-0.103,0.037-0.156c-0.001-0.052-0.013-0.103-0.036-0.149c-0.045-0.097-0.104-0.158-0.174-0.187
		c-0.071-0.03-0.151-0.023-0.242,0.022c-0.07,0.034-0.119,0.087-0.146,0.158c-0.014,0.035-0.021,0.071-0.022,0.108
		c-0.002,0.037,0.006,0.075,0.024,0.11c0.033,0.068,0.077,0.115,0.132,0.14c-0.13,0.058-0.26,0.037-0.391-0.057
		c-0.129-0.093-0.262-0.279-0.397-0.558c-0.135-0.276-0.164-0.561-0.088-0.853c0.022-0.076,0.052-0.154,0.093-0.229
		c0.041-0.074,0.087-0.145,0.14-0.21c0.051-0.063,0.107-0.118,0.167-0.17l0.007-0.004c0.226,0.265,0.414,0.473,0.568,0.628
		c0.16,0.161,0.298,0.281,0.414,0.365c0.218,0.155,0.429,0.249,0.633,0.283c0.205,0.032,0.403,0.002,0.595-0.091
		c0.224-0.11,0.371-0.283,0.439-0.521c0.034-0.12,0.047-0.236,0.039-0.353c-0.007-0.113-0.04-0.227-0.095-0.338
		c-0.059-0.121-0.128-0.223-0.209-0.307c-0.082-0.083-0.173-0.15-0.273-0.2c-0.227-0.109-0.461-0.106-0.701,0.01
		c-0.138,0.068-0.24,0.167-0.305,0.297c-0.073,0.142-0.075,0.286-0.004,0.43c0.045,0.094,0.121,0.16,0.228,0.2
		c0.105,0.039,0.207,0.034,0.304-0.014c0.091-0.044,0.152-0.11,0.183-0.202c0.036-0.094,0.032-0.185-0.011-0.272
		c-0.015-0.033-0.04-0.06-0.074-0.088c-0.035-0.026-0.077-0.051-0.127-0.075c0.012-0.014,0.029-0.025,0.049-0.035
		c0.129-0.063,0.256-0.063,0.378,0c0.117,0.056,0.21,0.153,0.278,0.294c0.078,0.158,0.085,0.313,0.024,0.462
		c-0.059,0.155-0.166,0.271-0.323,0.347c-0.143,0.07-0.288,0.098-0.439,0.083c-0.149-0.013-0.308-0.07-0.476-0.173
		c-0.105-0.068-0.222-0.158-0.347-0.274c-0.114-0.104-0.238-0.231-0.374-0.385l-0.155-0.178l1.488-0.727L207.735,110.545z"/>
	<path fill="#FFFFFF" d="M272.169,114.238c-0.094-0.878-0.394-1.692-0.895-2.42c-0.501-0.729-1.181-1.296-2.02-1.681
		c-0.842-0.389-1.713-0.537-2.598-0.446c-0.881,0.092-1.698,0.394-2.426,0.894c-0.729,0.5-1.295,1.185-1.686,2.031
		c-0.387,0.839-0.534,1.71-0.443,2.593c0.094,0.877,0.396,1.692,0.9,2.421c0.506,0.73,1.186,1.297,2.025,1.686
		c0.84,0.385,1.713,0.533,2.593,0.438c0.878-0.092,1.692-0.393,2.42-0.892c0.729-0.502,1.294-1.183,1.682-2.023
		C272.112,115.995,272.263,115.12,272.169,114.238 M269.029,117.415c-0.477,0.325-1.006,0.521-1.579,0.583
		c-0.185,0.02-0.368,0.022-0.551,0.008c-0.105-0.007-0.171-0.114-0.127-0.209l0.64-1.438c0.088-0.19,0.256-0.332,0.457-0.394
		c0.424-0.123,0.794-0.426,0.993-0.86c0.374-0.812,0.009-1.773-0.815-2.131c-0.797-0.344-1.736,0.022-2.088,0.816
		c-0.191,0.431-0.176,0.902,0.004,1.303c0.086,0.189,0.083,0.407-0.004,0.596l-0.713,1.504c-0.041,0.084-0.154,0.109-0.227,0.049
		c-0.217-0.184-0.407-0.391-0.57-0.624c-0.326-0.478-0.525-1.008-0.586-1.579c-0.063-0.571,0.035-1.139,0.285-1.686
		c0.254-0.547,0.621-0.99,1.097-1.317c0.475-0.327,1.007-0.524,1.584-0.585c0.571-0.061,1.141,0.037,1.688,0.289
		c0.547,0.253,0.986,0.619,1.313,1.093c0.325,0.474,0.52,1.006,0.58,1.582c0.061,0.573-0.037,1.141-0.289,1.688
		C269.869,116.648,269.501,117.09,269.029,117.415"/>
	<path fill="#FFFFFF" d="M264.708,106.563l0.773-1.681c0.096-0.224,0.105-0.451,0.025-0.671c-0.08-0.225-0.234-0.393-0.46-0.495
		c-0.218-0.1-0.44-0.108-0.667-0.026c-0.223,0.083-0.392,0.237-0.502,0.46l-1.834,3.97v0.001c-0.223-0.482-0.524-0.931-0.895-1.334
		c-0.241-0.265-0.516-0.503-0.815-0.71c-0.237-0.159-0.489-0.302-0.759-0.428c-0.84-0.385-1.713-0.536-2.596-0.443
		s-1.697,0.392-2.427,0.893c-0.729,0.501-1.296,1.183-1.684,2.029c-0.388,0.84-0.536,1.713-0.442,2.593
		c0.093,0.879,0.396,1.693,0.898,2.422c0.504,0.73,1.185,1.299,2.023,1.688c0.322,0.145,0.648,0.258,0.977,0.336
		c0.474,0.11,0.953,0.147,1.437,0.112c0.368-0.025,0.726-0.091,1.069-0.191l-0.004,0.012c0.545-0.154,1.057-0.395,1.535-0.723
		c0.717-0.494,1.277-1.16,1.662-1.979c0.008-0.016,0.015-0.029,0.02-0.042c0.008-0.018,0.014-0.03,0.021-0.046l0.748-1.629
		c0.014-0.026,0.023-0.052,0.03-0.078l1.822-3.924C264.684,106.641,264.696,106.601,264.708,106.563 M259.349,112.926
		c-0.451,0.312-0.955,0.504-1.499,0.575c-0.598,0.083-1.196-0.011-1.782-0.281c-0.547-0.252-0.99-0.621-1.314-1.1
		c-0.328-0.479-0.525-1.013-0.586-1.584c-0.063-0.571,0.035-1.137,0.287-1.684s0.619-0.991,1.095-1.316
		c0.474-0.329,1.007-0.525,1.583-0.587c0.574-0.059,1.142,0.039,1.688,0.289c0.759,0.35,1.306,0.9,1.628,1.638
		c0.148,0.329,0.244,0.68,0.283,1.05c0.059,0.574-0.037,1.142-0.289,1.688C260.191,112.162,259.824,112.604,259.349,112.926"/>
	<path fill="#FFFFFF" d="M258.131,108.807c-0.8-0.369-1.746-0.018-2.114,0.782c-0.368,0.799-0.02,1.745,0.781,2.114
		c0.801,0.368,1.748,0.017,2.115-0.781C259.281,110.121,258.932,109.175,258.131,108.807"/>
	<path fill="#FFFFFF" d="M246.131,103.343c-0.799-0.369-1.745-0.019-2.114,0.78c-0.367,0.801-0.019,1.747,0.781,2.115
		c0.801,0.368,1.748,0.017,2.115-0.781C247.282,104.658,246.933,103.71,246.131,103.343"/>
	<path fill="#FFFFFF" d="M255.181,99.329c-1.051-0.495-2.314-0.041-2.81,1.009c-0.31,0.659-0.248,1.395,0.095,1.975
		c0.123,0.206,0.141,0.457,0.039,0.675l-0.865,1.877c-0.017,0.025-0.032,0.053-0.045,0.081l-0.221,0.478l-2.492,5.414l-0.02,0.041
		v0.002c-0.001,0.002-0.002,0.003-0.002,0.003l-0.031,0.069l-0.002,0.006l-0.102,0.22c-0.002,0.005-0.005,0.01-0.008,0.015
		c-0.002,0.006-0.004,0.01-0.006,0.015c-0.063,0.143-0.086,0.292-0.07,0.44c0.016,0.155,0.069,0.298,0.158,0.425
		c0.088,0.129,0.207,0.229,0.355,0.296c0.147,0.069,0.303,0.096,0.457,0.078c0.152-0.014,0.297-0.068,0.424-0.156
		s0.229-0.207,0.296-0.355l0.11-0.237l0.053-0.118l2.492-5.414l0.222-0.478c0.011-0.027,0.021-0.054,0.03-0.082l0.869-1.884
		c0.1-0.214,0.297-0.368,0.527-0.408c0.662-0.112,1.258-0.54,1.559-1.194C256.681,101.066,256.226,99.824,255.181,99.329
		 M254.964,101.769c-0.241,0.313-0.676,0.43-1.047,0.257c-0.367-0.169-0.559-0.561-0.491-0.942c0.013-0.07,0.034-0.141,0.065-0.21
		c0.201-0.434,0.715-0.626,1.15-0.424c0.436,0.201,0.626,0.716,0.426,1.149C255.039,101.662,255.005,101.719,254.964,101.769"/>
	<path fill="#FFFFFF" d="M249.645,101.824c-0.358-0.523-0.81-0.964-1.346-1.313c-0.208-0.135-0.429-0.257-0.663-0.363
		c-0.334-0.152-0.672-0.269-1.012-0.347c-0.013-0.003-0.023-0.006-0.034-0.009c-0.011-0.002-0.02-0.004-0.029-0.008
		c-0.273-0.056-0.546-0.09-0.821-0.098c-0.37-0.016-0.973,0.082-1.321,0.144c-0.112,0.021-0.204-0.097-0.154-0.203l0.191-0.42
		l0.54-1.17c0.005-0.011,0.01-0.023,0.014-0.033l0.969-2.102c0.096-0.223,0.104-0.452,0.024-0.672
		c-0.007-0.021-0.015-0.037-0.021-0.058c-0.086-0.195-0.234-0.34-0.438-0.436c-0.197-0.092-0.398-0.108-0.602-0.048
		c-0.021,0.005-0.043,0.012-0.066,0.021c-0.224,0.084-0.391,0.236-0.503,0.459l-1.538,3.331l-0.875,1.899
		c-0.017,0.024-0.03,0.051-0.043,0.077l-0.221,0.479l-0.77,1.67c-0.386,0.841-0.533,1.712-0.441,2.593
		c0.061,0.575,0.211,1.122,0.451,1.639l0.002-0.006c0.148,0.324,0.332,0.634,0.548,0.928c0.491,0.663,1.136,1.181,1.917,1.541
		c0.84,0.387,1.709,0.535,2.586,0.44c0.877-0.096,1.69-0.397,2.418-0.896c0.729-0.502,1.294-1.182,1.682-2.021
		c0.387-0.842,0.535-1.714,0.443-2.597C250.442,103.366,250.142,102.551,249.645,101.824 M247.41,107.427
		c-0.449,0.308-0.947,0.5-1.483,0.571c-0.038,0.007-0.073,0.01-0.109,0.015c-0.567,0.062-1.132-0.034-1.68-0.286
		c-0.751-0.346-1.294-0.897-1.612-1.641c-0.148-0.327-0.242-0.673-0.281-1.037c-0.063-0.569,0.035-1.136,0.288-1.685
		c0.25-0.544,0.62-0.988,1.096-1.318c0.327-0.225,0.683-0.388,1.06-0.489c0.739-0.205,1.479-0.145,2.204,0.188
		c0.171,0.081,0.331,0.172,0.481,0.272c0.332,0.223,0.613,0.499,0.838,0.826c0.324,0.475,0.52,1.008,0.582,1.581
		c0.059,0.573-0.039,1.144-0.289,1.688C248.251,106.662,247.883,107.102,247.41,107.427"/>
	<path fill="#FFFFFF" d="M268.182,122.875c0.149-0.101,0.269-0.244,0.354-0.426c0.047-0.108,0.063-0.218,0.04-0.326
		c-0.012-0.055-0.03-0.109-0.06-0.167c-0.078-0.14-0.196-0.247-0.359-0.322c-0.208-0.096-0.428-0.119-0.655-0.067
		c-0.03,0.005-0.06,0.014-0.087,0.022c-0.209,0.063-0.354,0.188-0.439,0.372c-0.044,0.094-0.055,0.19-0.03,0.283
		c0.022,0.1,0.083,0.171,0.182,0.219c0.078,0.034,0.154,0.038,0.231,0.013c0.078-0.029,0.137-0.082,0.172-0.157
		c0.03-0.067,0.038-0.129,0.023-0.185c-0.014-0.055-0.045-0.107-0.096-0.155c0.012-0.024,0.041-0.041,0.092-0.062
		c0.049-0.017,0.127-0.027,0.23-0.026c0.186,0.001,0.316,0.017,0.397,0.048l0.031,0.015c0.067,0.034,0.112,0.08,0.13,0.136
		c0.023,0.059,0.013,0.136-0.029,0.228c-0.045,0.098-0.133,0.183-0.262,0.25c-0.014-0.021-0.027-0.036-0.047-0.049
		c-0.02-0.014-0.039-0.025-0.061-0.034c-0.074-0.035-0.15-0.036-0.227-0.005c-0.076,0.027-0.131,0.077-0.166,0.152
		c-0.033,0.075-0.038,0.154-0.012,0.231c0.028,0.074,0.08,0.128,0.154,0.164c0.106,0.048,0.201,0.047,0.283-0.008
		c0.008,0.077-0.003,0.147-0.033,0.214c-0.049,0.109-0.143,0.168-0.279,0.174c-0.118,0.013-0.242-0.012-0.371-0.071
		c-0.225-0.102-0.381-0.309-0.469-0.619c-0.089-0.311-0.104-0.738-0.048-1.285l0.005-0.135l0.008-0.275l0,0v-0.002l-0.117-0.057
		l-0.172-0.078l-0.157-0.074l0.009-0.163l-0.104-0.192l-0.121,0.259l-0.182-0.085l-2.256-1.051c0,0,0.156,0.218,0.316,0.44
		c0.152,0.215,0.307,0.429,0.33,0.459c0.047,0.062,0.082,0.118,0.104,0.174l-0.831,0.295l0.102,0.422
		c0.121,0.061,0.227,0.133,0.314,0.217c0.086,0.085,0.16,0.19,0.221,0.311c0.129,0.25,0.176,0.497,0.143,0.745
		c0.014,0.027,0.027,0.053,0.041,0.075c0.013,0.02,0.027,0.037,0.041,0.054c0.016,0.015,0.029,0.027,0.045,0.032l0.972-2.102
		l0.056,0.027l0.125,0.059c0.066,0.037,0.15,0.103,0.193,0.208c0.018,0.045,0.027,0.097,0.021,0.157
		c0.002,0.018,0.003,0.031,0,0.043c-0.001,0.023-0.013,0.063-0.039,0.119c-0.005,0.013-0.012,0.028-0.018,0.044l-0.719,1.501
		c0.03,0.04,0.06,0.077,0.086,0.112c0.025,0.03,0.05,0.062,0.071,0.091c0.023,0.03,0.041,0.049,0.055,0.062l0.081-0.176l0.156-0.339
		c0.061-0.132,0.128-0.277,0.197-0.432c0.068-0.155,0.138-0.304,0.205-0.45l0.182-0.392l0.119-0.263l0.324,0.151
		c-0.021,0.152-0.041,0.29-0.057,0.42c-0.016,0.145-0.029,0.279-0.037,0.4c-0.008,0.12-0.012,0.229-0.012,0.325
		c-0.001,0.095,0.006,0.182,0.016,0.263c0.059,0.554,0.289,0.92,0.688,1.102c0.096,0.045,0.189,0.073,0.283,0.083
		c0.091,0.01,0.182,0,0.271-0.031c0.184-0.058,0.32-0.183,0.406-0.368C268.224,123.237,268.236,123.057,268.182,122.875
		 M265.234,120.585l-0.686,1.488c-0.031-0.155-0.087-0.304-0.169-0.448c-0.079-0.144-0.187-0.284-0.317-0.423
		c0.121-0.049,0.238-0.094,0.352-0.135c0.115-0.041,0.235-0.082,0.359-0.119c-0.037-0.139-0.076-0.263-0.115-0.371
		c-0.037-0.109-0.08-0.216-0.129-0.314c0,0,0.002-0.001,0.002-0.002L265.234,120.585L265.234,120.585z"/>
	<path fill="#FFFFFF" d="M262.726,119.431L262.726,119.431l0.525,0.24l-0.396-0.478l-0.016-0.008l-0.174-0.081l-1.621-0.744
		l-0.018-0.009l-0.103-0.047l-0.054-0.024l-0.17-0.078l-0.995-0.459l-0.329-0.151l-2.496-1.149v0.001l-0.104-0.049
		c-0.02-0.083-0.012-0.161,0.021-0.232c0.027-0.06,0.073-0.106,0.136-0.146c0.064-0.035,0.151-0.059,0.262-0.07
		c0.197-0.017,0.367,0.009,0.511,0.078c0.165,0.075,0.317,0.2,0.46,0.37c0.141,0.172,0.277,0.414,0.408,0.724l0.104-0.227
		c-0.112-0.314-0.246-0.574-0.403-0.777c-0.157-0.206-0.343-0.356-0.559-0.457c-0.092-0.041-0.189-0.069-0.296-0.082
		c-0.105-0.014-0.222-0.013-0.344,0c-0.139,0.016-0.255,0.053-0.348,0.104s-0.16,0.121-0.203,0.218
		c-0.021,0.045-0.031,0.099-0.029,0.164s0.012,0.14,0.031,0.219l-0.515-0.237l0.261,0.422l0.206,0.09l-0.91,1.915l0.179,0.371
		c0.057-0.121,0.113-0.251,0.172-0.381c0.049-0.115,0.104-0.238,0.166-0.376c0.063-0.14,0.125-0.274,0.187-0.408l0.177-0.386
		c0.014-0.027,0.023-0.051,0.035-0.077l0,0l0.25-0.542l0.094,0.044l0.166,0.077l0.764,0.35c-0.115,0.048-0.213,0.104-0.291,0.169
		c-0.077,0.064-0.137,0.145-0.178,0.233c-0.062,0.135-0.072,0.283-0.027,0.438c0.045,0.163,0.137,0.277,0.277,0.341
		c0.035,0.014,0.074,0.029,0.119,0.04c0.046,0.012,0.097,0.02,0.154,0.022c0.05,0,0.088,0.001,0.114,0.003
		c0.026-0.003,0.042-0.001,0.046,0.001c0.012,0.006,0.021,0.018,0.027,0.035c0.006,0.02,0,0.052-0.023,0.1
		c-0.038,0.086-0.113,0.134-0.227,0.146c-0.105,0.011-0.211-0.01-0.316-0.058c-0.112-0.054-0.203-0.131-0.265-0.232
		c-0.063-0.099-0.1-0.229-0.108-0.385c-0.006-0.113,0.002-0.237,0.022-0.37c0.021-0.133,0.06-0.284,0.114-0.449l-0.13-0.314
		c-0.052,0.137-0.093,0.26-0.13,0.376c-0.035,0.115-0.064,0.222-0.085,0.319c-0.021,0.101-0.038,0.191-0.048,0.278
		c-0.012,0.087-0.018,0.17-0.018,0.249c-0.001,0.231,0.04,0.423,0.123,0.58c0.08,0.157,0.208,0.275,0.381,0.357
		c0.177,0.08,0.35,0.092,0.513,0.034c0.165-0.06,0.286-0.176,0.366-0.352c0.029-0.063,0.049-0.129,0.054-0.193
		c0.007-0.064,0.003-0.131-0.006-0.201c-0.011-0.065-0.035-0.125-0.069-0.181c-0.035-0.061-0.084-0.112-0.156-0.162
		c-0.092,0.029-0.176,0.044-0.25,0.039c-0.072-0.005-0.141-0.02-0.199-0.047c-0.033-0.015-0.055-0.041-0.063-0.08
		c-0.006-0.023-0.006-0.045-0.004-0.066c0.005-0.021,0.012-0.042,0.021-0.063c0.031-0.064,0.088-0.124,0.17-0.173
		c0.084-0.049,0.201-0.086,0.349-0.112c-0.009,0.078-0.003,0.152,0.019,0.221c0.021,0.071,0.059,0.142,0.111,0.211
		c0.051,0.065,0.108,0.126,0.179,0.175c0.069,0.051,0.149,0.097,0.239,0.139c0.025,0.009,0.051,0.021,0.076,0.032
		c0.026,0.008,0.053,0.019,0.08,0.025c-0.174,0.147-0.318,0.35-0.436,0.604c-0.093,0.2-0.172,0.482-0.24,0.843l0.176,0.3
		c0.012-0.097,0.023-0.185,0.037-0.264c0.014-0.076,0.029-0.151,0.046-0.219c0.021-0.07,0.039-0.133,0.06-0.19
		c0.023-0.06,0.047-0.121,0.075-0.18c0.095-0.205,0.2-0.364,0.316-0.476s0.255-0.186,0.415-0.221l-0.158-0.524
		c-0.072,0.006-0.144-0.002-0.217-0.021c-0.072-0.02-0.156-0.05-0.246-0.093c-0.1-0.046-0.182-0.103-0.247-0.171
		c-0.035-0.042-0.058-0.081-0.066-0.115c-0.009-0.035-0.011-0.068-0.001-0.099c0.045-0.011,0.117-0.003,0.217,0.027
		c0.101,0.027,0.239,0.081,0.412,0.161l0.179,0.083c0.065,0.03,0.14,0.066,0.217,0.107c0.04,0.021,0.085,0.043,0.138,0.068
		c0.031,0.017,0.063,0.033,0.096,0.046l0.211,0.103l0.125,0.058l0.35,0.16c-0.181,0.057-0.348,0.139-0.502,0.247
		c-0.102,0.073-0.189,0.154-0.264,0.248c-0.077,0.092-0.137,0.192-0.188,0.302c-0.131,0.284-0.186,0.55-0.164,0.799
		c0.027,0.31,0.182,0.53,0.459,0.656c0.096,0.045,0.195,0.054,0.301,0.026c0.055-0.013,0.104-0.036,0.145-0.071
		c0.039-0.032,0.071-0.073,0.092-0.123c0.047-0.096,0.058-0.181,0.035-0.252c-0.021-0.074-0.078-0.132-0.171-0.173
		c-0.071-0.033-0.143-0.037-0.214-0.013c-0.037,0.011-0.069,0.028-0.099,0.052c-0.03,0.022-0.054,0.053-0.069,0.09
		c-0.033,0.066-0.041,0.131-0.025,0.189c-0.127-0.065-0.193-0.178-0.203-0.339c-0.011-0.159,0.051-0.379,0.18-0.66
		c0.128-0.279,0.33-0.481,0.604-0.607c0.073-0.031,0.152-0.058,0.236-0.073c0.083-0.017,0.168-0.023,0.252-0.024
		c0.08-0.002,0.159,0.007,0.236,0.022l0.008,0.003c-0.062,0.342-0.104,0.62-0.126,0.836c-0.023,0.226-0.029,0.408-0.021,0.552
		c0.018,0.268,0.079,0.491,0.182,0.67c0.105,0.179,0.254,0.312,0.447,0.403c0.228,0.104,0.454,0.107,0.682,0.01
		c0.115-0.049,0.213-0.114,0.299-0.193c0.082-0.077,0.15-0.173,0.201-0.287c0.056-0.121,0.091-0.24,0.104-0.355
		c0.013-0.116,0.007-0.229-0.019-0.338c-0.059-0.246-0.209-0.424-0.451-0.537c-0.141-0.063-0.281-0.08-0.424-0.048
		c-0.154,0.033-0.268,0.123-0.334,0.27c-0.044,0.094-0.048,0.194-0.011,0.302c0.036,0.106,0.104,0.184,0.202,0.227
		c0.092,0.043,0.183,0.049,0.273,0.015c0.095-0.032,0.163-0.092,0.204-0.181c0.015-0.033,0.021-0.069,0.021-0.114
		c-0.002-0.044-0.01-0.091-0.021-0.146c0.018,0.001,0.037,0.007,0.059,0.017c0.129,0.06,0.209,0.158,0.239,0.292
		c0.03,0.126,0.014,0.261-0.052,0.401c-0.073,0.16-0.188,0.265-0.342,0.312c-0.158,0.053-0.316,0.043-0.474-0.029
		c-0.144-0.067-0.257-0.162-0.342-0.289c-0.085-0.123-0.142-0.282-0.167-0.477c-0.015-0.125-0.02-0.271-0.009-0.442
		c0.009-0.154,0.029-0.33,0.063-0.534l0.038-0.231l1.506,0.69L262.726,119.431z"/>
</g>
</svg>
