<?xml version="1.0" encoding="utf-8"?>
<!-- Generator: Adobe Illustrator 24.1.1, SVG Export Plug-In . SVG Version: 6.00 Build 0)  -->
<svg version="1.1" id="Layer_1" xmlns="http://www.w3.org/2000/svg" xmlns:xlink="http://www.w3.org/1999/xlink" x="0px" y="0px"
	 viewBox="0 0 15.6 16.8" style="enable-background:new 0 0 15.6 16.8;" xml:space="preserve">
<style type="text/css">
	.st0{fill:#7D8693;stroke:#7D8693;stroke-width:0.25;stroke-miterlimit:10;}
</style>
<path class="st0" d="M14.7,16.7c-0.3,0-0.5-0.2-0.5-0.5c0-2.1-1.7-3.8-3.8-3.8h-5c-2.1,0-3.8,1.7-3.8,3.8c0,0.3-0.2,0.5-0.5,0.5
	s-0.5-0.2-0.5-0.5c0-2.7,2.2-4.9,4.9-4.9h5c2.7,0,4.9,2.2,4.9,4.9C15.2,16.5,14.9,16.7,14.7,16.7z"/>
<path class="st0" d="M7.8,9.4C6.6,9.4,5.4,8.9,4.5,8c-1.8-1.8-1.8-4.8,0-6.6C5.4,0.5,6.6,0,7.8,0c1.3,0,2.4,0.5,3.3,1.4l0,0l0,0
	c0.9,0.9,1.4,2.1,1.4,3.3C12.5,6,12,7.1,11.1,8C10.2,8.9,9.1,9.4,7.8,9.4z M7.8,1.1c-1,0-1.9,0.4-2.6,1.1c-1.4,1.4-1.4,3.7,0,5.1
	c0.7,0.7,1.7,1,2.6,1s1.9-0.3,2.6-1s1.1-1.6,1.1-2.6s-0.4-1.9-1.1-2.6l0,0C9.7,1.5,8.8,1.1,7.8,1.1z"/>
</svg>
