<?xml version="1.0" encoding="utf-8"?>
<!-- Generator: Adobe Illustrator 24.1.1, SVG Export Plug-In . SVG Version: 6.00 Build 0)  -->
<svg version="1.1" id="Layer_1" xmlns="http://www.w3.org/2000/svg" xmlns:xlink="http://www.w3.org/1999/xlink" x="0px" y="0px"
	 viewBox="0 0 104.4 92.8" style="enable-background:new 0 0 104.4 92.8;" xml:space="preserve">
<style type="text/css">
	.st0{fill:url(#SVGID_1_);}
	.st1{fill:url(#SVGID_2_);}
	.st2{fill:#F2F2F2;}
	.st3{fill:url(#SVGID_3_);}
	.st4{fill:#E5E5E5;}
	.st5{fill:url(#SVGID_4_);}
	.st6{fill:url(#SVGID_5_);}
	.st7{opacity:0.1;fill:#FFFFFF;enable-background:new    ;}
	.st8{fill:url(#SVGID_6_);}
	.st9{opacity:0.8;}
	.st10{fill:#FFFFFF;}
	.st11{opacity:0.2;enable-background:new    ;}
</style>
<radialGradient id="SVGID_1_" cx="310.0131" cy="1051.1064" r="11.2506" gradientTransform="matrix(1 0 0 1 -293.5 -974.5)" gradientUnits="userSpaceOnUse">
	<stop  offset="0" style="stop-color:#FF0B50"/>
	<stop  offset="0.1975" style="stop-color:#E70B50"/>
	<stop  offset="0.5439" style="stop-color:#C10B50"/>
	<stop  offset="0.8238" style="stop-color:#AA0B50"/>
	<stop  offset="1" style="stop-color:#A20B50"/>
</radialGradient>
<path class="st0" d="M28.9,76.9c-6.6,2.8-12.1,5.7-18.1,9.8c0.1-2.8,0.2-4.3,0.6-7.2c-2.8-0.8-4.2-1.1-7.2-1.6
	c6.4-4.8,13.5-8.6,21-11.3C26.6,70.7,27.4,72.8,28.9,76.9z"/>
<radialGradient id="SVGID_2_" cx="381.3406" cy="1051.1064" r="11.2504" gradientTransform="matrix(1 0 0 1 -293.5 -974.5)" gradientUnits="userSpaceOnUse">
	<stop  offset="0" style="stop-color:#FF0B50"/>
	<stop  offset="0.1975" style="stop-color:#E70B50"/>
	<stop  offset="0.5439" style="stop-color:#C10B50"/>
	<stop  offset="0.8238" style="stop-color:#AA0B50"/>
	<stop  offset="1" style="stop-color:#A20B50"/>
</radialGradient>
<path class="st1" d="M75.5,76.9c6.6,2.8,12.1,5.7,18.1,9.8c-0.1-2.8-0.2-4.3-0.6-7.2c2.8-0.8,4.3-1.1,7.2-1.6
	c-6.4-4.8-13.5-8.6-21-11.3C77.7,70.7,77,72.8,75.5,76.9z"/>
<path class="st2" d="M24.9,67.1l3.1,8.5l0.4,1.1c-6.2,2.6-11.5,5.5-17.1,9.2c0.1-2.3,0.2-3.7,0.6-6.3l0-0.3l-0.3-0.1
	c-2.5-0.7-4-1.1-6.3-1.5C11.2,73.2,17.9,69.6,24.9,67.1 M25.1,66.6c-7.5,2.7-14.6,6.5-21,11.3c3,0.5,4.4,0.8,7.2,1.6
	c-0.4,2.9-0.5,4.3-0.6,7.2c6-4,11.5-7,18.1-9.8C27.4,72.8,26.6,70.7,25.1,66.6L25.1,66.6z"/>
<path class="st2" d="M79.5,67.1c7,2.6,13.7,6.1,19.7,10.5c-2.4,0.4-3.8,0.8-6.3,1.5l-0.3,0.1l0,0.4c0.4,2.6,0.5,4,0.6,6.3
	c-5.6-3.7-11-6.6-17.1-9.2l1.8-5.1L79.5,67.1 M79.2,66.6c-1.5,4.1-2.2,6.2-3.7,10.3c6.6,2.8,12.1,5.7,18.1,9.8
	c-0.1-2.8-0.2-4.3-0.6-7.2c2.8-0.8,4.3-1.1,7.2-1.6C93.8,73.1,86.7,69.3,79.2,66.6L79.2,66.6z"/>
<path class="st2" d="M28.9,76.9c-4.9-1-7.5-1.3-13-1.4c-2.1-3.9-3.2-5.8-5.3-9.6c6-0.3,9-0.1,14.5,0.7
	C26.6,70.7,27.4,72.8,28.9,76.9z"/>
<path class="st2" d="M75.5,76.9c4.9-1,7.5-1.3,13-1.4c2.1-3.9,3.2-5.8,5.3-9.6c-6-0.3-9-0.1-14.5,0.7C77.7,70.7,77,72.8,75.5,76.9z"
	/>
<path class="st2" d="M87,67.5c0,2.3-1.9,4.7-4.1,5.4c-2.2,0.6-4.7,2.9-5.5,5.1c-0.8,2.2-3.4,3.8-5.7,3.7c-2.3-0.2-5.4,1.1-6.9,2.9
	c-1.5,1.8-4.5,2.4-6.6,1.5c-2.1-0.9-5.5-0.8-7.5,0.4c-2,1.1-5,0.8-6.7-0.9C42.3,84,39,83,36.7,83.4c-2.3,0.4-5-1-6-3.1
	c-1-2.1-3.7-4.1-6-4.6c-2.3-0.4-4.3-2.6-4.6-5c-0.2-2.3-2.1-5.2-4.1-6.3c-2-1.2-3.2-4-2.6-6.2c0.6-2.3-0.2-5.6-1.7-7.4
	c-1.5-1.8-1.6-4.8-0.3-6.7c1.3-1.9,1.7-5.3,0.9-7.5c-0.8-2.2,0.1-5.1,2-6.5c1.9-1.4,3.4-4.4,3.4-6.7c0-2.3,1.9-4.7,4.1-5.4
	c2.2-0.6,4.7-2.9,5.5-5.1c0.8-2.2,3.4-3.8,5.7-3.7c2.3,0.2,5.4-1.1,6.9-2.9c1.5-1.8,4.5-2.4,6.6-1.5c2.1,1,5.5,0.8,7.5-0.4
	c2-1.1,5-0.8,6.7,0.9C62.6,7,65.8,8,68.1,7.6c2.3-0.4,5,1,6,3.1c1,2.1,3.7,4.1,6,4.6c2.3,0.4,4.3,2.6,4.6,5c0.2,2.3,2.1,5.2,4.1,6.3
	c2,1.2,3.2,4,2.6,6.2c-0.6,2.3,0.2,5.6,1.7,7.3c1.5,1.8,1.6,4.8,0.3,6.7c-1.3,1.9-1.7,5.3-1,7.5c0.8,2.2-0.1,5.1-2,6.5
	C88.6,62.2,87,65.2,87,67.5z"/>
<radialGradient id="SVGID_3_" cx="345.9242" cy="1020" r="41.1962" gradientTransform="matrix(1 0 0 1 -293.5 -974.5)" gradientUnits="userSpaceOnUse">
	<stop  offset="0" style="stop-color:#C60B01"/>
	<stop  offset="9.720001e-02" style="stop-color:#BC0B0B"/>
	<stop  offset="0.487" style="stop-color:#970B31"/>
	<stop  offset="0.8018" style="stop-color:#800B48"/>
	<stop  offset="1" style="stop-color:#780B50"/>
</radialGradient>
<path class="st3" d="M86.5,67.2c0,2.3-1.8,4.7-4,5.3c-2.2,0.6-4.7,2.9-5.5,5c-0.8,2.2-3.3,3.8-5.6,3.6c-2.3-0.2-5.4,1.1-6.9,2.9
	c-1.5,1.7-4.4,2.4-6.5,1.5c-2.1-0.9-5.4-0.8-7.4,0.4c-2,1.1-5,0.8-6.6-0.8c-1.6-1.6-4.8-2.6-7.1-2.2c-2.3,0.4-4.9-1-5.9-3.1
	c-1-2.1-3.7-4.1-5.9-4.5c-2.3-0.4-4.3-2.6-4.5-4.9c-0.2-2.3-2-5.1-4-6.2c-2-1.2-3.1-3.9-2.6-6.2c0.6-2.2-0.2-5.5-1.6-7.3
	C10.8,49,10.7,46,12,44.1c1.3-1.9,1.7-5.2,0.9-7.4c-0.8-2.2,0.1-5,2-6.4c1.9-1.3,3.4-4.3,3.4-6.6c0-2.3,1.8-4.7,4-5.3
	c2.2-0.6,4.7-2.9,5.5-5c0.8-2.2,3.3-3.8,5.6-3.6c2.3,0.2,5.4-1.1,6.9-2.9c1.5-1.7,4.4-2.4,6.5-1.5c2.1,0.9,5.4,0.8,7.4-0.4
	c2-1.1,5-0.8,6.6,0.8c1.6,1.6,4.8,2.6,7.1,2.2c2.3-0.4,4.9,1,5.9,3.1c1,2.1,3.7,4.1,5.9,4.5c2.3,0.4,4.3,2.6,4.5,4.9
	c0.2,2.3,2,5.1,4,6.3c2,1.2,3.1,3.9,2.6,6.1c-0.6,2.2,0.2,5.5,1.6,7.3c1.5,1.8,1.6,4.8,0.3,6.7c-1.3,1.9-1.7,5.2-0.9,7.4
	c0.8,2.2-0.1,5-2,6.4C88.1,62,86.6,65,86.5,67.2z"/>
<path class="st4" d="M87.4,45.5c0,19.3-15.7,35-35,35c-19.3,0-35-15.7-35-35c0-19.3,15.7-35,35-35C71.8,10.5,87.4,26.2,87.4,45.5z"
	/>
<radialGradient id="SVGID_4_" cx="345.9231" cy="1020.0007" r="34.3107" gradientTransform="matrix(1 0 0 1 -293.5 -974.5)" gradientUnits="userSpaceOnUse">
	<stop  offset="0" style="stop-color:#FF0B50"/>
	<stop  offset="0.1975" style="stop-color:#E70B50"/>
	<stop  offset="0.5439" style="stop-color:#C10B50"/>
	<stop  offset="0.8238" style="stop-color:#AA0B50"/>
	<stop  offset="1" style="stop-color:#A20B50"/>
</radialGradient>
<path class="st5" d="M86.7,45.5c0,18.9-15.4,34.3-34.3,34.3c-19,0-34.3-15.4-34.3-34.3c0-19,15.4-34.3,34.3-34.3
	C71.4,11.2,86.7,26.5,86.7,45.5z"/>
<radialGradient id="SVGID_5_" cx="345.9236" cy="1019.9999" r="30.4405" gradientTransform="matrix(1 0 0 1 -293.5 -974.5)" gradientUnits="userSpaceOnUse">
	<stop  offset="0" style="stop-color:#EB0B50"/>
	<stop  offset="4.420000e-02" style="stop-color:#E70B50"/>
	<stop  offset="0.457" style="stop-color:#C10B50"/>
	<stop  offset="0.7902" style="stop-color:#AA0B50"/>
	<stop  offset="1" style="stop-color:#A20B50"/>
</radialGradient>
<circle class="st6" cx="52.4" cy="45.5" r="30.4"/>
<path class="st7" d="M29.8,71.3c0.3-0.7,0.6-1.3,1-2c8.9-21,25.7-38.1,46.6-47.3c-6.3-6.7-15.1-10.8-25-10.8
	c-19,0-34.3,15.4-34.3,34.3C18.1,55.8,22.6,65,29.8,71.3z"/>
<radialGradient id="SVGID_6_" cx="345.6762" cy="1040.1603" r="30.2043" gradientTransform="matrix(1 0 0 1 -293.5 -974.5)" gradientUnits="userSpaceOnUse">
	<stop  offset="0" style="stop-color:#FF0B50"/>
	<stop  offset="0.1975" style="stop-color:#E70B50"/>
	<stop  offset="0.5439" style="stop-color:#C10B50"/>
	<stop  offset="0.8238" style="stop-color:#AA0B50"/>
	<stop  offset="1" style="stop-color:#A20B50"/>
</radialGradient>
<path class="st8" d="M88.5,75.5c-24.4-11.7-48.2-11.7-72.6,0c-2.1-3.9-3.2-5.8-5.3-9.6c27.6-13.5,55.5-13.5,83.1,0
	C91.6,69.8,90.6,71.7,88.5,75.5z"/>
<path class="st2" d="M52.2,55.8v0.4c13.7,0,27.4,3.3,41,9.9l-4.5,8.2L88.3,75c-12.1-5.7-24.2-8.7-36.1-8.7c-11.9,0-24,2.9-36.1,8.7
	l-2.4-4.4l-2.5-4.5c13.5-6.6,27.3-9.9,41-9.9L52.2,55.8 M52.2,55.8c-13.9,0-27.8,3.4-41.6,10.1c2.1,3.9,3.2,5.8,5.3,9.6
	c12.2-5.9,24.2-8.8,36.3-8.8c12,0,24.1,2.9,36.3,8.8c2.1-3.9,3.2-5.8,5.3-9.6C79.9,59.2,66.1,55.8,52.2,55.8L52.2,55.8z"/>
<g class="st9">
	<polygon class="st10" points="44.8,74.2 46.1,73.5 47.4,74.2 47.1,72.7 48.3,71.7 46.7,71.6 46.1,70.1 45.5,71.6 44,71.7 
		45.1,72.7 	"/>
	<polygon class="st10" points="51,74.1 52.6,73.1 54.2,74.1 53.8,72.3 55.2,71 53.3,70.9 52.6,69.1 51.8,70.9 50,71 51.4,72.3 	"/>
	<polygon class="st10" points="57.8,74.2 59.2,73.5 60.5,74.2 60.2,72.7 61.3,71.7 59.8,71.6 59.2,70.1 58.5,71.6 57,71.7 
		58.2,72.7 	"/>
</g>
<path class="st11" d="M29.4,31.4c-0.5,0.6-1.4,0.9-2.5,0.9c-0.2,0-0.3,0-0.5,0l0.5-1.9c0.2,0,0.3,0,0.5,0c0.9,0,1.5-0.4,2-1.3h2.7
	v9.4l4.4-9.4h1.9v9.4l4.4-9.4h3.2L38.5,44h-2.8l-0.1-7l-3.5,7h-2.8V31.4z"/>
<path class="st11" d="M48.4,34.6L45.9,44h-2.7l2.5-9.4H48.4z M47.7,33.1c-0.5,0-0.8-0.1-1.2-0.3c-0.3-0.2-0.5-0.5-0.5-0.8
	c0-0.3,0.2-0.6,0.5-0.9c0.3-0.2,0.7-0.4,1.2-0.4c0.4,0,0.8,0.1,1.1,0.3c0.3,0.2,0.5,0.5,0.5,0.8c0,0.3-0.2,0.6-0.5,0.9
	C48.5,32.9,48.2,33,47.7,33.1z"/>
<path class="st11" d="M56.3,45.5c0.3,0,0.6-0.1,0.8-0.4l0.6,1.8c-0.6,0.7-1.5,1-2.7,1.1c-0.8,0-1.4-0.3-1.9-0.8
	c-0.4-0.5-0.6-0.9-0.7-1.4c0,0.1,0.1-0.5,0.2-1.7l1.6-6.3c0-0.1,0-0.1,0-0.2c0-0.2-0.1-0.4-0.3-0.5c-0.1-0.1-0.2-0.1-0.3-0.1
	c-0.2,0-0.5,0.1-0.8,0.3c-0.2,0.2-0.4,0.3-0.6,0.5c-0.2,0.2-0.4,0.4-0.5,0.6L50.4,44h-2.7l2.5-9.4h2.7l-0.2,0.6
	c0.7-0.4,1.5-0.6,2.2-0.6c0.3,0,0.5,0,0.7,0.1c1.1,0.5,1.6,1.3,1.6,2.4c0,0.2,0,0.4-0.1,0.6L55.5,44C55.5,44.9,55.7,45.4,56.3,45.5z
	"/>
<path class="st11" d="M65.5,45.5c0.3,0,0.6-0.1,0.9-0.4l0.6,1.8c-0.6,0.7-1.5,1-2.7,1.1c-0.8,0-1.4-0.3-1.9-0.8
	c-0.4-0.5-0.6-0.9-0.7-1.4c0,0.1,0.1-0.5,0.2-1.7l1.6-6.3c0-0.1,0-0.1,0-0.2c0-0.2-0.1-0.4-0.3-0.5c-0.1-0.1-0.2-0.1-0.3-0.1
	c-0.2,0-0.5,0.1-0.8,0.3c-0.2,0.2-0.4,0.3-0.6,0.5c-0.2,0.2-0.4,0.4-0.5,0.6L59.6,44h-2.7l2.5-9.4h2.7L62,35.3
	c0.7-0.4,1.5-0.6,2.2-0.6c0.3,0,0.5,0,0.7,0.1c1.1,0.5,1.6,1.3,1.6,2.4c0,0.2,0,0.4-0.1,0.6L64.7,44C64.7,44.9,64.9,45.4,65.5,45.5z
	"/>
<path class="st11" d="M69.2,40.9c0.1,0.6,0.3,0.9,0.6,1c0.1,0.1,0.2,0.1,0.3,0.2c1,0,1.8-0.3,2.5-1.1l-0.7,2.7
	c-0.6,0.4-1.2,0.5-1.8,0.5c-0.6,0-1.1-0.1-1.7-0.4c-1.2-0.6-1.8-1.7-1.8-3.4c0-0.9,0.2-1.8,0.6-2.7c0.5-1,1.1-1.7,1.9-2.3
	c0.8-0.6,1.6-0.9,2.5-0.9c0.5,0,0.9,0.1,1.3,0.3c1,0.4,1.6,1.1,1.6,2.4c0,0.2,0,0.4-0.1,0.6c-0.2,0.8-0.7,1.6-1.5,2.2
	c-0.8,0.6-1.7,1-2.7,1C69.8,41,69.5,40.9,69.2,40.9z M69.3,39.1c0.3,0.1,0.5,0.1,0.8,0.1c0.7,0,1.2-0.2,1.6-0.5
	c0.4-0.4,0.7-0.8,0.7-1.2c0-0.2-0.1-0.4-0.2-0.6c-0.2-0.2-0.3-0.3-0.6-0.3c-0.5,0-0.9,0.3-1.4,0.9C69.8,38.1,69.5,38.6,69.3,39.1z"
	/>
<path class="st11" d="M81.1,34.8l-0.6,2.6c-0.3-0.2-0.7-0.3-1-0.3c-0.7,0-1.3,0.5-1.7,1.4L76.4,44h-2.7l2.5-9.4h2.7l-0.2,0.6
	c0.7-0.4,1.2-0.6,1.8-0.6C80.8,34.6,81,34.7,81.1,34.8z"/>
<g>
	<path class="st2" d="M29,30.7c-0.5,0.6-1.4,0.9-2.5,0.9c-0.2,0-0.3,0-0.5,0l0.5-1.9c0.2,0,0.3,0,0.5,0c0.9,0,1.5-0.5,2-1.3h2.7v9.4
		l4.4-9.4H38v9.4l4.4-9.4h3.2l-7.5,14.9h-2.8l-0.1-7l-3.5,7H29V30.7z"/>
	<path class="st2" d="M47.9,33.9l-2.5,9.4h-2.7l2.5-9.4H47.9z M47.3,32.4c-0.4,0-0.8-0.1-1.1-0.3c-0.3-0.2-0.5-0.5-0.5-0.8
		c0-0.3,0.2-0.6,0.5-0.9c0.3-0.2,0.7-0.4,1.1-0.4c0.5,0,0.8,0.1,1.2,0.3c0.3,0.2,0.5,0.5,0.5,0.8c0,0.3-0.2,0.6-0.5,0.9
		C48.1,32.2,47.7,32.3,47.3,32.4z"/>
	<path class="st2" d="M55.9,44.8c0.3,0,0.6-0.1,0.9-0.4l0.6,1.8c-0.6,0.7-1.5,1-2.7,1.1c-0.8,0-1.4-0.3-1.9-0.8
		c-0.4-0.5-0.6-0.9-0.7-1.4c0,0.1,0.1-0.5,0.2-1.7l1.6-6.3c0-0.1,0-0.1,0-0.2c0-0.2-0.1-0.4-0.3-0.5c-0.1-0.1-0.2-0.1-0.3-0.1
		c-0.2,0-0.5,0.1-0.8,0.3c-0.2,0.2-0.4,0.3-0.6,0.5c-0.2,0.2-0.3,0.4-0.5,0.6L50,43.3h-2.7l2.5-9.4h2.7l-0.1,0.6
		c0.7-0.4,1.5-0.6,2.2-0.6c0.3,0,0.5,0,0.7,0.1c1.1,0.5,1.6,1.3,1.6,2.4c0,0.2,0,0.4-0.1,0.6L55,43.3C55,44.2,55.3,44.7,55.9,44.8z"
		/>
	<path class="st2" d="M65.1,44.8c0.3,0,0.6-0.1,0.9-0.4l0.6,1.8c-0.6,0.7-1.5,1-2.7,1.1c-0.8,0-1.4-0.3-1.9-0.8
		c-0.4-0.5-0.6-0.9-0.7-1.4c0,0.1,0.1-0.5,0.2-1.7l1.6-6.3c0-0.1,0-0.1,0-0.2c0-0.2-0.1-0.4-0.3-0.5c-0.1-0.1-0.2-0.1-0.3-0.1
		c-0.2,0-0.5,0.1-0.8,0.3c-0.2,0.2-0.4,0.3-0.6,0.5c-0.2,0.2-0.3,0.4-0.5,0.6l-1.5,5.7h-2.7l2.5-9.4h2.7l-0.2,0.6
		c0.7-0.4,1.5-0.6,2.2-0.6c0.3,0,0.5,0,0.7,0.1c1.1,0.5,1.6,1.3,1.6,2.4c0,0.2,0,0.4-0.1,0.6l-1.7,6.3
		C64.2,44.2,64.5,44.7,65.1,44.8z"/>
	<path class="st2" d="M68.7,40.2c0.1,0.6,0.3,0.9,0.6,1.1c0.1,0.1,0.2,0.1,0.3,0.2c1,0,1.8-0.3,2.5-1.1L71.4,43
		c-0.6,0.4-1.2,0.5-1.8,0.5c-0.6,0-1.1-0.1-1.7-0.4c-1.2-0.6-1.8-1.7-1.8-3.4c0-0.9,0.2-1.8,0.6-2.7c0.5-1,1.1-1.7,1.9-2.3
		c0.8-0.6,1.6-0.9,2.5-0.9c0.5,0,0.9,0.1,1.3,0.3c1,0.4,1.6,1.1,1.6,2.4c0,0.2,0,0.4-0.1,0.6c-0.2,0.8-0.7,1.6-1.5,2.2
		c-0.8,0.6-1.7,1-2.7,1C69.4,40.3,69,40.2,68.7,40.2z M68.9,38.4c0.3,0.1,0.5,0.1,0.8,0.1c0.7,0,1.2-0.2,1.6-0.5
		c0.4-0.4,0.7-0.8,0.7-1.2c0-0.2-0.1-0.4-0.2-0.6c-0.2-0.2-0.3-0.3-0.6-0.3c-0.5,0-0.9,0.3-1.4,0.9C69.3,37.4,69,37.9,68.9,38.4z"/>
	<path class="st2" d="M80.7,34.1l-0.6,2.6c-0.3-0.2-0.7-0.3-1-0.3c-0.7,0-1.3,0.5-1.6,1.4l-1.5,5.5h-2.7l2.5-9.4h2.7l-0.2,0.6
		c0.6-0.4,1.2-0.6,1.8-0.6C80.3,33.9,80.5,34,80.7,34.1z"/>
</g>
<g>
	<path class="st10" d="M26,66.7l0.3,0.9c0.4,1.1,0,1.8-1,2.2c-1,0.4-1.8-0.1-2.1-1.1L22,65.2c-0.4-1.1,0-1.8,1-2.2
		c1-0.4,1.8,0.1,2.1,1.1l0.2,0.6l-1,0.3l-0.2-0.7c-0.2-0.5-0.4-0.6-0.8-0.5c-0.3,0.1-0.5,0.4-0.3,0.8l1.2,3.6
		c0.2,0.5,0.4,0.6,0.8,0.5c0.3-0.1,0.5-0.4,0.3-0.8L25,67L26,66.7z"/>
	<path class="st10" d="M26,63.9c-0.3-1.1,0.1-1.8,1.1-2.2c1-0.3,1.8,0.1,2.1,1.2l1,3.5c0.3,1.1-0.1,1.8-1.1,2.2
		c-1,0.3-1.8-0.1-2.1-1.2L26,63.9z M28.1,67.1c0.1,0.5,0.4,0.6,0.7,0.5c0.3-0.1,0.5-0.3,0.3-0.8l-1.1-3.6c-0.1-0.5-0.4-0.6-0.7-0.5
		C27,62.8,26.9,63,27,63.5L28.1,67.1z"/>
	<path class="st10" d="M31.3,62.6l1.2,4.9l-1,0.2L29.8,61l1.3-0.3l2.1,3.8l-1-4l0.9-0.2l1.7,6.8l-1.1,0.3L31.3,62.6z"/>
	<path class="st10" d="M36.7,62.6l1.5-0.3l0.4,2.2c0.2,1.1-0.2,1.8-1.3,2c-1.1,0.2-1.7-0.3-1.9-1.4l-0.7-3.6c-0.2-1.1,0.2-1.8,1.3-2
		c1.1-0.2,1.7,0.3,1.9,1.4l0.1,0.7l-1,0.2L36.9,61c-0.1-0.5-0.3-0.6-0.7-0.6c-0.3,0.1-0.5,0.3-0.4,0.8l0.7,3.7
		c0.1,0.5,0.3,0.6,0.7,0.6s0.5-0.3,0.4-0.8l-0.3-1.3l-0.5,0.1L36.7,62.6z"/>
	<path class="st10" d="M42,65.6c-0.1-0.2-0.1-0.3-0.2-0.8l-0.2-1.1c-0.1-0.6-0.3-0.8-0.8-0.8L40.4,63l0.4,2.8L39.8,66l-1-6.9
		l1.6-0.2c1.1-0.2,1.7,0.3,1.8,1.3l0.1,0.5c0.1,0.7,0,1.2-0.5,1.5c0.6,0.1,0.8,0.6,0.9,1.4l0.2,1.1c0.1,0.3,0.1,0.6,0.2,0.8L42,65.6
		z M40,59.9l0.3,2.1l0.4-0.1c0.4-0.1,0.6-0.3,0.5-0.8l-0.1-0.7c-0.1-0.5-0.3-0.7-0.7-0.6L40,59.9z"/>
	<path class="st10" d="M47.4,65l-1.1,0.1L46,63.9L44.6,64l-0.1,1.3l-1,0.1l0.4-7l1.6-0.2L47.4,65z M44.7,63.1l1-0.1l-0.9-3.5
		L44.7,63.1z"/>
	<path class="st10" d="M47,58.1l3.4-0.2l0.1,1l-1.1,0.1l0.3,6l-1.1,0.1l-0.3-6L47,59L47,58.1z"/>
	<path class="st10" d="M52.4,57.8l0,5.4c0,0.5,0.2,0.7,0.6,0.7c0.3,0,0.6-0.2,0.6-0.7l0-5.4l1,0l0,5.3c0,1.1-0.5,1.8-1.6,1.8
		c-1.1,0-1.6-0.6-1.6-1.7l0-5.3L52.4,57.8z"/>
	<path class="st10" d="M55.8,57.8l1.1,0l-0.3,6l1.8,0.1l0,1l-2.9-0.1L55.8,57.8z"/>
	<path class="st10" d="M62.5,65.3l-1.1-0.1l-0.1-1.3L60,63.8L59.7,65l-1-0.1l1.8-6.8l1.6,0.2L62.5,65.3z M60.2,62.9l1,0.1l-0.2-3.6
		L60.2,62.9z"/>
	<path class="st10" d="M63.5,58.4l3.3,0.5l-0.1,1l-1.1-0.2l-0.9,5.9l-1.1-0.2l0.9-5.9l-1.1-0.2L63.5,58.4z"/>
	<path class="st10" d="M67.8,59.1l1.1,0.2l-1.3,6.8l-1.1-0.2L67.8,59.1z"/>
	<path class="st10" d="M69.6,61.2c0.3-1.1,1-1.6,2-1.3c1,0.3,1.5,1,1.2,2.1L72,65.5c-0.3,1.1-1,1.6-2,1.3c-1-0.3-1.5-1-1.2-2.1
		L69.6,61.2z M69.8,65c-0.1,0.5,0,0.7,0.4,0.8c0.3,0.1,0.6,0,0.7-0.5l0.9-3.7c0.1-0.5-0.1-0.7-0.4-0.8c-0.3-0.1-0.6,0-0.7,0.5
		L69.8,65z"/>
	<path class="st10" d="M74.8,62.8l-1.5,4.8l-0.9-0.3l2.1-6.6l1.3,0.4l-0.2,4.3l1.3-4l0.9,0.3l-2.1,6.6L74.6,68L74.8,62.8z"/>
	<path class="st10" d="M80.5,62.7c1,0.4,1.3,1.2,0.9,2.2l-0.1,0.2l-1-0.4l0.1-0.3c0.2-0.5,0.1-0.7-0.3-0.8c-0.3-0.1-0.6,0-0.8,0.4
		c-0.5,1.3,1.4,2.4,0.6,4.2c-0.4,1-1.2,1.4-2.2,1c-1-0.4-1.3-1.2-0.9-2.2l0.2-0.4l1,0.4l-0.2,0.5c-0.2,0.5,0,0.7,0.3,0.8
		c0.3,0.1,0.6,0,0.8-0.4c0.5-1.3-1.4-2.4-0.6-4.2C78.7,62.7,79.5,62.3,80.5,62.7z"/>
</g>
</svg>
