<?xml version="1.0" encoding="utf-8"?>
<!-- Generator: Adobe Illustrator 24.1.1, SVG Export Plug-In . SVG Version: 6.00 Build 0)  -->
<svg version="1.1" id="Layer_1" xmlns="http://www.w3.org/2000/svg" xmlns:xlink="http://www.w3.org/1999/xlink" x="0px" y="0px"
	 viewBox="0 0 1280 1024" style="enable-background:new 0 0 1280 1024;" xml:space="preserve">
<style type="text/css">
	.st0{fill:#EFF2F4;}
	.st1{fill:#D6EDFF;}
	.st2{fill:#FFFFFF;}
	.st3{fill:#EFF7FF;}
	.st4{fill:#20AEFF;}
	.st5{opacity:0.5;}
	.st6{fill:#D3D9DD;}
	.st7{fill:#92CAEF;}
</style>
<path class="st0" d="M1209.36,102.04v16.21H72.86v787c0,20.85,16.12,37.75,36,37.75h1065c19.88,0,36-16.9,36-37.75V108.29
	C1209.86,106.16,1209.69,104.07,1209.36,102.04z"/>
<path class="st1" d="M1209.5,102.04C1206.66,85,1191.85,72,1174,72H109c-19.88,0-36,16.12-36,36v9.5h1136.5V102.04z"/>
<g>
	<g>
		<rect x="162.14" y="164.5" class="st2" width="451.86" height="457.99"/>
	</g>
	<g>
		<rect x="161.84" y="643.02" class="st2" width="958.05" height="50"/>
	</g>
	<g>
		<rect x="631.09" y="164" class="st2" width="489.05" height="457.99"/>
	</g>
	<g>
		<rect x="640.27" y="184.5" class="st3" width="451.86" height="105.96"/>
	</g>
	<path class="st1" d="M162.14,622.5l110.6-195.23c2.76-4.87,8.94-6.6,13.83-3.86l115.22,64.58c8.31,4.66,18.48,4.53,26.67-0.34
		l65.61-38.99c8.49-5.05,19.16-4.58,27.18,1.18L614,516.54V622.5H162.14"/>
	<circle class="st4" cx="689.31" cy="237.92" r="35.03"/>
	<circle class="st1" cx="521.53" cy="366.32" r="35.03"/>
	<g class="st5">
		<path class="st6" d="M1045.72,337.31H653.41c-7.25,0-13.14-5.88-13.14-13.14v0c0-7.25,5.88-13.14,13.14-13.14h392.32
			c7.25,0,13.14,5.88,13.14,13.14v0C1058.86,331.43,1052.98,337.31,1045.72,337.31z"/>
	</g>
	<path class="st1" d="M1060.61,230.04H753.24c-7.25,0-13.14-5.88-13.14-13.14v0c0-7.25,5.88-13.14,13.14-13.14h307.37
		c7.25,0,13.14,5.88,13.14,13.14v0C1073.75,224.16,1067.87,230.04,1060.61,230.04z"/>
	<path class="st1" d="M976,268.57H753.24c-7.25,0-13.14-5.88-13.14-13.14v0c0-7.25,5.88-13.14,13.14-13.14H976
		c7.25,0,13.14,5.88,13.14,13.14v0C989.14,262.69,983.26,268.57,976,268.57z"/>
	<g class="st5">
		<path class="st6" d="M1046,379.08H653.41c-7.25,0-13.14-5.88-13.14-13.14v0c0-7.25,5.88-13.14,13.14-13.14H1046
			c7.25,0,13.14,5.88,13.14,13.14v0C1059.14,373.2,1053.26,379.08,1046,379.08z"/>
	</g>
	<g class="st5">
		<path class="st6" d="M1046,420.86H653.41c-7.25,0-13.14-5.88-13.14-13.14l0,0c0-7.25,5.88-13.14,13.14-13.14H1046
			c7.25,0,13.14,5.88,13.14,13.14l0,0C1059.14,414.97,1053.26,420.86,1046,420.86z"/>
	</g>
	<g class="st5">
		<path class="st6" d="M1046,462.63H653.41c-7.25,0-13.14-5.88-13.14-13.14v0c0-7.25,5.88-13.14,13.14-13.14H1046
			c7.25,0,13.14,5.88,13.14,13.14v0C1059.14,456.75,1053.26,462.63,1046,462.63z"/>
	</g>
	<g class="st5">
		<path class="st6" d="M1046,504.4H653.41c-7.25,0-13.14-5.88-13.14-13.14v0c0-7.25,5.88-13.14,13.14-13.14H1046
			c7.25,0,13.14,5.88,13.14,13.14v0C1059.14,498.52,1053.26,504.4,1046,504.4z"/>
	</g>
	<g class="st5">
		<path class="st6" d="M1046,546.17H653.41c-7.25,0-13.14-5.88-13.14-13.14v0c0-7.25,5.88-13.14,13.14-13.14H1046
			c7.25,0,13.14,5.88,13.14,13.14v0C1059.14,540.29,1053.26,546.17,1046,546.17z"/>
	</g>
	<g class="st5">
		<path class="st6" d="M739,588.17h-85.59c-7.25,0-13.14-5.88-13.14-13.14v0c0-7.25,5.88-13.14,13.14-13.14H739
			c7.25,0,13.14,5.88,13.14,13.14v0C752.14,582.29,746.26,588.17,739,588.17z"/>
	</g>
	<g class="st5">
		<path class="st6" d="M275,681.15h-85.59c-7.25,0-13.14-5.88-13.14-13.14v0c0-7.25,5.88-13.14,13.14-13.14H275
			c7.25,0,13.14,5.88,13.14,13.14v0C288.14,675.27,282.26,681.15,275,681.15z"/>
	</g>
	<g>
		<rect x="162.84" y="714.22" class="st2" width="958.05" height="86.98"/>
	</g>
	<circle class="st4" cx="207.31" cy="757.71" r="35.03"/>
	<path class="st1" d="M578.61,749.83H271.24c-7.25,0-13.14-5.88-13.14-13.14l0,0c0-7.25,5.88-13.14,13.14-13.14h307.37
		c7.25,0,13.14,5.88,13.14,13.14l0,0C591.75,743.95,585.87,749.83,578.61,749.83z"/>
	<path class="st1" d="M494,788.36H271.24c-7.25,0-13.14-5.88-13.14-13.14v0c0-7.25,5.88-13.14,13.14-13.14H494
		c7.25,0,13.14,5.88,13.14,13.14v0C507.14,782.48,501.26,788.36,494,788.36z"/>
	<g class="st5">
		<path class="st6" d="M1056,770.96h-85.59c-7.25,0-13.14-5.88-13.14-13.14l0,0c0-7.25,5.88-13.14,13.14-13.14H1056
			c7.25,0,13.14,5.88,13.14,13.14l0,0C1069.14,765.08,1063.26,770.96,1056,770.96z"/>
	</g>
	<g>
		<rect x="162.84" y="818.22" class="st2" width="958.05" height="86.98"/>
	</g>
	<circle class="st4" cx="207.31" cy="861.71" r="35.03"/>
	<path class="st1" d="M578.61,853.83H271.24c-7.25,0-13.14-5.88-13.14-13.14l0,0c0-7.25,5.88-13.14,13.14-13.14h307.37
		c7.25,0,13.14,5.88,13.14,13.14l0,0C591.75,847.95,585.87,853.83,578.61,853.83z"/>
	<path class="st1" d="M494,892.36H271.24c-7.25,0-13.14-5.88-13.14-13.14v0c0-7.25,5.88-13.14,13.14-13.14H494
		c7.25,0,13.14,5.88,13.14,13.14v0C507.14,886.48,501.26,892.36,494,892.36z"/>
	<g class="st5">
		<path class="st6" d="M1056,874.96h-85.59c-7.25,0-13.14-5.88-13.14-13.14l0,0c0-7.25,5.88-13.14,13.14-13.14H1056
			c7.25,0,13.14,5.88,13.14,13.14l0,0C1069.14,869.08,1063.26,874.96,1056,874.96z"/>
	</g>
</g>
<circle class="st7" cx="116.56" cy="95.22" r="8.44"/>
<circle class="st7" cx="139.56" cy="95.22" r="8.44"/>
<circle class="st7" cx="162.56" cy="95.22" r="8.44"/>
</svg>
