<?xml version="1.0" encoding="utf-8"?>
<!-- Generator: Adobe Illustrator 16.0.3, SVG Export Plug-In . SVG Version: 6.00 Build 0)  -->
<!DOCTYPE svg PUBLIC "-//W3C//DTD SVG 1.1//EN" "http://www.w3.org/Graphics/SVG/1.1/DTD/svg11.dtd">
<svg version="1.1" id="Layer_1" xmlns="http://www.w3.org/2000/svg" xmlns:xlink="http://www.w3.org/1999/xlink" x="0px" y="0px"
	 width="360px" height="120px" viewBox="121.5 31.5 360 120" enable-background="new 121.5 31.5 360 120" xml:space="preserve">
<linearGradient id="SVGID_1_" gradientUnits="userSpaceOnUse" x1="102.2715" y1="57.4575" x2="570.8071" y2="64.5072">
	<stop  offset="0" style="stop-color:#E3106E"/>
	<stop  offset="1" style="stop-color:#A20B4F"/>
</linearGradient>
<path fill="url(#SVGID_1_)" d="M202.373,59.411l-0.286,0.572c-0.858,1.145-1.431,0.858-1.431,0.858
	c-0.286,0-0.572-0.572-0.572-0.572c-0.572-1.431-0.286-3.72-0.286-3.72c0-0.572-0.287,0-0.287,0v0.286
	c-0.286,0.572-1.145,2.003-1.145,2.003c-0.572,0.858-0.858,0.572-0.858,0.572c-0.572,0-0.858-1.717-0.858-1.717
	c-0.286-1.145-0.572-3.433-0.572-3.433c-0.286-0.858-0.286,0.286-0.286,0.286c0,0.286-0.286,1.717-0.286,1.717
	c0,0.572-0.572,2.002-0.572,2.002c-0.286,1.145-0.572,1.145-0.572,1.145c-0.286,0-0.858-0.572-0.858-0.572
	c-0.572-0.858-1.145-2.003-1.145-2.003c-0.286-0.572-0.286,0.286-0.286,0.286c0,0.858-0.286,2.289-0.286,2.289
	c0,1.431-0.858,1.717-0.858,1.717c-0.286-0.572-0.572-0.858-0.572-0.858c-0.572-0.286-1.145-1.145-1.145-1.145s0-0.286-0.286-0.286
	c-0.287,0,0,0.572,0,0.858l1.145,4.006c5.722-2.289,11.158,0,11.158,0S202.659,59.983,202.373,59.411
	C202.945,58.839,202.373,59.411,202.373,59.411z"/>
<linearGradient id="SVGID_2_" gradientUnits="userSpaceOnUse" x1="101.7217" y1="93.7104" x2="570.2796" y2="100.7605">
	<stop  offset="0" style="stop-color:#E3106E"/>
	<stop  offset="1" style="stop-color:#A20B4F"/>
</linearGradient>
<path fill="url(#SVGID_2_)" d="M162.03,105.476c0,14.02-4.006,21.173-12.303,21.173c-3.147,0-5.722-0.573-7.439-2.003l-0.858-0.573
	v10.587h0.286c2.003,0.858,4.864,1.431,8.011,1.431c6.867,0,12.589-2.862,16.595-8.297c4.005-5.437,6.294-12.876,6.294-22.604
	V53.117H162.03V105.476z"/>
<linearGradient id="SVGID_3_" gradientUnits="userSpaceOnUse" x1="101.5713" y1="104.2012" x2="570.0948" y2="111.2507">
	<stop  offset="0" style="stop-color:#E3106E"/>
	<stop  offset="1" style="stop-color:#A20B4F"/>
</linearGradient>
<rect x="190.642" y="76.292" fill="url(#SVGID_3_)" width="10.3" height="58.654"/>
<linearGradient id="SVGID_4_" gradientUnits="userSpaceOnUse" x1="101.6919" y1="95.6123" x2="570.2548" y2="102.6624">
	<stop  offset="0" style="stop-color:#E3106E"/>
	<stop  offset="1" style="stop-color:#A20B4F"/>
</linearGradient>
<path fill="url(#SVGID_4_)" d="M231.557,59.125l-10.3,3.434v13.733h-10.014v8.87h10.014v33.476c0,11.444,5.15,17.453,15.736,17.453
	c3.72,0,6.581-0.573,8.87-2.003l0.286-0.286v-9.156l-0.858,0.572c-1.717,1.145-3.433,1.717-5.722,1.717
	c-2.861,0-4.864-0.858-6.009-2.289c-1.145-1.431-1.717-4.292-1.717-8.011V85.162h14.592v-8.87h-14.592V59.125H231.557z"/>
<linearGradient id="SVGID_5_" gradientUnits="userSpaceOnUse" x1="101.5811" y1="102.7993" x2="570.1489" y2="109.8495">
	<stop  offset="0" style="stop-color:#E3106E"/>
	<stop  offset="1" style="stop-color:#A20B4F"/>
</linearGradient>
<path fill="url(#SVGID_5_)" d="M279.624,74.861c-7.725,0-14.02,2.861-19.17,8.583c-5.15,5.723-7.725,13.161-7.725,22.317
	c0,9.442,2.289,17.167,7.153,22.317c4.864,5.437,11.159,8.012,19.456,8.012s15.164-2.003,20.314-5.723l0.286-0.286v-9.728
	l-0.858,0.572c-5.436,4.292-11.159,6.294-17.453,6.294c-5.437,0-10.014-1.716-13.162-5.15c-3.147-3.147-4.864-8.011-4.864-14.02
	h40.628v-5.436c0-8.87-2.002-15.737-6.294-20.601C293.072,77.437,287.063,74.861,279.624,74.861z M263.315,99.468
	c0.858-4.578,2.575-8.297,5.436-11.159s6.581-4.578,10.586-4.578c4.292,0,7.725,1.43,10.014,4.292
	c2.289,2.861,3.72,6.581,3.72,11.445H263.315z"/>
<linearGradient id="SVGID_6_" gradientUnits="userSpaceOnUse" x1="101.7578" y1="91.3442" x2="570.3148" y2="98.3943">
	<stop  offset="0" style="stop-color:#E3106E"/>
	<stop  offset="1" style="stop-color:#A20B4F"/>
</linearGradient>
<path fill="url(#SVGID_6_)" d="M328.836,105.476c0,14.02-4.006,21.173-12.303,21.173c-3.147,0-5.723-0.573-7.439-2.003l-0.858-0.573
	v10.587l0.286,0.286c2.003,0.858,4.864,1.43,8.012,1.43c6.866,0,12.589-2.861,16.595-8.297s6.295-12.875,6.295-22.603V53.117
	h-10.587V105.476z"/>
<linearGradient id="SVGID_7_" gradientUnits="userSpaceOnUse" x1="101.6079" y1="101.3789" x2="570.1643" y2="108.4289">
	<stop  offset="0" style="stop-color:#E3106E"/>
	<stop  offset="1" style="stop-color:#A20B4F"/>
</linearGradient>
<path fill="url(#SVGID_7_)" d="M377.476,74.861c-7.438,0-14.02,1.717-19.741,5.437l-0.286,0.286v10.872l0.857-0.858
	c5.437-4.578,11.731-6.866,18.312-6.866c7.439,0,11.159,4.578,11.159,13.733l-16.882,2.289c-12.875,1.717-19.455,8.297-19.455,19.17
	c0,5.15,1.717,9.442,5.15,12.589c3.433,3.147,8.011,4.578,13.733,4.578c7.438,0,13.161-3.147,17.453-9.156v8.012h10.3V96.893
	C398.362,82.3,391.21,74.861,377.476,74.861z M388.063,110.912c0,4.864-1.431,8.583-4.292,11.731s-6.581,4.578-10.872,4.578
	c-3.147,0-5.723-0.858-7.726-2.575c-2.003-1.717-2.861-3.72-2.861-6.581c0-3.719,1.145-6.294,3.147-7.725l0,0
	c2.003-1.431,5.15-2.575,9.442-3.147l13.161-1.717V110.912z"/>
<linearGradient id="SVGID_8_" gradientUnits="userSpaceOnUse" x1="101.6162" y1="100.9219" x2="570.1703" y2="107.9719">
	<stop  offset="0" style="stop-color:#E3106E"/>
	<stop  offset="1" style="stop-color:#A20B4F"/>
</linearGradient>
<path fill="url(#SVGID_8_)" d="M460.735,83.159c-2.86-3.147-6.58-5.437-10.872-6.867c-0.286,0-0.572-0.286-0.858-0.286h-0.286
	c-1.145-0.286-2.003-0.572-3.147-0.572h-0.286c-0.285,0-0.572,0-0.858,0h-0.286c-0.285,0-0.572,0-0.858,0h-0.285l0,0
	c-0.859,0-1.431,0-2.289,0c-9.156,0-16.309,2.861-21.745,8.298c-5.437,5.436-8.012,13.161-8.012,22.889
	c0,8.87,2.575,16.309,7.726,21.745c5.149,5.437,12.017,8.297,20.601,8.297c8.869,0,16.021-2.861,21.172-8.583
	c4.292-4.578,6.867-10.586,7.726-17.739l0.286-5.15C468.175,95.462,465.6,88.309,460.735,83.159L460.735,83.159z M453.011,121.784
	c-3.147,3.72-7.439,5.723-13.447,5.723c-5.723,0-10.301-2.002-13.734-5.723c-3.433-3.719-5.149-9.155-5.149-15.736
	c0-6.867,1.717-12.303,5.149-16.309c1.718-2.003,3.72-3.434,6.009-4.292s4.864-1.431,7.726-1.431c5.722,0,10.3,2.003,13.161,5.723
	c2.003,2.575,3.434,6.008,4.292,10.014c0.285,2.003,0.572,4.006,0.572,6.295C457.589,112.629,456.158,118.065,453.011,121.784z"/>
</svg>
