<?xml version="1.0" encoding="utf-8"?>
<!-- Generator: Adobe Illustrator 24.1.1, SVG Export Plug-In . SVG Version: 6.00 Build 0)  -->
<svg version="1.1" id="Layer_1" xmlns="http://www.w3.org/2000/svg" xmlns:xlink="http://www.w3.org/1999/xlink" x="0px" y="0px"
	 viewBox="0 0 36.7 47" style="enable-background:new 0 0 36.7 47;" xml:space="preserve">
<style type="text/css">
	.st0{opacity:0.5;fill:url(#SVGID_1_);}
</style>
<linearGradient id="SVGID_1_" gradientUnits="userSpaceOnUse" x1="-0.4794" y1="42.0235" x2="27.0063" y2="-5.5831">
	<stop  offset="0" style="stop-color:#F2F2F2;stop-opacity:0.3"/>
	<stop  offset="1" style="stop-color:#007BFF;stop-opacity:0.2"/>
</linearGradient>
<path class="st0" d="M0,42.3c0-0.1,0.9-0.6,1-0.6c0.7-0.6,1.4-1.3,2-2c1.2-1.5,1.6-3.5,2.8-5c1.6-2,3.9-2.3,6.4-2.1
	c2.2,0.1,4.6,0,6.7-0.9c2-0.8,3.2-2.4,4.2-4.3c1.2-2.3,3.9-5,6.7-4.7c0,0,7,0.7,6.9-5.6l0-17.1H0C0,0,0,42.3,0,42.3z"/>
</svg>
