<?xml version="1.0" encoding="utf-8"?>
<!-- Generator: Adobe Illustrator 24.1.1, SVG Export Plug-In . SVG Version: 6.00 Build 0)  -->
<svg version="1.1" id="Layer_1" xmlns="http://www.w3.org/2000/svg" xmlns:xlink="http://www.w3.org/1999/xlink" x="0px" y="0px"
	 viewBox="0 0 80 80" style="enable-background:new 0 0 80 80;" xml:space="preserve">
<style type="text/css">
	.st0{fill:#DA2F76;}
</style>
<path class="st0" d="M71.7,41.18c0.03-0.04,0.04-0.08,0.07-0.13c0.04-0.08,0.09-0.16,0.13-0.24c0.03-0.06,0.04-0.13,0.06-0.2
	c0.02-0.07,0.05-0.13,0.06-0.2c0.05-0.28,0.05-0.56,0-0.84c-0.01-0.07-0.04-0.13-0.06-0.2c-0.02-0.07-0.03-0.13-0.06-0.2
	c-0.03-0.08-0.08-0.16-0.13-0.24c-0.02-0.04-0.04-0.09-0.07-0.13c-0.08-0.12-0.17-0.23-0.27-0.33L50.06,17.12
	c-0.83-0.83-2.19-0.83-3.02,0c-0.83,0.83-0.83,2.19,0,3.02l17.72,17.72H10.08c-1.18,0-2.14,0.96-2.14,2.14s0.96,2.14,2.14,2.14
	h54.68L47.04,59.86c-0.83,0.83-0.83,2.19,0,3.02c0.42,0.42,0.96,0.63,1.51,0.63s1.09-0.21,1.51-0.63l21.37-21.37
	C71.53,41.42,71.62,41.3,71.7,41.18z"/>
</svg>
