<?xml version="1.0" encoding="utf-8"?>
<!-- Generator: Adobe Illustrator 24.1.1, SVG Export Plug-In . SVG Version: 6.00 Build 0)  -->
<svg version="1.1" id="Layer_1" xmlns="http://www.w3.org/2000/svg" xmlns:xlink="http://www.w3.org/1999/xlink" x="0px" y="0px"
	 viewBox="0 0 80 80" style="enable-background:new 0 0 80 80;" xml:space="preserve">
<style type="text/css">
	.st0{fill:#DA2F76;}
</style>
<g>
	<path class="st0" d="M58.5,34.3l-19.1,11v-22c0-0.9-0.7-1.6-1.6-1.6c-14.6,0-26.5,11.9-26.5,26.5s11.9,26.5,26.5,26.5
		s26.5-11.9,26.5-26.5c0-4.6-1.2-9.2-3.6-13.3C60.3,34.1,59.3,33.8,58.5,34.3z M51.5,42.1c0.9,1.5,1.3,3.2,1.2,4.9
		c-0.1,0.7-0.1,1.4,0,2.2c0.2,1.9-0.3,3.9-1.5,5.4c-0.4,0.6-0.8,1.2-1.1,1.9c-0.8,1.8-2.2,3.2-4,4c-0.7,0.3-1.3,0.7-1.9,1.1
		c-1.6,1.1-3.5,1.7-5.4,1.5c-0.7-0.1-1.4-0.1-2.2,0c-1.9,0.2-3.9-0.3-5.4-1.5c-0.6-0.4-1.2-0.8-1.9-1.1c-1.8-0.8-3.2-2.2-4-4
		c-0.3-0.7-0.7-1.3-1.1-1.9c-1.1-1.6-1.6-3.5-1.5-5.4c0.1-0.7,0.1-1.4,0-2.2c-0.2-1.9,0.3-3.9,1.5-5.4c0.4-0.6,0.8-1.2,1.1-1.9
		c0.8-1.8,2.2-3.2,4-4c0.7-0.3,1.3-0.7,1.9-1.1c1.4-1,3.1-1.5,4.9-1.5v14.9c0,0.6,0.3,1.1,0.8,1.4c0.5,0.3,1.1,0.3,1.6,0L51.5,42.1z
		 M37.8,71.4c-12.8,0-23.2-10.4-23.2-23.2c0-12.3,9.5-22.3,21.6-23.2v5c-2.4,0-4.8,0.6-6.8,2.1c-0.4,0.3-0.9,0.6-1.3,0.8
		c-2.5,1.1-4.5,3.1-5.6,5.6c-0.2,0.5-0.5,0.9-0.8,1.3c-1.6,2.2-2.3,4.9-2.1,7.7c0.1,0.5,0.1,1,0,1.5c-0.3,2.7,0.5,5.4,2.1,7.7
		c0.3,0.4,0.6,0.9,0.8,1.3c1.1,2.5,3.1,4.5,5.6,5.6c0.5,0.2,0.9,0.5,1.3,0.8c2.2,1.6,4.9,2.3,7.7,2.1c0.5,0,1,0,1.5,0
		c0.4,0,0.7,0.1,1.1,0.1c2.4,0,4.7-0.7,6.6-2.1c0.4-0.3,0.9-0.6,1.3-0.8c2.5-1.1,4.5-3.1,5.6-5.6c0.2-0.5,0.5-0.9,0.8-1.3
		c1.6-2.2,2.3-4.9,2.1-7.7c0-0.5,0-1,0-1.5c0.2-2.4-0.4-4.8-1.6-6.9l4.3-2.5c1.5,3.2,2.4,6.6,2.4,10.2C61,60.9,50.6,71.4,37.8,71.4z
		"/>
	<path class="st0" d="M70.1,18.6c-4.7-8.2-13.5-13.3-23-13.3c-0.9,0-1.6,0.7-1.6,1.6v24.9c0,0.9,0.7,1.6,1.6,1.6c0,0,0.1,0,0.1,0
		c0.3,0,0.6-0.1,0.8-0.2l21.5-12.4c0.4-0.2,0.7-0.6,0.8-1C70.4,19.5,70.3,19,70.1,18.6z M48.8,17c1.7,0,3.4,0.4,4.9,1.5
		c0.6,0.4,1.2,0.8,1.9,1.1c1.6,0.7,2.9,2,3.7,3.5l-10.5,6V17z M62.1,21.4c-1.2-2.1-3-3.8-5.2-4.8c-0.5-0.2-0.9-0.5-1.3-0.8
		c-2-1.4-4.4-2.1-6.8-2.1v-5c7.1,0.5,13.6,4.3,17.6,10.2L62.1,21.4z"/>
	<path class="st0" d="M34.6,55.2c-0.6,0.6-0.6,1.9,0,2.6c0.3,0.3,0.8,0.5,1.3,0.5c0.5,0,1-0.2,1.3-0.5c0.6-0.6,0.6-1.9,0-2.6
		S35.3,54.6,34.6,55.2z"/>
	<path class="st0" d="M45.8,54.8c0.5,0,1-0.2,1.3-0.5c0.6-0.6,0.6-1.9,0-2.6s-1.9-0.6-2.6,0c-0.6,0.6-0.6,1.9,0,2.6
		C44.8,54.7,45.3,54.8,45.8,54.8z"/>
	<path class="st0" d="M28,45.2c-0.6,0.6-0.6,1.9,0,2.6c0.3,0.3,0.8,0.5,1.3,0.5c0.5,0,1-0.2,1.3-0.5c0.6-0.6,0.6-1.9,0-2.6
		S28.7,44.6,28,45.2z"/>
</g>
</svg>
