<?xml version="1.0" encoding="utf-8"?>
<!-- Generator: Adobe Illustrator 24.1.1, SVG Export Plug-In . SVG Version: 6.00 Build 0)  -->
<svg version="1.1" id="Layer_1" xmlns="http://www.w3.org/2000/svg" xmlns:xlink="http://www.w3.org/1999/xlink" x="0px" y="0px"
	 viewBox="0 0 80 80" style="enable-background:new 0 0 80 80;" xml:space="preserve">
<style type="text/css">
	.st0{fill:#DA2F76;}
</style>
<path class="st0" d="M71.6,35l-3.4-3.4l5.8-1.4c1-0.3,1.6-1.3,1.4-2.3c-0.3-1-1.3-1.6-2.3-1.4l-5.6,1.4l-2.3-9.7
	c-1.2-5.1-5.7-8.6-10.9-8.6H25.9c-5.1,0-9.5,3.4-10.8,8.3l-2.7,10l-5.7-1.4c-1-0.3-2,0.4-2.3,1.4c-0.3,1,0.4,2,1.4,2.3l5.8,1.4
	L8.2,35c-2.5,2.5-3.8,5.8-3.8,9.3V62v5.6c0,3.1,2.5,5.6,5.6,5.6h7.5c3.1,0,5.6-2.5,5.6-5.6v-3.7h33.7v3.7c0,3.1,2.5,5.6,5.6,5.6h7.5
	c3.1,0,5.6-2.5,5.6-5.6V62V44.2C75.5,40.7,74.1,37.4,71.6,35z M18.7,18.9c0.9-3.3,3.8-5.6,7.2-5.6h28.4c3.5,0,6.5,2.4,7.3,5.7
	l2.6,11.1H15.7L18.7,18.9z M10.9,37.6l3.6-3.6h50.8l3.6,3.6c1.8,1.8,2.7,4.1,2.7,6.6v1.1l-9.5,0.8c-1,0.1-1.8,1-1.7,2
	c0.1,1,0.9,1.7,1.9,1.7c0.1,0,0.1,0,0.2,0l9.2-0.8v11.1H56.2l-3.3-9.9c-0.3-0.8-1-1.3-1.8-1.3H28.7c-0.8,0-1.5,0.5-1.8,1.3l-3.3,9.9
	H8.1V49.1l9.2,0.8c0.1,0,0.1,0,0.2,0c1,0,1.8-0.7,1.9-1.7c0.1-1-0.7-1.9-1.7-2l-9.5-0.8v-1.1C8.1,41.7,9.1,39.4,10.9,37.6z
	 M52.3,60.1H27.6l2.5-7.5h19.7L52.3,60.1z M19.4,67.6c0,1-0.8,1.9-1.9,1.9H10c-1,0-1.9-0.8-1.9-1.9v-3.7h11.2V67.6z M69.9,69.5h-7.5
	c-1,0-1.9-0.8-1.9-1.9v-3.7h11.2v3.7C71.7,68.7,70.9,69.5,69.9,69.5z"/>
</svg>
