<?xml version="1.0" encoding="utf-8"?>
<!-- Generator: Adobe Illustrator 24.1.1, SVG Export Plug-In . SVG Version: 6.00 Build 0)  -->
<svg version="1.1" id="Layer_1" xmlns="http://www.w3.org/2000/svg" xmlns:xlink="http://www.w3.org/1999/xlink" x="0px" y="0px"
	 viewBox="0 0 15.6 16.8" style="enable-background:new 0 0 15.6 16.8;" xml:space="preserve">
<style type="text/css">
	.st0{fill:#7D8693;}
</style>
<g>
	<path class="st0" d="M12.7,2.5H2.9C1.4,2.5,0.3,3.6,0.3,5v6.7c0,1.4,1.1,2.6,2.6,2.6h1.9h0.8H10h1.6h1.1c1.4,0,2.6-1.1,2.6-2.6V5
		C15.2,3.7,14.1,2.5,12.7,2.5z M14.1,11.9c0,0.8-0.6,1.4-1.4,1.4H2.9c-0.8,0-1.4-0.6-1.4-1.4V5.1c0-0.8,0.6-1.4,1.4-1.4h9.8
		c0.8,0,1.4,0.6,1.4,1.4V11.9z"/>
	<polygon class="st0" points="10.7,7.8 8.5,7.8 8.5,5.6 7.3,5.6 7.3,7.8 5,7.8 5,9 7.3,9 7.3,11.2 8.5,11.2 8.5,9 10.7,9 	"/>
</g>
</svg>
