<?xml version="1.0" encoding="utf-8"?>
<!-- Generator: Adobe Illustrator 24.1.1, SVG Export Plug-In . SVG Version: 6.00 Build 0)  -->
<svg version="1.1" id="Layer_1" xmlns="http://www.w3.org/2000/svg" xmlns:xlink="http://www.w3.org/1999/xlink" x="0px" y="0px"
	 viewBox="0 0 30 30" style="enable-background:new 0 0 30 30;" xml:space="preserve">
<style type="text/css">
	.st0{fill:#7D8693;}
</style>
<g>
	<path class="st0" d="M20.2,10.2h-9.6c-1.4,0-2.5,1.1-2.5,2.5v6.6c0,1.4,1.1,2.5,2.5,2.5h1.9h0.8h4.3h1.6h1.1c1.4,0,2.5-1.1,2.5-2.5
		v-6.6C22.7,11.4,21.6,10.2,20.2,10.2z M21.6,19.4c0,0.8-0.6,1.4-1.4,1.4h-9.6c-0.8,0-1.4-0.6-1.4-1.4v-6.6c0-0.8,0.6-1.4,1.4-1.4
		h9.6c0.8,0,1.4,0.6,1.4,1.4V19.4z"/>
	<polygon class="st0" points="18.3,15.4 16.1,15.4 16.1,13.3 14.9,13.3 14.9,15.4 12.7,15.4 12.7,16.6 14.9,16.6 14.9,18.7 
		16.1,18.7 16.1,16.6 18.3,16.6 	"/>
</g>
</svg>
