<?xml version="1.0" encoding="utf-8"?>
<!-- Generator: Adobe Illustrator 24.1.1, SVG Export Plug-In . SVG Version: 6.00 Build 0)  -->
<svg version="1.1" id="Layer_1" xmlns="http://www.w3.org/2000/svg" xmlns:xlink="http://www.w3.org/1999/xlink" x="0px" y="0px"
	 viewBox="0 0 30 30" style="enable-background:new 0 0 30 30;" xml:space="preserve">
<style type="text/css">
	.st0{fill:#F9F9F9;stroke:#FAFBFC;stroke-width:0.1;stroke-miterlimit:10;}
</style>
<path class="st0" d="M10.4,16.8c-0.2,0-0.3-0.1-0.6-0.2l-3-3c-0.6-0.6,0-1.4,0.2-1.7c0.3-0.6,0.9-1.3,1.5-1.8
	C9.2,9.4,9.8,9,10.3,8.6c0.3-0.2,1.1-0.8,1.7-0.2l3,3c0.6,0.6,0,1.4-0.2,1.7c-0.3,0.6-0.9,1.3-1.5,1.8c-0.7,0.7-1.3,1.1-1.8,1.5
	C11.3,16.5,10.8,16.8,10.4,16.8L10.4,16.8z M11.6,8.9c-0.1,0-1,0.5-2.4,1.8c-1.3,1.3-1.7,2.2-1.7,2.4l3,2.9c0.1,0,1-0.5,2.4-1.8
	c1.3-1.3,1.7-2.2,1.7-2.4L11.6,8.9z"/>
<path class="st0" d="M8.9,18.8c-0.3,0-0.7-0.1-0.9-0.3l-3-3c-0.2-0.2-0.3-0.6-0.3-0.9c0-0.3,0.1-0.7,0.3-0.9L5.5,13
	c0.5-0.5,1.3-0.5,1.8,0l3,3c0.5,0.5,0.5,1.3,0,1.8l-0.6,0.6C9.6,18.6,9.2,18.8,8.9,18.8L8.9,18.8z M6.6,13.5c-0.1,0-0.2,0-0.3,0.1
	l-0.6,0.6c-0.1,0.1-0.1,0.2-0.1,0.3s0,0.2,0.1,0.3l3,3c0.1,0.1,0.5,0.1,0.6,0l0.6-0.6c0.1-0.1,0.1-0.5,0-0.6l-3-3
	C6.8,13.5,6.7,13.5,6.6,13.5L6.6,13.5z"/>
<path class="st0" d="M15.4,12.2c-0.3,0-0.7-0.1-0.9-0.3l-3-3C11,8.4,11,7.6,11.5,7l0.6-0.6c0.5-0.5,1.3-0.5,1.8,0l3,3
	c0.5,0.5,0.5,1.3,0,1.8l-0.6,0.6C16.1,12.1,15.7,12.2,15.4,12.2L15.4,12.2z M13.1,6.9c-0.1,0-0.2,0-0.3,0.1l-0.6,0.6
	c-0.1,0.1-0.1,0.5,0,0.6l3,3c0.1,0.1,0.5,0.1,0.6,0l0.6-0.6c0.1-0.1,0.1-0.5,0-0.6l-3-3C13.2,6.9,13.2,6.9,13.1,6.9L13.1,6.9z
	 M16.7,10.9L16.7,10.9L16.7,10.9z"/>
<path class="st0" d="M20,23c-0.5,0-1-0.3-1.6-0.9s-4-4.4-6.2-6.9c-0.1-0.2-0.1-0.5,0-0.6c0.2-0.1,0.5-0.1,0.6,0
	c2.2,2.6,5.6,6.3,6.1,6.8c0.9,0.9,1.4,0.6,1.5,0.3c0.1-0.1,0.2-0.2,0.2-0.5c0-0.2-0.2-0.7-0.6-1.1c-0.5-0.5-4.2-3.9-6.8-6.1
	c-0.2-0.1-0.2-0.5,0-0.6c0.1-0.2,0.5-0.2,0.6,0c2.5,2.2,6.3,5.6,6.9,6.2c0.6,0.6,0.9,1.3,0.9,1.8s-0.3,0.8-0.5,0.9
	C20.8,22.9,20.3,23,20,23L20,23z"/>
</svg>
