<?xml version="1.0" encoding="utf-8"?>
<!-- Generator: Adobe Illustrator 24.1.1, SVG Export Plug-In . SVG Version: 6.00 Build 0)  -->
<svg version="1.1" id="Layer_1" xmlns="http://www.w3.org/2000/svg" xmlns:xlink="http://www.w3.org/1999/xlink" x="0px" y="0px"
	 viewBox="0 0 30 30" style="enable-background:new 0 0 30 30;" xml:space="preserve">
<style type="text/css">
	.st0{fill:#7D8693;}
</style>
<path class="st0" d="M23,12.6c-0.2-0.6-0.4-1.1-0.7-1.6c-0.8-1.3-1.8-2.3-3.1-3.1C18,7.2,16.6,6.8,15,6.8S12,7.2,10.8,8
	C9.5,8.7,8.5,9.7,7.7,11c-0.3,0.5-0.5,1-0.7,1.6c-0.3,0.8-0.4,1.7-0.4,2.7c0,1.5,0.4,3,1.1,4.2c0.8,1.3,1.8,2.3,3.1,3.1
	c1.3,0.8,2.7,1.1,4.2,1.1c1.5,0,3-0.4,4.2-1.1c1.3-0.8,2.3-1.8,3.1-3.1c0.8-1.3,1.1-2.7,1.1-4.2C23.4,14.3,23.3,13.4,23,12.6z
	 M19.8,18c-0.5,0.8-1.2,1.5-2,2c-0.8,0.5-1.7,0.7-2.8,0.7s-1.9-0.3-2.8-0.7c-0.8-0.5-1.5-1.2-2-2c-0.5-0.8-0.7-1.7-0.7-2.8
	c0-1,0.2-1.9,0.7-2.7c0,0,0-0.1,0.1-0.1c0.5-0.8,1.2-1.5,2-2C13.1,10,14,9.8,15,9.8c1,0,1.9,0.3,2.8,0.7c0.8,0.5,1.5,1.2,2,2
	c0,0,0,0.1,0.1,0.1c0.5,0.8,0.7,1.7,0.7,2.7C20.5,16.3,20.2,17.2,19.8,18z"/>
<path class="st0" d="M15,12.6c-1.5,0-2.7,1.2-2.7,2.7s1.2,2.7,2.7,2.7s2.7-1.2,2.7-2.7S16.5,12.6,15,12.6z"/>
</svg>
