<?xml version="1.0" encoding="utf-8"?>
<!-- Generator: Adobe Illustrator 16.0.3, SVG Export Plug-In . SVG Version: 6.00 Build 0)  -->
<!DOCTYPE svg PUBLIC "-//W3C//DTD SVG 1.1//EN" "http://www.w3.org/Graphics/SVG/1.1/DTD/svg11.dtd">
<svg version="1.1" id="Layer_1" xmlns="http://www.w3.org/2000/svg" xmlns:xlink="http://www.w3.org/1999/xlink" x="0px" y="0px"
	 width="25px" height="27px" viewBox="0 0 25 27" enable-background="new 0 0 25 27" xml:space="preserve">
<path fill="#DA2F76" d="M12.5,1.641C5.609,1.641,0,7.09,0,13.82S5.609,26,12.5,26C19.391,26,25,20.551,25,13.82
	S19.391,1.641,12.5,1.641z M12.5,22.635c-4.808,0-8.654-3.846-8.654-8.654S7.692,5.327,12.5,5.327s8.654,3.846,8.654,8.654
	S17.308,22.635,12.5,22.635z"/>
<path fill="#DA2F76" d="M16.506,13.5c0-2.244-1.762-4.006-4.006-4.006c-2.244,0-4.006,1.763-4.006,4.006
	c0,2.244,1.763,4.006,4.006,4.006C14.744,17.506,16.506,15.744,16.506,13.5z"/>
</svg>
