<?xml version="1.0" encoding="utf-8"?>
<!-- Generator: Adobe Illustrator 24.1.1, SVG Export Plug-In . SVG Version: 6.00 Build 0)  -->
<svg version="1.1" id="Layer_1" xmlns="http://www.w3.org/2000/svg" xmlns:xlink="http://www.w3.org/1999/xlink" x="0px" y="0px"
	 viewBox="0 0 30 30" style="enable-background:new 0 0 30 30;" xml:space="preserve">
<style type="text/css">
	.st0{fill:#7D8693;stroke:#7D8693;stroke-width:0.5;stroke-miterlimit:10;}
</style>
<g>
	<polygon class="st0" points="15.2,19 11.1,14.8 12,13.9 15.2,17 21.8,10.2 22.9,11.3 	"/>
	<path class="st0" d="M15.1,24.4c-5.1,0-9.2-4.2-9.2-9.2s4.2-9.3,9.2-9.3c1.5,0,2.8,0.4,4.2,1.1l-0.7,1.2c-1.1-0.5-2.2-0.9-3.5-0.9
		c-4.3,0-7.9,3.6-7.9,8.1s3.5,7.9,7.9,7.9s7.9-3.5,7.9-7.9h1.3C24.4,20.2,20.2,24.4,15.1,24.4z"/>
</g>
</svg>
