<?xml version="1.0" encoding="utf-8"?>
<!-- Generator: Adobe Illustrator 16.0.3, SVG Export Plug-In . SVG Version: 6.00 Build 0)  -->
<!DOCTYPE svg PUBLIC "-//W3C//DTD SVG 1.1//EN" "http://www.w3.org/Graphics/SVG/1.1/DTD/svg11.dtd">
<svg version="1.1" id="Layer_1" xmlns="http://www.w3.org/2000/svg" xmlns:xlink="http://www.w3.org/1999/xlink" x="0px" y="0px"
	 width="1920px" height="800px" viewBox="0 0 1920 800" enable-background="new 0 0 1920 800" xml:space="preserve">
<path fill="#7D8693" d="M920,376H784c-8,0-13.333-5.333-13.333-13.333V224c0-8,5.333-13.333,13.333-13.333h136
	c8,0,13.333,5.333,13.333,13.333v136C936,368,928,376,920,376z M800,346.667h106.667V240H800V346.667z"/>
<path fill="#7D8693" d="M1136,376h-136c-8,0-13.333-5.333-13.333-13.333V224c0-8,5.333-13.333,13.333-13.333h136
	c8,0,13.333,5.333,13.333,13.333v136C1149.333,368,1144,376,1136,376z M1013.333,346.667H1120V240h-106.667V346.667z"/>
<path fill="#7D8693" d="M920,589.333H784c-8,0-13.333-5.333-13.333-13.333V440c0-8,5.333-13.333,13.333-13.333h136
	c8,0,13.333,5.333,13.333,13.333v136C936,584,928,589.333,920,589.333z M800,560h106.667V453.333H800V560z"/>
<path fill="#7D8693" d="M1136,589.333h-136c-8,0-13.333-5.333-13.333-13.333V440c0-8,5.333-13.333,13.333-13.333h136
	c8,0,13.333,5.333,13.333,13.333v136C1149.333,584,1144,589.333,1136,589.333z M1013.333,560H1120V453.333h-106.667V560z"/>
</svg>
