<?xml version="1.0" encoding="utf-8"?>
<!-- Generator: Adobe Illustrator 24.1.1, SVG Export Plug-In . SVG Version: 6.00 Build 0)  -->
<svg version="1.1" id="Layer_1" xmlns="http://www.w3.org/2000/svg" xmlns:xlink="http://www.w3.org/1999/xlink" x="0px" y="0px"
	 viewBox="0 0 30 30" style="enable-background:new 0 0 30 30;" xml:space="preserve">
<style type="text/css">
	.st0{fill:#FFFFFF;}
</style>
<g>
	<path class="st0" d="M21.7,5.6H8.3c-1.5,0-2.7,1.2-2.7,2.7v9.5c0,1.5,1.2,2.7,2.7,2.7h3l-0.8,3c-0.1,0.4,0.1,0.7,0.5,0.9h0.1
		c0.2,0,0.6-0.2,0.7-0.5l0.9-3.3h4.6l0.9,3.3c0.1,0.2,0.4,0.5,0.7,0.5c0,0,0,0,0.1,0c0.4-0.1,0.6-0.5,0.5-0.9l-0.8-3h2.9
		c1.6,0,2.8-1.2,2.8-2.7V8.3C24.5,6.8,23.2,5.6,21.7,5.6z M23,17.7c0,0.6-0.5,1.2-1.2,1.2H8.3C7.6,19,7,18.5,7,17.7V8.2
		C7,7.6,7.5,7,8.3,7h13.5C22.4,7,23,7.5,23,8.2V17.7z"/>
	<path class="st0" d="M10.6,12.5c-0.4,0-0.7,0.4-0.7,0.7v2.6c0,0.4,0.4,0.7,0.7,0.7s0.7-0.2,0.7-0.7v-2.6
		C11.4,12.9,11,12.5,10.6,12.5z"/>
	<path class="st0" d="M13.5,9.3c-0.4,0-0.7,0.4-0.7,0.7v5.8c0,0.4,0.4,0.7,0.7,0.7c0.5,0,0.7-0.2,0.7-0.7v-5.8
		C14.2,9.7,13.8,9.3,13.5,9.3z"/>
	<path class="st0" d="M16.4,11.9c-0.4,0-0.7,0.4-0.7,0.7v3.2c0,0.4,0.4,0.7,0.7,0.7c0.4,0,0.7-0.2,0.7-0.7v-3.2
		C17.2,12.3,16.8,11.9,16.4,11.9z"/>
	<path class="st0" d="M19.3,9.8c-0.4,0-0.7,0.4-0.7,0.7v5.3c0,0.4,0.4,0.7,0.7,0.7c0.5,0,0.7-0.2,0.7-0.7v-5.3
		C20,10.2,19.6,9.8,19.3,9.8z"/>
</g>
</svg>
