<?xml version="1.0" encoding="utf-8"?>
<!-- Generator: Adobe Illustrator 24.1.1, SVG Export Plug-In . SVG Version: 6.00 Build 0)  -->
<svg version="1.1" id="Layer_1" xmlns="http://www.w3.org/2000/svg" xmlns:xlink="http://www.w3.org/1999/xlink" x="0px" y="0px"
	 viewBox="0 0 30 30" style="enable-background:new 0 0 30 30;" xml:space="preserve">
<style type="text/css">
	.st0{fill:#7D8693;stroke:#7D8693;stroke-width:0.5;stroke-miterlimit:10;}
</style>
<rect x="11.8" y="11.6" class="st0" width="6.7" height="0.7"/>
<rect x="11.8" y="9.1" class="st0" width="7.7" height="0.7"/>
<rect x="11.8" y="14.1" class="st0" width="5.5" height="0.7"/>
<rect x="11.8" y="16.8" class="st0" width="3.2" height="0.7"/>
<path class="st0" d="M15.3,22.3h-4c-1.1,0-2-0.9-2-2V8.9c0-1.1,0.9-2,2-2h8.2c1.1,0,2,0.9,2,2v4.9h-0.8V8.9c0-0.7-0.5-1.3-1.3-1.3
	h-8.2c-0.6,0-1.3,0.5-1.3,1.3v11.4c0,0.7,0.5,1.3,1.3,1.3h4L15.3,22.3L15.3,22.3z"/>
<path class="st0" d="M19.6,22.3h-2.2v-2.2l5.3-5.3l0,0c0.2-0.2,0.5-0.4,0.8-0.4s0.6,0.1,0.8,0.4l0.5,0.5c0.2,0.2,0.4,0.5,0.4,0.8
	c0,0.4-0.1,0.6-0.4,0.8L19.6,22.3z M18.2,21.5h1.1l5-5c0.1-0.1,0.1-0.2,0.1-0.3c0-0.1,0-0.2-0.1-0.3l-0.5-0.5
	c-0.2-0.2-0.5-0.2-0.6,0l0,0l-5,4.9V21.5z"/>
</svg>
