<?xml version="1.0" encoding="utf-8"?>
<!-- Generator: Adobe Illustrator 24.1.1, SVG Export Plug-In . SVG Version: 6.00 Build 0)  -->
<svg version="1.1" id="Layer_1" xmlns="http://www.w3.org/2000/svg" xmlns:xlink="http://www.w3.org/1999/xlink" x="0px" y="0px"
	 viewBox="0 0 25 25" style="enable-background:new 0 0 25 25;" xml:space="preserve">
<style type="text/css">
	.st0{fill:#3B5998;}
</style>
<path class="st0" d="M17,2.8H8C5.1,2.8,2.8,5.1,2.8,8v9c0,2.9,2.4,5.2,5.2,5.2h9c2.9,0,5.2-2.4,5.2-5.2V8C22.3,5.1,19.9,2.8,17,2.8z
	 M20.8,17c0,2.1-1.7,3.7-3.7,3.7h-2.9v-6.6H17c0.4,0,0.8-0.3,0.8-0.8s-0.3-0.8-0.8-0.8h-2.8v-1.1c0-1.1,0.9-1.9,1.9-1.9H17
	c0.4,0,0.8-0.3,0.8-0.8S17.4,8.2,17,8.2h-0.9c-1.9,0-3.4,1.5-3.4,3.4v1.1h-1.1c-0.4,0-0.8,0.3-0.8,0.8s0.3,0.8,0.8,0.8h1.1v6.6H8
	c-2.1,0-3.7-1.7-3.7-3.7V8c0-2.1,1.7-3.8,3.8-3.8h9c2.1,0,3.7,1.7,3.7,3.7V17z"/>
</svg>
