<?xml version="1.0" encoding="utf-8"?>
<!-- Generator: Adobe Illustrator 24.1.1, SVG Export Plug-In . SVG Version: 6.00 Build 0)  -->
<svg version="1.1" id="Layer_1" xmlns="http://www.w3.org/2000/svg" xmlns:xlink="http://www.w3.org/1999/xlink" x="0px" y="0px"
	 viewBox="0 0 15.6 16.8" style="enable-background:new 0 0 15.6 16.8;" xml:space="preserve">
<style type="text/css">
	.st0{fill:#7D8693;stroke:#7D8693;stroke-width:0.25;stroke-miterlimit:10;}
</style>
<path class="st0" d="M15.4,16.2H9.6v-4.4c0-1-0.8-1.8-1.8-1.8S6,10.8,6,11.8v4.4H0.3v-8C0.3,7.6,0.5,7,1,6.6l6-6
	c0.3-0.3,0.6-0.4,0.9-0.4l0,0c0.4,0,0.7,0.1,0.9,0.4l6,6c0.4,0.4,0.7,1,0.7,1.6v8H15.4z M10.5,15.4h4V8.2c0-0.4-0.1-0.7-0.4-0.9
	l-6-6C8,1.2,7.9,1.1,7.8,1.1l0,0c-0.1,0-0.2,0-0.3,0.1l-6,6c-0.2,0.3-0.4,0.6-0.4,1v7.2h4v-3.6c0-1.5,1.2-2.7,2.7-2.7
	s2.7,1.2,2.7,2.7V15.4z"/>
</svg>
