<?xml version="1.0" encoding="utf-8"?>
<!-- Generator: Adobe Illustrator 16.0.3, SVG Export Plug-In . SVG Version: 6.00 Build 0)  -->
<!DOCTYPE svg PUBLIC "-//W3C//DTD SVG 1.1//EN" "http://www.w3.org/Graphics/SVG/1.1/DTD/svg11.dtd">
<svg version="1.1" id="Layer_1" xmlns="http://www.w3.org/2000/svg" xmlns:xlink="http://www.w3.org/1999/xlink" x="0px" y="0px"
	 width="25px" height="27px" viewBox="0 0 25 27" enable-background="new 0 0 25 27" xml:space="preserve">
<path fill="none" stroke="#7D8693" stroke-width="1.8" stroke-miterlimit="10" d="M23.535,14.476l-0.476,0.948
	c-1.421,1.896-2.369,1.422-2.369,1.422c-0.475,0-0.948-0.947-0.948-0.947c-0.947-2.371-0.474-6.164-0.474-6.164
	c0-0.948-0.474,0-0.474,0v0.475c-0.475,0.948-1.897,3.318-1.897,3.318c-0.948,1.423-1.422,0.948-1.422,0.948
	c-0.947,0-1.422-2.845-1.422-2.845c-0.474-1.896-0.948-5.687-0.948-5.687c-0.475-1.424-0.475,0.472-0.475,0.472
	c0,0.474-0.474,2.844-0.474,2.844c0,0.949-0.948,3.319-0.948,3.319c-0.474,1.896-0.948,1.896-0.948,1.896
	c-0.474,0-1.422-0.948-1.422-0.948c-0.949-1.422-1.896-3.318-1.896-3.318c-0.474-0.949-0.474,0.474-0.474,0.474
	c0,1.422-0.474,3.792-0.474,3.792c0,2.37-1.422,2.844-1.422,2.844c-0.473-0.947-0.948-1.421-0.948-1.421
	c-0.948-0.475-1.896-1.897-1.896-1.897s0-0.474-0.473-0.474c-0.475,0,0,0.948,0,1.423l1.897,6.636c9.48-3.792,18.488,0,18.488,0
	S24.008,15.424,23.535,14.476C24.483,13.527,23.535,14.476,23.535,14.476z"/>
</svg>
