<?xml version="1.0" encoding="utf-8"?>
<!-- Generator: Adobe Illustrator 16.0.3, SVG Export Plug-In . SVG Version: 6.00 Build 0)  -->
<!DOCTYPE svg PUBLIC "-//W3C//DTD SVG 1.1//EN" "http://www.w3.org/Graphics/SVG/1.1/DTD/svg11.dtd">
<svg version="1.1" id="Layer_1" xmlns="http://www.w3.org/2000/svg" xmlns:xlink="http://www.w3.org/1999/xlink" x="0px" y="0px"
	 width="59px" height="60px" viewBox="0 0 59 60" enable-background="new 0 0 59 60" xml:space="preserve">
<path fill="none" stroke="#FFFFFF" stroke-width="1.5" stroke-linecap="round" stroke-linejoin="round" d="M24.314,20.213
	l12.916,7.64c1.635,0.967,1.635,3.331,0,4.296l-12.916,7.64c-1.666,0.985-3.769-0.216-3.769-2.149V22.362
	C20.546,20.428,22.649,19.228,24.314,20.213z"/>
<path fill="none" stroke="#FFFFFF" stroke-width="1.5" stroke-linecap="round" stroke-linejoin="round" d="M58.25,30
	c0,15.879-12.871,28.75-28.75,28.75l0,0C13.622,58.75,0.75,45.879,0.75,30l0,0c0-15.879,12.871-28.75,28.75-28.75l0,0
	C45.379,1.25,58.25,14.121,58.25,30L58.25,30z"/>
</svg>
