<?xml version="1.0" encoding="utf-8"?>
<!-- Generator: Adobe Illustrator 16.0.3, SVG Export Plug-In . SVG Version: 6.00 Build 0)  -->
<!DOCTYPE svg PUBLIC "-//W3C//DTD SVG 1.1//EN" "http://www.w3.org/Graphics/SVG/1.1/DTD/svg11.dtd">
<svg version="1.1" id="Layer_1" xmlns="http://www.w3.org/2000/svg" xmlns:xlink="http://www.w3.org/1999/xlink" x="0px" y="0px"
	 width="59px" height="60px" viewBox="0 0 59 60" enable-background="new 0 0 59 60" xml:space="preserve">
<path opacity="0.5" fill="none" stroke="#0062FF" stroke-width="2" stroke-linecap="round" stroke-linejoin="round" d="
	M24.382,20.34l12.748,7.54c1.613,0.955,1.613,3.288,0,4.24l-12.748,7.54c-1.644,0.973-3.72-0.213-3.72-2.121V22.462
	C20.663,20.553,22.738,19.368,24.382,20.34z"/>
<path opacity="0.5" fill="none" stroke="#0062FF" stroke-width="2" stroke-linecap="round" stroke-linejoin="round" d="M57.875,30
	c0,15.672-12.703,28.375-28.375,28.375l0,0C13.829,58.375,1.125,45.672,1.125,30l0,0c0-15.672,12.703-28.375,28.375-28.375l0,0
	C45.172,1.625,57.875,14.328,57.875,30L57.875,30z"/>
</svg>
