<?xml version="1.0" encoding="utf-8"?>
<!-- Generator: Adobe Illustrator 24.1.1, SVG Export Plug-In . SVG Version: 6.00 Build 0)  -->
<svg version="1.1" id="Layer_1" xmlns="http://www.w3.org/2000/svg" xmlns:xlink="http://www.w3.org/1999/xlink" x="0px" y="0px"
	 viewBox="0 0 25 25" style="enable-background:new 0 0 25 25;" xml:space="preserve">
<style type="text/css">
	.st0{fill:#C32AA3;}
</style>
<g>
	<path class="st0" d="M17,22.4H8c-2.9,0-5.3-2.4-5.3-5.3V8C2.7,5.1,5,2.7,8,2.7H17c2.9,0,5.3,2.4,5.3,5.3v9.1
		C22.3,20,20,22.4,17,22.4z M8,4.2C5.9,4.2,4.2,5.9,4.2,8v9.1c0,2.1,1.7,3.8,3.8,3.8H17c2.1,0,3.8-1.7,3.8-3.8V8
		c0-2.1-1.7-3.8-3.8-3.8H8z"/>
	<path class="st0" d="M17.5,8.6c-0.6,0-1.1-0.5-1.1-1.1c0-0.6,0.5-1.1,1.1-1.1c0,0,0,0,0,0c0.3,0,0.6,0.1,0.8,0.3
		c0.2,0.2,0.3,0.5,0.3,0.8C18.6,8.2,18.1,8.6,17.5,8.6z M17.5,7.1c-0.2,0-0.4,0.2-0.4,0.4c0,0.1,0,0.2,0.1,0.3
		C17.3,7.9,17.4,8,17.5,8h0c0.2,0,0.4-0.2,0.4-0.4C17.9,7.3,17.7,7.1,17.5,7.1z"/>
	<path class="st0" d="M12.5,16.9c-1.1,0-2.2-0.4-3.1-1.3c-1.7-1.7-1.7-4.5,0-6.2c1.7-1.7,4.5-1.7,6.2,0c1.7,1.7,1.7,4.5,0,6.2
		C14.7,16.5,13.6,16.9,12.5,16.9z M12.5,9.7c-0.7,0-1.5,0.3-2,0.8c-1.1,1.1-1.1,2.9,0,4.1s2.9,1.1,4.1,0s1.1-2.9,0-4.1
		C14,9.9,13.2,9.7,12.5,9.7z"/>
</g>
</svg>
