<?xml version="1.0" encoding="utf-8"?>
<!-- Generator: Adobe Illustrator 16.0.3, SVG Export Plug-In . SVG Version: 6.00 Build 0)  -->
<!DOCTYPE svg PUBLIC "-//W3C//DTD SVG 1.1//EN" "http://www.w3.org/Graphics/SVG/1.1/DTD/svg11.dtd">
<svg version="1.1" id="Layer_1" xmlns="http://www.w3.org/2000/svg" xmlns:xlink="http://www.w3.org/1999/xlink" x="0px" y="0px"
	 width="25px" height="27px" viewBox="0 0 25 27" enable-background="new 0 0 25 27" xml:space="preserve">
<path fill="#7D8693" d="M9.981,12.043H1.534c-0.593,0-0.889-0.296-0.889-0.889V2.56C0.793,2.115,1.09,1.818,1.534,1.818h8.447
	c0.592,0,0.889,0.297,0.889,0.889v8.446C11.018,11.451,10.425,12.043,9.981,12.043z M2.571,10.265H9.24V3.596H2.571V10.265z"/>
<path fill="#7D8693" d="M23.466,12.043h-8.447c-0.592,0-0.889-0.296-0.889-0.889V2.56c0-0.593,0.297-0.89,0.889-0.89h8.447
	c0.445,0.148,0.742,0.445,0.742,0.89v8.446C24.208,11.451,23.911,12.043,23.466,12.043z M15.76,10.265h6.669V3.596H15.76V10.265z"/>
<path fill="#7D8693" d="M9.981,25.232H1.534c-0.444,0-0.741-0.298-0.741-0.741v-8.447c0-0.593,0.296-0.889,0.889-0.889h8.447
	c0.593,0,0.889,0.296,0.889,0.889v8.447C11.018,24.935,10.425,25.232,9.981,25.232z M2.571,23.454H9.24v-6.669H2.571V23.454z"/>
<path fill="#7D8693" d="M23.466,25.232h-8.447c-0.592,0-0.889-0.298-0.889-0.889v-8.448c0-0.593,0.297-0.889,0.889-0.889h8.447
	c0.593,0,0.89,0.296,0.89,0.889v8.448C24.208,24.935,23.911,25.232,23.466,25.232z M15.76,23.454h6.669v-6.669H15.76V23.454z"/>
</svg>
