<?xml version="1.0" encoding="utf-8"?>
<!-- Generator: Adobe Illustrator 24.1.1, SVG Export Plug-In . SVG Version: 6.00 Build 0)  -->
<svg version="1.1" id="Layer_1" xmlns="http://www.w3.org/2000/svg" xmlns:xlink="http://www.w3.org/1999/xlink" x="0px" y="0px"
	 viewBox="0 0 30 30" style="enable-background:new 0 0 30 30;" xml:space="preserve">
<style type="text/css">
	.st0{fill:#7D8693;}
</style>
<g>
	<path class="st0" d="M19.9,7.9h-9.6c-1.4,0-2.5,1.1-2.5,2.5v6.6c0,1.4,1.1,2.5,2.5,2.5H13l-0.2,1.9h-0.5c-0.3,0-0.6,0.3-0.6,0.6
		c0,0.3,0.3,0.6,0.6,0.6H18c0.3,0,0.6-0.3,0.6-0.6c0-0.3-0.3-0.6-0.6-0.6h-0.5l-0.2-1.9h2.7c1.4,0,2.5-1.1,2.5-2.5v-6.6
		C22.4,9.1,21.3,7.9,19.9,7.9z M16.4,21.5h-2.5l0.2-1.9h2L16.4,21.5z M21.3,17.1c0,0.8-0.6,1.4-1.4,1.4h-9.6c-0.8,0-1.4-0.6-1.4-1.4
		v-6.6c0-0.8,0.6-1.4,1.4-1.4h9.6c0.8,0,1.4,0.6,1.4,1.4V17.1z"/>
	<path class="st0" d="M17.2,13.1c-0.2-0.2-0.5-0.2-0.8-0.2c-0.2,0-0.4,0.1-0.5,0.2c-0.1,0.1-0.2,0.3-0.3,0.5c0,0.1,0,0.3,0,0.4
		c0,0.3,0.1,0.5,0.3,0.6c0.2,0.1,0.4,0.2,0.6,0.2h0.1c0,0,0,0.1,0,0.1c-0.1,0.5-0.5,0.9-1,1.2c-0.1,0.1-0.3,0.1-0.5,0.1
		c-0.3,0-0.5-0.2-0.5-0.5v-1.6h0.9c0,0,0.1,0,0.1-0.1c0,0,0-0.1,0-0.1l-0.2-0.2c-0.1-0.1-0.2-0.2-0.2-0.2c-0.2-0.2-0.4-0.3-0.6-0.3
		v-0.4c0-0.4,0-0.8,0-1c0-0.1,0-0.2,0-0.2c0-0.3-0.1-0.5-0.3-0.7c-0.1-0.2-0.3-0.3-0.5-0.3c-0.1,0-0.1,0-0.2,0h-0.6
		c0,0-0.1,0-0.1,0.1c0,0.2,0,0.3,0,0.5c0,0.2,0,0.3,0,0.5c0,0,0,0.1,0.1,0.1l0.5,0l0.1,0c0,0,0.1,0,0.1,0c0,0,0,0,0,0
		c0.1,0.1,0.1,0.2,0.1,0.3v1.1h-1.2c0,0-0.1,0-0.1,0.1c0,0,0,0.1,0,0.1l0.2,0.2c0.2,0.2,0.3,0.3,0.4,0.4c0,0,0.1,0.1,0.2,0.1
		c0,0,0,0,0,0c0.1,0,0.2,0,0.4,0v0.5c0,0.6,0,1,0,1.3c0,0.2,0.1,0.4,0.2,0.6c0.4,0.4,0.8,0.7,1.3,0.7c0.2,0,0.4,0,0.6-0.1
		c0.8-0.3,1.5-0.9,1.8-1.8c0,0,0,0,0,0c0.2-0.4,0.2-0.9,0.1-1.3C17.6,13.5,17.4,13.2,17.2,13.1z"/>
</g>
</svg>
