<?xml version="1.0" encoding="utf-8"?>
<!-- Generator: Adobe Illustrator 24.1.1, SVG Export Plug-In . SVG Version: 6.00 Build 0)  -->
<svg version="1.1" id="Layer_1" xmlns="http://www.w3.org/2000/svg" xmlns:xlink="http://www.w3.org/1999/xlink" x="0px" y="0px"
	 viewBox="0 0 30 30" style="enable-background:new 0 0 30 30;" xml:space="preserve">
<style type="text/css">
	.st0{fill:#7D8693;}
</style>
<path class="st0" d="M18.3,23.2c-0.3,0-0.5-0.2-0.6-0.4l-0.8-3.1c-0.1-0.3,0.1-0.6,0.4-0.7c0.3-0.1,0.6,0.1,0.7,0.4l0.8,3.1
	c0.1,0.3-0.1,0.6-0.4,0.7C18.3,23.2,18.3,23.2,18.3,23.2z"/>
<path class="st0" d="M12,23.2c0,0-0.1,0-0.1,0c-0.3-0.1-0.5-0.4-0.4-0.7l0.8-3.1c0.1-0.3,0.4-0.5,0.7-0.4c0.3,0.1,0.5,0.4,0.4,0.7
	l-0.8,3.1C12.5,23,12.2,23.2,12,23.2z"/>
<path class="st0" d="M20.5,20.1H9.7c-1.2,0-2.2-1-2.2-2.2v-7.7c0-1.2,1-2.2,2.2-2.2h10.9c1.2,0,2.2,1,2.2,2.2v7.7
	C22.8,19.1,21.8,20.1,20.5,20.1z M9.7,9.1c-0.6,0-1,0.5-1,1v7.7c0,0.6,0.5,1,1,1h10.9c0.6,0,1-0.5,1-1v-7.7c0-0.6-0.5-1-1-1H9.7z"/>
<path class="st0" d="M11.6,16.9c-0.3,0-0.6-0.3-0.6-0.6v-2.1c0-0.3,0.3-0.6,0.6-0.6c0.3,0,0.6,0.3,0.6,0.6v2.1
	C12.2,16.7,11.9,16.9,11.6,16.9z"/>
<path class="st0" d="M13.9,16.9c-0.3,0-0.6-0.3-0.6-0.6v-4.7c0-0.3,0.3-0.6,0.6-0.6s0.6,0.3,0.6,0.6v4.7
	C14.5,16.7,14.3,16.9,13.9,16.9z"/>
<path class="st0" d="M16.3,16.9c-0.3,0-0.6-0.3-0.6-0.6v-2.6c0-0.3,0.3-0.6,0.6-0.6c0.3,0,0.6,0.3,0.6,0.6v2.6
	C16.9,16.7,16.6,16.9,16.3,16.9z"/>
<path class="st0" d="M18.6,16.9c-0.3,0-0.6-0.3-0.6-0.6v-4.3c0-0.3,0.3-0.6,0.6-0.6s0.6,0.3,0.6,0.6v4.3
	C19.2,16.7,19,16.9,18.6,16.9z"/>
</svg>
