<?xml version="1.0" encoding="utf-8"?>
<!-- Generator: Adobe Illustrator 24.1.1, SVG Export Plug-In . SVG Version: 6.00 Build 0)  -->
<svg version="1.1" id="Layer_1" xmlns="http://www.w3.org/2000/svg" xmlns:xlink="http://www.w3.org/1999/xlink" x="0px" y="0px"
	 viewBox="0 0 30 30" style="enable-background:new 0 0 30 30;" xml:space="preserve">
<style type="text/css">
	.st0{fill:none;stroke:#7D8693;stroke-width:1.5;stroke-miterlimit:10;}
	.st1{fill:#7D8693;}
</style>
<circle class="st0" cx="15" cy="15" r="12.38"/>
<path class="st1" d="M19.52,15.89c-0.89-1.55-3.04-1.92-4.25-0.76c-0.6,0.56-0.79,1.55-0.46,2.3c0.29,0.67,0.93,0.98,1.76,0.89
	c1.08-0.11,1.61-1.26,0.99-2.17c-0.08-0.13-0.27-0.23-0.19-0.4c0.11-0.16,0.31-0.12,0.48-0.1c0.68,0.04,1.12,0.46,1.37,1.06
	c0.25,0.56,0.27,1.14,0.14,1.72c-0.58,2.49-3.12,3.66-5.22,3.43c-0.75-0.1-0.95-0.39-0.95-1.16c0-2.49,0-4.97-0.02-7.45
	c0-0.39,0.12-0.46,0.47-0.46c1.16,0,2.34,0,3.5,0l0,0c0.6,0,1.18,0,1.78,0c0.12,0,0.21,0,0.31,0c0.47,0,0.62-0.23,0.66-0.37
	c0.02-0.08,0-0.17,0-0.17c0.02-0.08,0-0.14,0-0.21c-0.07-0.27-0.35-0.35-0.6-0.37c-0.06,0-0.12,0-0.19,0c-0.66,0-1.32,0-1.98,0
	c-1.12,0-2.24,0-3.36,0c-0.45,0-0.52-0.02-0.52-0.43l0,0c0.08-1.26-0.02-2.17-0.22-2.82c-0.27-0.74-0.62-1.16-0.97-1.39
	c-0.26-0.1-0.48-0.23-0.77-0.24C10.35,6.7,9.57,7.07,8.82,7.61C8.68,7.71,8.7,7.78,8.78,7.9C8.9,8.15,9.03,8.15,9.27,8.04
	c1.43-0.58,2.51,0.02,2.67,1.47c0.08,0.66,0.04,1.35,0.06,2.03c0,0.04,0,0.08,0,0.11c-0.27,0-0.52,0-0.79,0c-0.13,0-0.21,0-0.31,0
	c-0.25,0-0.39,0.06-0.5,0.15c-0.08,0.08-0.12,0.16-0.14,0.24c0,0.11,0,0.23,0,0.38c0.06,0.29,0.33,0.37,0.56,0.41
	c0.04,0,0.08,0,0.12,0h0.02c0.02,0,0.04,0,0.06,0c0.17,0,0.33,0,0.5,0c0.02,0,0.04,0,0.06,0c0.08-0.02,0.16,0,0.23,0
	c0.13,0.02,0.17,0.11,0.19,0.27l0,0l-0.02,7.72c0,0,0,0.04,0,0.13c0,0.35,0.06,1.38,0.85,1.94c0.31,0.18,0.7,0.29,1.14,0.33
	c2.46,0.16,4.97-1.51,5.73-3.87C20.1,18.17,20.14,16.99,19.52,15.89z"/>
</svg>
