<?xml version="1.0" encoding="utf-8"?>
<!-- Generator: Adobe Illustrator 24.1.1, SVG Export Plug-In . SVG Version: 6.00 Build 0)  -->
<svg version="1.1" id="Layer_1" xmlns="http://www.w3.org/2000/svg" xmlns:xlink="http://www.w3.org/1999/xlink" x="0px" y="0px"
	 viewBox="0 0 30 30" style="enable-background:new 0 0 30 30;" xml:space="preserve">
<style type="text/css">
	.st0{fill:#7D8693;}
</style>
<g>
	<path class="st0" d="M20.6,21.5h-9.4c-1.2,0-2.2-1-2.2-2.2v-6c0-1.2,1-2.2,2.2-2.2h9.4c1.2,0,2.2,1,2.2,2.2v6
		c0,0.6-0.2,1.2-0.6,1.6C21.7,21.3,21.2,21.5,20.6,21.5z M11.1,12.1c-0.7,0-1.2,0.5-1.2,1.2v6c0,0.7,0.5,1.2,1.2,1.2h9.4
		c0.3,0,0.6-0.1,0.8-0.3c0.2-0.2,0.3-0.5,0.3-0.8v-6c0-0.7-0.5-1.2-1.2-1.2H11.1z"/>
	<path class="st0" d="M22.3,15.5H9.4c-0.3,0-0.5-0.2-0.5-0.5c0-0.3,0.2-0.5,0.5-0.5h12.9c0.3,0,0.5,0.2,0.5,0.5
		C22.8,15.3,22.6,15.5,22.3,15.5z"/>
	<path class="st0" d="M9.4,19H8.5c-1.2,0-2.2-1-2.2-2.2v-6c0-1.2,1-2.2,2.2-2.2H18c1.2,0,2.2,1,2.2,2.2v0.9c0,0.3-0.2,0.5-0.5,0.5
		c-0.3,0-0.5-0.2-0.5-0.5v-0.9c0-0.7-0.5-1.2-1.2-1.2H8.5c-0.7,0-1.2,0.5-1.2,1.2v6c0,0.7,0.5,1.2,1.2,1.2h0.9
		c0.3,0,0.5,0.2,0.5,0.5C9.9,18.7,9.7,19,9.4,19z"/>
	<path class="st0" d="M14.5,19H12c-0.3,0-0.5-0.2-0.5-0.5c0-0.3,0.2-0.5,0.5-0.5h2.6c0.3,0,0.5,0.2,0.5,0.5
		C15.1,18.7,14.8,19,14.5,19z"/>
</g>
</svg>
