<?xml version="1.0" encoding="utf-8"?>
<!-- Generator: Adobe Illustrator 24.1.1, SVG Export Plug-In . SVG Version: 6.00 Build 0)  -->
<svg version="1.1" id="Layer_1" xmlns="http://www.w3.org/2000/svg" xmlns:xlink="http://www.w3.org/1999/xlink" x="0px" y="0px"
	 viewBox="0 0 30 30" style="enable-background:new 0 0 30 30;" xml:space="preserve">
<style type="text/css">
	.st0{fill:#FFFFFF;}
</style>
<g>
	<path class="st0" d="M23.6,24.1H10.3c-1.7,0-3.1-1.4-3.1-3.1v-8.5c0-1.7,1.4-3.1,3.1-3.1h13.3c1.7,0,3.1,1.4,3.1,3.1V21
		c0,0.8-0.3,1.7-0.8,2.3C25.1,23.8,24.4,24.1,23.6,24.1z M10.1,10.8c-1,0-1.7,0.7-1.7,1.7V21c0,1,0.7,1.7,1.7,1.7h13.3
		c0.4,0,0.8-0.1,1.1-0.4c0.3-0.3,0.4-0.7,0.4-1.1v-8.5c0-1-0.7-1.7-1.7-1.7H10.1V10.8z"/>
	<path class="st0" d="M26,15.6H7.7c-0.4,0-0.7-0.3-0.7-0.7c0-0.4,0.3-0.7,0.7-0.7H26c0.4,0,0.7,0.3,0.7,0.7
		C26.7,15.4,26.4,15.6,26,15.6z"/>
	<path class="st0" d="M7.7,20.6H6.4c-1.7,0-3.1-1.4-3.1-3.1V9c0-1.7,1.4-3.1,3.1-3.1h13.4C21.6,5.9,23,7.3,23,9v1.3
		c0,0.4-0.3,0.7-0.7,0.7s-0.7-0.3-0.7-0.7V9c0-1-0.7-1.7-1.7-1.7H6.4C5.5,7.3,4.8,8,4.8,9v8.5c0,1,0.7,1.7,1.7,1.7h1.3
		c0.4,0,0.7,0.3,0.7,0.7C8.4,20.2,8.1,20.6,7.7,20.6z"/>
	<path class="st0" d="M14.9,20.6h-3.5c-0.4,0-0.7-0.3-0.7-0.7c0-0.4,0.3-0.7,0.7-0.7h3.7c0.4,0,0.7,0.3,0.7,0.7
		C15.8,20.2,15.4,20.6,14.9,20.6z"/>
</g>
</svg>
