<?xml version="1.0" encoding="utf-8"?>
<!-- Generator: Adobe Illustrator 24.1.1, SVG Export Plug-In . SVG Version: 6.00 Build 0)  -->
<svg version="1.1" id="Layer_1" xmlns="http://www.w3.org/2000/svg" xmlns:xlink="http://www.w3.org/1999/xlink" x="0px" y="0px"
	 viewBox="0 0 30 30" style="enable-background:new 0 0 30 30;" xml:space="preserve">
<style type="text/css">
	.st0{fill:none;stroke:#FFFFFF;stroke-miterlimit:10;}
</style>
<g>
	<path class="st0" d="M22.7,24.1l2.6,1.3c0.5,0.3,1.1-0.2,1-0.7l-0.5-2.9l2.1-2c0.4-0.4,0.2-1.1-0.4-1.2l-2.9-0.4l-1.3-2.6
		c-0.3-0.5-1-0.5-1.2,0l-1.3,2.6l-2.9,0.4c-0.6,0.1-0.8,0.8-0.4,1.2l2.1,2l-0.5,2.9c-0.1,0.6,0.5,1,1,0.7L22.7,24.1"/>
	<path class="st0" d="M15,13.3l2.6,1.3c0.5,0.3,1.1-0.2,1-0.7l-0.5-2.9l2.1-2c0.4-0.4,0.2-1.1-0.4-1.2l-2.9-0.4l-1.3-2.6
		c-0.3-0.5-1-0.5-1.2,0l-1.3,2.6l-2.9,0.4C9.6,8,9.4,8.7,9.8,9.1l2.1,2l-0.5,2.9c-0.1,0.6,0.5,1,1,0.7L15,13.3"/>
	<path class="st0" d="M7.3,24.1l2.6,1.3c0.5,0.3,1.1-0.2,1-0.7l-0.5-2.9l2.1-2c0.4-0.4,0.2-1.1-0.4-1.2l-2.9-0.4l-1.3-2.6
		c-0.3-0.5-1-0.5-1.2,0l-1.3,2.6l-2.9,0.4c-0.6,0.1-0.8,0.8-0.4,1.2l2.1,2l-0.5,2.9c-0.1,0.6,0.5,1,1,0.7L7.3,24.1"/>
</g>
</svg>
