<?xml version="1.0" encoding="utf-8"?>
<!-- Generator: Adobe Illustrator 24.1.1, SVG Export Plug-In . SVG Version: 6.00 Build 0)  -->
<svg version="1.1" id="Layer_1" xmlns="http://www.w3.org/2000/svg" xmlns:xlink="http://www.w3.org/1999/xlink" x="0px" y="0px"
	 viewBox="0 0 30 30" style="enable-background:new 0 0 30 30;" xml:space="preserve">
<style type="text/css">
	.st0{fill:#7D8693;stroke:#7D8693;stroke-width:0.5;stroke-miterlimit:10;}
</style>
<g>
	<polygon class="st0" points="17.8,21.4 15.4,19.1 15.9,18.6 17.8,20.3 21.5,16.2 22.1,16.7 	"/>
	<rect x="11.7" y="12.2" class="st0" width="6.4" height="0.8"/>
	<rect x="11.7" y="9.8" class="st0" width="7.4" height="0.8"/>
	<rect x="11.7" y="14.6" class="st0" width="5.3" height="0.8"/>
	<rect x="11.7" y="17.1" class="st0" width="3" height="0.8"/>
	<path class="st0" d="M15,22.4h-3.9c-1,0-1.9-0.9-1.9-1.9v-11c0-1,0.9-2,1.9-2h7.9c1,0,1.9,0.9,1.9,2v4.7h-0.7V9.5
		c0-0.7-0.5-1.2-1.2-1.2h-7.9c-0.6,0-1.2,0.5-1.2,1.2v11c0,0.7,0.5,1.2,1.2,1.2H15V22.4z"/>
</g>
</svg>
