<?xml version="1.0" encoding="utf-8"?>
<!-- Generator: Adobe Illustrator 24.1.1, SVG Export Plug-In . SVG Version: 6.00 Build 0)  -->
<svg version="1.1" id="Layer_1" xmlns="http://www.w3.org/2000/svg" xmlns:xlink="http://www.w3.org/1999/xlink" x="0px" y="0px"
	 viewBox="0 0 30 30" style="enable-background:new 0 0 30 30;" xml:space="preserve">
<style type="text/css">
	.st0{fill:#7D8693;}
</style>
<g>
	<path class="st0" d="M17.1,22h-7c-1.2,0-2.1-1-2.1-2.1v-9.4c0-1.2,1-2.1,2.1-2.1h7c1.2,0,2.1,1,2.1,2.1V12c0,0.3-0.3,0.6-0.6,0.6
		c-0.3,0-0.6-0.3-0.6-0.6v-1.6c0-0.5-0.4-1-1-1h-7c-0.5,0-1,0.4-1,1v9.4c0,0.5,0.4,1,1,1h7c0.5,0,1-0.4,1-1v-1.6
		c0-0.3,0.3-0.6,0.6-0.6c0.3,0,0.6,0.3,0.6,0.6v1.6C19.2,21,18.3,22,17.1,22z"/>
	<path class="st0" d="M23.3,15.7h-8.6c-0.3,0-0.6-0.3-0.6-0.6s0.3-0.6,0.6-0.6h8.6c0.3,0,0.6,0.3,0.6,0.6S23.7,15.7,23.3,15.7z"/>
	<path class="st0" d="M21,18.1c-0.2,0-0.3-0.1-0.4-0.2c-0.2-0.2-0.2-0.6,0-0.8l1.9-1.9l-1.9-1.9c-0.2-0.2-0.2-0.6,0-0.8
		c0.2-0.2,0.6-0.2,0.8,0l2.3,2.3c0.2,0.2,0.2,0.6,0,0.8l-2.3,2.3C21.3,18,21.1,18.1,21,18.1z"/>
</g>
</svg>
