<?xml version="1.0" encoding="utf-8"?>
<!-- Generator: Adobe Illustrator 24.1.1, SVG Export Plug-In . SVG Version: 6.00 Build 0)  -->
<svg version="1.1" id="Layer_1" xmlns="http://www.w3.org/2000/svg" xmlns:xlink="http://www.w3.org/1999/xlink" x="0px" y="0px"
	 viewBox="0 0 30 30" style="enable-background:new 0 0 30 30;" xml:space="preserve">
<style type="text/css">
	.st0{fill:none;stroke:#FFFFFF;stroke-width:1.5;stroke-linecap:round;stroke-linejoin:round;}
</style>
<g>
	<path class="st0" d="M10.6,11.9V9.1c0-2.6,2-5,4.6-5.1c2.8-0.2,5.1,2.1,5.1,4.8v3.1"/>
	<path class="st0" d="M21.4,12.8c3.3,3.2,3.3,8.5,0,11.8s-8.5,3.3-11.8,0s-3.3-8.5,0-11.8S18.1,9.6,21.4,12.8"/>
	<path class="st0" d="M15.5,21.2V18"/>
	<path class="st0" d="M15.5,16c-0.5,0-1,0.4-1,1c0,0.5,0.4,1,1,1s1-0.4,1-1S16,16,15.5,16"/>
</g>
</svg>
