<?xml version="1.0" encoding="utf-8"?>
<!-- Generator: Adobe Illustrator 24.1.1, SVG Export Plug-In . SVG Version: 6.00 Build 0)  -->
<svg version="1.1" id="Layer_1" xmlns="http://www.w3.org/2000/svg" xmlns:xlink="http://www.w3.org/1999/xlink" x="0px" y="0px"
	 viewBox="0 0 30 30" style="enable-background:new 0 0 30 30;" xml:space="preserve">
<style type="text/css">
	.st0{fill:none;stroke:#252C53;stroke-linecap:round;stroke-linejoin:round;}
</style>
<path class="st0" d="M7,17.3V12c0-4.4,3.6-8,8-8s8,3.6,8,8v5.3c0,1.3,0.6,2.6,1.6,3.4L25,21c1.2,1,0.5,3-1,3H6c-1.6,0-2.3-2-1-3
	l0.4-0.3C6.4,19.8,7,18.6,7,17.3L7,17.3z"/>
<path class="st0" d="M18,24c0,1.7-1.3,3-3,3c-1.7,0-3-1.3-3-3"/>
</svg>
