<?xml version="1.0" encoding="utf-8"?>
<!-- Generator: Adobe Illustrator 24.1.1, SVG Export Plug-In . SVG Version: 6.00 Build 0)  -->
<svg version="1.1" id="Layer_1" xmlns="http://www.w3.org/2000/svg" xmlns:xlink="http://www.w3.org/1999/xlink" x="0px" y="0px"
	 viewBox="0 0 30 30" style="enable-background:new 0 0 30 30;" xml:space="preserve">
<style type="text/css">
	.st0{fill:#7D8693;}
</style>
<path class="st0" d="M22.8,24.4c-0.3,0-0.6-0.3-0.6-0.6c0-2.2-1.8-4.1-4.1-4.1h-5.3c-2.2,0-4.1,1.8-4.1,4.1c0,0.3-0.3,0.6-0.6,0.6
	c-0.3,0-0.6-0.3-0.6-0.6c0-2.9,2.3-5.2,5.2-5.2h5.3c2.9,0,5.2,2.3,5.2,5.2C23.4,24.2,23.1,24.4,22.8,24.4z"/>
<path class="st0" d="M15.5,16.6c-1.3,0-2.6-0.5-3.5-1.5c-2-2-2-5.1,0-7.1c0.9-0.9,2.2-1.5,3.5-1.5c1.3,0,2.6,0.5,3.5,1.5l0,0l0,0
	c0.9,0.9,1.5,2.2,1.5,3.5c0,1.3-0.5,2.6-1.5,3.6C18.1,16.1,16.8,16.6,15.5,16.6z M15.5,7.7c-1,0-2,0.4-2.7,1.1c-1.5,1.5-1.5,4,0,5.5
	c0.7,0.7,1.7,1.1,2.7,1.1s2-0.4,2.7-1.1c0.7-0.7,1.1-1.7,1.1-2.7s-0.4-2-1.1-2.7l0,0C17.5,8.1,16.5,7.7,15.5,7.7z"/>
</svg>
