<?xml version="1.0" encoding="utf-8"?>
<!-- Generator: Adobe Illustrator 24.1.1, SVG Export Plug-In . SVG Version: 6.00 Build 0)  -->
<svg version="1.1" id="Layer_1" xmlns="http://www.w3.org/2000/svg" xmlns:xlink="http://www.w3.org/1999/xlink" x="0px" y="0px"
	 viewBox="0 0 30 30" style="enable-background:new 0 0 30 30;" xml:space="preserve">
<style type="text/css">
	.st0{fill:none;stroke:#5E6670;stroke-width:1.5;stroke-linecap:round;stroke-linejoin:round;}
</style>
<path class="st0" d="M24.47,18.99h-2c-1.1,0-2-0.9-2-2l0,0c0-1.1,0.9-2,2-2h2c0.55,0,1,0.45,1,1v2
	C25.47,18.54,25.02,18.99,24.47,18.99z"/>
<path class="st0" d="M24.47,14.99v-3c0-1.11-0.9-2-2-2H8.97c-0.83,0-1.5-0.67-1.5-1.5l0,0c0-0.83,0.67-1.5,1.5-1.5h12.5"/>
<path class="st0" d="M24.47,18.99v3c0,1.1-0.9,2-2,2h-13c-1.11,0-2-0.9-2-2V8.49"/>
</svg>
