<?xml version="1.0" encoding="utf-8"?>
<!-- Generator: Adobe Illustrator 24.1.1, SVG Export Plug-In . SVG Version: 6.00 Build 0)  -->
<svg version="1.1" id="Layer_1" xmlns="http://www.w3.org/2000/svg" xmlns:xlink="http://www.w3.org/1999/xlink" x="0px" y="0px"
	 viewBox="0 0 30 30" style="enable-background:new 0 0 30 30;" xml:space="preserve">
<style type="text/css">
	.st0{fill:none;stroke:#FFFFFF;stroke-width:1.5;stroke-linecap:round;stroke-linejoin:round;}
</style>
<path class="st0" d="M24.5,19h-2c-1.1,0-2-0.9-2-2l0,0c0-1.1,0.9-2,2-2h2c0.5,0,1,0.4,1,1v2C25.5,18.5,25,19,24.5,19z"/>
<path class="st0" d="M24.5,15v-3c0-1.1-0.9-2-2-2H9c-0.8,0-1.5-0.7-1.5-1.5l0,0C7.5,7.7,8.1,7,9,7h12.5"/>
<path class="st0" d="M24.5,19v3c0,1.1-0.9,2-2,2h-13c-1.1,0-2-0.9-2-2V8.5"/>
</svg>
