<?xml version="1.0" encoding="utf-8"?>
<!-- Generator: Adobe Illustrator 24.1.1, SVG Export Plug-In . SVG Version: 6.00 Build 0)  -->
<svg version="1.1" id="Layer_1" xmlns="http://www.w3.org/2000/svg" xmlns:xlink="http://www.w3.org/1999/xlink" x="0px" y="0px"
	 viewBox="0 0 30 30" style="enable-background:new 0 0 30 30;" xml:space="preserve">
<style type="text/css">
	.st0{fill:none;stroke:#FFFFFF;stroke-width:1.5;stroke-linecap:round;stroke-linejoin:round;}
</style>
<path class="st0" d="M24,14.1h-3.6c-0.8,0-1.4,0.6-1.4,1.4v1.2c0,0.8,0.6,1.4,1.4,1.4H24"/>
<path class="st0" d="M22,23.1H8c-1.1,0-2-0.9-2-2v-10c0-1.1,0.9-2,2-2h14c1.1,0,2,0.9,2,2v10C24,22.2,23.1,23.1,22,23.1z"/>
<path class="st0" d="M17,9.1l-3.3-3.3c-0.4-0.4-1-0.4-1.4,0L9,9.1"/>
<path class="st0" d="M15,7.1l1.3-1.3c0.4-0.4,1-0.4,1.4,0L21,9.1"/>
</svg>
