<?xml version="1.0" encoding="utf-8"?>
<!-- Generator: Adobe Illustrator 24.1.1, SVG Export Plug-In . SVG Version: 6.00 Build 0)  -->
<svg version="1.1" id="Layer_1" xmlns="http://www.w3.org/2000/svg" xmlns:xlink="http://www.w3.org/1999/xlink" x="0px" y="0px"
	 viewBox="0 0 25 25" style="enable-background:new 0 0 25 25;" xml:space="preserve">
<style type="text/css">
	.st0{fill:#FF0000;}
</style>
<g>
	<path class="st0" d="M12.5,22.4c-0.7,0-7.1,0-8.9-0.6c-1.2-0.4-2.2-1.5-2.5-2.9c-0.5-2.1-0.5-6.3-0.5-6.4c0-0.2,0-4.3,0.5-6.4
		c0.3-1.4,1.3-2.5,2.5-2.9c1.8-0.6,8.2-0.6,8.9-0.6c0.7,0,7.1,0,8.9,0.6c1.2,0.4,2.2,1.5,2.5,2.9l0,0c0.5,2.1,0.5,6.3,0.5,6.4
		c0,0.2,0,4.3-0.5,6.4c-0.3,1.4-1.3,2.5-2.5,2.9C19.6,22.4,13.2,22.4,12.5,22.4z M12.5,4.2c-1.9,0-7.1,0.1-8.5,0.5
		C3.3,4.9,2.8,5.6,2.6,6.4c-0.4,1.9-0.4,6-0.4,6.1s0,4.2,0.4,6.1c0.2,0.8,0.7,1.5,1.4,1.7c1.3,0.4,6.6,0.5,8.5,0.5
		c1.9,0,7.1-0.1,8.5-0.5c0.7-0.2,1.2-0.9,1.4-1.7c0.4-1.9,0.4-6,0.4-6.1s0-4.2-0.4-6.1v0c-0.2-0.8-0.7-1.5-1.4-1.7
		C19.6,4.3,14.4,4.2,12.5,4.2z"/>
	<path class="st0" d="M10.3,16.6c-0.1,0-0.3,0-0.4-0.1c-0.2-0.1-0.4-0.4-0.4-0.7V9.2c0-0.3,0.1-0.5,0.4-0.7s0.5-0.1,0.8,0l5.8,3.3
		c0.2,0.1,0.4,0.4,0.4,0.7s-0.1,0.5-0.4,0.7l-5.8,3.3C10.5,16.6,10.4,16.6,10.3,16.6z M11.1,10.5v4l3.4-2L11.1,10.5z"/>
</g>
</svg>
